<?xml version="1.0" encoding="utf-8"?>
<!-- Generator: Adobe Illustrator 26.2.1, SVG Export Plug-In . SVG Version: 6.00 Build 0)  -->
<svg version="1.1" id="Layer_1" xmlns="http://www.w3.org/2000/svg" xmlns:xlink="http://www.w3.org/1999/xlink" x="0px" y="0px"
	 viewBox="0 0 1451.1 1488.5" style="enable-background:new 0 0 1451.1 1488.5;" xml:space="preserve">
<style type="text/css">
	.st0{fill:#E8F0EC;stroke:#7B6F6F;stroke-width:0.4036;}
	.st1{fill-opacity:0.5;stroke:#000000;stroke-width:1.6146;stroke-opacity:0;}
	.st2{fill:#FF0000;fill-opacity:0.5;}
	.st3{fill:#FF0000;fill-opacity:0.5;stroke:#000000;stroke-width:1.6146;stroke-opacity:0;}
</style>
<g id="globe-layer">
</g>
<g id="graticule-layer">
</g>
<g id="regions-layer">
	<path class="st0" d="M793.8,421.9L900.7,361l20.8,40.6l-57.9,32.6l5.1,36l0.6,8.8l-5.4,1.5l-9.4-7.9l-4.3,2.2l-21.5-32.8L813.8,453
		l11,16.1l8.2,14.8l12.7,22.8l-1.3,1.7l-0.6,1.7l-1.3,2.4l-12,15.9l-8.2-5.6l-5.1-3.9l-13.9-8.8l-5.6-3.9l-7.5-6.4l-1.3-1.7
		l-3.7-1.7l-6.6-6.4l-17.4-16.9l-8.2-12l-1.9-3.2l-6.9-13.7l-3.7-8.8l8.4-4.1l3-1.5l8.2-13.7l11.4-0.7l4.5-0.7l6.4,1.7h3.2
		L793.8,421.9z"/>
	<path class="st0" d="M863.8,434.2l101.3-57.1l12.7,2.4L988,382l3.7,9.6l0.6,3.2l2.6,12l-1.3,3.9l-2.2,3.6l-14.4-4.9l-88.8,46.4
		l6.6,31.3l-1.1,28.7l-46.4-10.9l-1.5,2.1l-12.7-23.2l21.3-10.9l9.4,7.9l5.4-1.5l-0.6-8.8L863.8,434.2z"/>
	<path class="st0" d="M700.9,287.4l9.4,2.2l4.7,1.1l3.6,0.4l5.1,0.7l4.1,0.2l2.6-0.2l2.8-0.6l9.6-3.9l2.6-0.7l2.8-1.3l1.3-1.3
		l0.9-1.9l1.5-4.5l0.6-3.9l3.2-15.2l1.5-3.9l1.7-4.1l0.6-0.9l1.5-1.3l4.3-1.7l15.2-3.9l3.7-2.4l4.5-2.4l5.2-6.4L766.4,188l5.2-18.2
		l36.1,44.2l1.3,0.7l2.4,2.4l5.6,7.1l1.9,2.8l2.2,3l5.1,8.1l-0.2,0.6l-1.1,3.4l7.1,10.1l-34.6,63.7v-0.7l-11.2-9.6l-6.9-2.2
		l-20.4,3.4l-23.8,11.8l-19.5-5.2l-6.6-8.6l-7.9-15.5L700.9,287.4z"/>
	<path class="st0" d="M716.2,313.2l19.5,5.2l23.8-11.8l20.4-3.4l6.9,2.2l11,9.6v0.7l-6.2,26.6l-1.9,12l-0.7,10.9l-0.4,9.9l4.5,15.9
		l-8.1,25.3l-3.2-6.4l-12.4-22.5l-2.2-3.9l-13.9-15.2l-12-17.6l-2.4-3.9l-5.1-9.6l-3.6-5.6L716.2,313.2z"/>
	<path class="st0" d="M373.5,375.2l0.9,3.4l-11.6,3h-3.2l-1.9,1.7l-1.3-4.9l-1.9-5.6l-3.7-14.4l-1.3-3.9l-3.2-13.7l-2.4-11.2
		l-1.3-5.6l-1.9-6.4l-1.9-7.1l-1.9-4.9l-0.6-3.2l-0.6-4.9l-1.9-8.1l-2.4-8.8l-1.3-2.4l17.8-5.6l0.9,3.6l0.6,2.8l1.3,5.4l0.7,2.8
		l1.5,6.2l0.6,2.4l0.9,3.6l0.4,1.5l1.1,4.7l0.9,3.2l1.1,4.1l1.7,7.1l1.5,5.8l1.9,7.1l1.1,3.9l0.9,3.9l2.4,8.8l1.3,4.9l1.7,6.4
		l0.9,3.9l0.6,2.4l0.7,3.4L373.5,375.2z"/>
	<path class="st0" d="M405.2,324.9v3.2l-5.6,3.9l-5.1,2.4l-13.3,8.1l-13.9,7.1l-2.4-8.8l-0.9-3.9l-1.1-3.9l-1.9-7.1l-1.5-5.8
		l-1.7-7.1l-1.1-4.1l-0.9-3.2l-1.1-4.7l-0.4-1.5l-0.9-3.6l-0.6-2.4l-1.5-6.2l-0.7-2.8l-1.3-5.4l-0.6-2.8l14.2-4.3l1.9,3.2l1.3,7.1
		v2.4l5.6-1.7l0.6,3.9l0.9,3.7l1.7,6.7l0.6,3.2l3.2-0.7l11.4-2.4l11.4-1.5v3.2l1.9,8.8l0.6,7.1l0.6,3.2l0.4,4.5L405.2,324.9z"/>
	<path class="st0" d="M454.6,372l3.7,5.6h-1.9l-3.2,0.7l-11.4,2.4l-13.9,2.4l-10.7,3.2l-4.5,0.7l0.9-3.7l-4.1-0.2l-4.3-55.2v-3.2
		l-0.2-1.9l-0.4-4.5l-0.6-3.2l-0.6-7.1l-1.9-8.8v-3.2l0.6-0.2l6.9-1.5l1.3,3.9l0.6,7.1l0.6,2.4l3.2-0.7l13.9-2.4l5.6-0.7l6.4-0.7
		h1.9l0.6,4.9l1.3,7.1l1.3,6.4l0.6,7.1l1.3,5.6l0.6,5.6l0.6,4.9l1.9,6.4l0.6,6.4l1.9,6.4L454.6,372z"/>
	<path class="st0" d="M785,703l-1.9,3.2l-1.3,4.9v3.2l-1.9,3.2l-1.9,7.1l6.4,2.4l6.9,3.9l-4.5,7.1l-12-3.9l-0.6,1.7l-1.3,4.9
		l-1.3,4.9l-1.9,5.6l-1.9,4.9l-1.3,5.6l-1.9,3.9l-1.3,5.6l-0.6,1.7l-1.3,3.9l-0.6,2.4l-1.9,4.9v1.7l-1.9,3.9l-0.6,4.9l-0.6,2.4
		l-1.9,3.9l-2.4,8.8l-5.6-2.4l-5.1-2.4h-1.9h-5.6l-7.7-0.7l5.1-6.4l4.5-6.4l3.7-4.9l-5.1-3.2l9.6-12.7l-4.5-3.9l4.5-6.4l8.2-10.5
		l2.6-7.1l3-12.2l-9.6-3.2l1.3-1.7l2.6-7.1l3.6,0.9l2.1,0.6l6.9-21.5l-3.7-4.9l0.6-4.1l0.2-0.7l0.7-2.2l1.7,0.6l13.9,3.9l9.7,3.6
		l-0.7,3.6l-0.6,0.7L785,703z"/>
	<path class="st0" d="M656.7,719.6l-1.9,0.7l-6.4,3.2l-5.6,4.9l-1.3,1.7l-4.5,3.9l-3.7,3.2l-2.6,1.7l-0.6,1.7l-5.1,3.9l-1.9,1.7
		l-4.5,3.9l-1.3,1.7l-2.4,3.2H613l-1.9,2.4l-3.2,3.2l-3.7,3.9l-6.9-3.2l5.6-5.6l-8.2-8.8l-5.1-6.4l-6.9-6.4l-5.1-5.6l-5.6-6.4
		l-5.1-5.6l-5.8-6.4l-5.1-6.4l5.6-4.9l5.6-5.6l5.6-5.6l6.4,6.4l5.6,7.1l5.6,5.6l6.4-3.9l6.9-5.6l6.4-4.9l5.6-4.9l6.9-5.6l5.6-3.9
		l5.1,5.6l3.7,4.9l6.4,6.4l5.6,7.1l5.6,4.9l8.8,9.6h-1.9l-3.7,2.4L656.7,719.6z"/>
	<path class="st0" d="M387.9,658.4l0.2,1.1l-1.1,0.6l-1.3,0.9l-0.9,0.6l-0.9,1.1l-1.9,5.6l-6.9-3.9l-8.1-3.9l-0.6,1.5l-1.3,2.4
		l-0.6,5.6l-1.1,4.1l-0.2,0.7l-1.9,7.1l-1.3,4.9l3.7,0.7l6.4,3.9l7.7,3.9l-5.6,11.2l-2.2,4.7l-2.2-2.1l-12.5-1.1l-15.9-1.7l-5.8-0.9
		l0.6-6l-4.3-1.1l-7.1,18.4l-4.9-3l1.7-9.2l-3.4-0.6l-3.6,10.7l-3.7,4.5l-2.8-4.5l-3.6,1.3l0.4,4.9l-14.8,3.9l-60.7-0.7l-41.8-8.8
		l-43.1-11.4l-51.1-13.5l-29.8-16.9l2.6-3.9l2.4-0.4l5.8-1.1l18.9-0.7l10.1-26.4l1.9-10.5l1.3-8.1l-13.3-3.9l-2.2-0.6l-5.6-1.9
		l-8.2,5.8l-18.9,13.5l-30,12.5l-16.5,6.4l-9.6-14.4l51.3-44.8h5.1h5.6l29,1.7l28.5,2.4l18.9,1.7l27.9,3.2l18.9,2.4l11.4-1.5
		l3.4,0.9l30.2,38.6l11,9.9l12.2,5.6l14,3.4l14.2,1.3l3.7,0.2l5.1-0.6l4.1-1.3l3.4-17.2l0.6-3.2l2.6-7.9h1.3l6.4,2.4h3.7l4.5,1.7
		l-5.1-8.8l-2.2-2.4l2.1-0.2l2.4,0.7l-1.3-1.3l-1.5-2.8l-0.9-1.9l-0.9-9.9l9.4,2.2l3.9,0.9l4.5,2.4l7.7,1.7l6.4,1.7l7.5,2.4l6.9,1.7
		l5.6,1.7l6.9,2.4l6.4,1.7l1.5,0.2l3.6,0.2l1.3-1.3l5.6,3.2l3.7,1.7l3.2,1.7l-4.7,10.1l-0.9,4.3l-0.6,4.1L387.9,658.4z"/>
	<path class="st0" d="M592.4,598.8l-6.9,5.6l-3.2,2.4l-2.6,2.4l-3.7,0.7l-3.2-3.2l-4.5,3.2l-15.7,8.1l-14.6,0.7l-1.9-4.9l-1.3-8.1
		l1.3-3.9l-7.7-0.7l-7.5-1.7l-5.1-3.2l-1.9-1.7l-4.5-5.6l-1.9-1.7l-1.3-4.9l-0.2-1.9l-0.4-3.7l8.8-3.9l4.5-5.6l17.8-14.4l18.9-13.7
		l0.7-0.6l3.2-2.6l1.9,3.2l0.4,0.6l2.2,3.6l6.7,14.8l0.6,1.9l3.9,16.9l0.7,1.9l2.6,3.2l6.9,8.1l10.7,10.3L592.4,598.8z"/>
	<path class="st0" d="M917.9,788.4l-2.4,1.7l-3.2,1.7l-7.7,4.9l-5.6,3.2l-4.5,3.2l-4.5,2.4l-6.4,3.9l-4.5,3.2l-5.6,3.9l-5.6,3.2
		l-6.9-8.1l-1.5-1.9l-2.2-2.8l-4.9-5.4l-4.5-5.1l-7.7-8.1l-3.9-4.7l-2.1-2.6l-3.9-4.7l2.6-3.2l7.7-5.6l6.9-4.9l5.1-3.9l5.1-3.2
		l1.9-1.7l2.4-2.4l1.9-1.7l3.2-1.7l4.5-3.9l2.4-1.7l9.9,12.2l8.4,10.3l3.6,3.4l6.2,6.7l1.3,0.9l3.6,3.4l3.2,1.9l2.4,1.5l7.7,3.9
		L917.9,788.4z"/>
	<path class="st0" d="M1081.1,1002.2l-10.1,6.4l-12,7.1l-10.7,7.1l-10.7,6.4l-13.3,7.1l-6.4-3.2l-7.7-4.9l-5.6-3.9l-5.1-2.4
		l-3.7-2.4l-1.5-1.1l-3-2.1l-1.3-0.7l-3.6-1.9l-4.7-2.8l-6.2-3.4l15.9-13.7l5.1-3.9l5.6-4.9l2.6-2.4l3.7-2.4l5.1-3.9l5.1-3.9
		l3.2-3.2l3.2-2.4l1.9-1.7l3.7-3.2l4.5-3.9l4.5-3.2l10.1,6.4l2.6,3.9l3.7,4.9l3.7,3.9l3.2,3.9l3.7,4.9l1.9,2.4l5.1,5.6l3.7,5.6
		L1081.1,1002.2z"/>
	<path class="st0" d="M1039.3,955l-4.5,3.2l-4.5,3.9l-3.7,3.2l-1.9,1.7l-3.2,2.4l-3.2,3.2l-12.7-16.9l-3.2-3.2l-2.6-3.9l-18.4,15.2
		L962.5,979l1.9,2.4l-13.3,12l-5.6-3.9l-5.6-3.9l-3.2-1.7l-2.6-1.7l-3.7-2.4l-1.9-0.7l-5.6-3.2l1.9-2.4l5.1-3.9l8.2-6.4l6.4-5.6
		l2.6-2.4l0.6-0.6l5.1-4.3l4.7-3.9l6.7-5.6l-3.2-3.9l-3.7-3.9l-1.9-1.7l-2.6-3.2l-3.7-4.9l-4.5-3.9l-6.7-7.5l1.3-8.1l4.1,0.9
		l13.5,3.4l6.9,1.7l6.9,0.7l8.2,2.4l8.2,1.7h5.6l17,3.9l13.9,1.7l6.9,1.7l6.9,0.7l8.8,0.7l25.3,5.6l-8.8,6.4l-13.9,12.7l-6.4,4.9
		l-1.3,0.7L1039.3,955z"/>
	<path class="st0" d="M832.3,773.2l-2.6,3.2l-5.6,3.2l-4.5,3.9l-4.5,3.2l-3.2,1.7l-3.7,3.2l-1.9,1.7l-4.5-6.4l-5.6-5.6l-2.6-3.2
		l0.6-3.9l-1.9-0.7l2.6-4.9l4.5,2.4l4.5-4.9l5.6-3.2l10.7-4.9l3.7,4.9l3.7,5.6L832.3,773.2z"/>
	<path class="st0" d="M674.5,681.2l-3.2,3.9l-1.3,1.7l-3.2,4.9l-3.7,6.4l-3.2,3.9l-4.5,4.9l-5.6-4.9l-5.6-7.1l-6.4-6.4l-3.7-4.9
		l18.4-15.9l1.3-0.7l8.8-4.9l8.8,3.2l3.7,2.4l6.4,6.4l-5.6,5.6L674.5,681.2z"/>
	<path class="st0" d="M1026,1210.1l-1.1,2.2l-3.6,7.5l-2.2,4.5l-9,18.5l-0.6,1.1l-2.4,4.9l-1.9,3.9l-0.4,0.7l-5.6,11.4l-2.8,5.8
		l-27.9-39.1l-1.9-2.4l-0.6-2.4l-1.3-1.7l-1.9-2.4l-29-41.6l-3.4-4.7l5.6-6.4l3.2,0.7l2.6,0.7l10.1,3.2l18.9,7.1l12-32.8l29.2,32
		l3.2,3.9l0.6,0.7l3.7,3.2l3.2,3.9l1.3,1.7l2.6,6.4v0.9L1026,1210.1z"/>
	<path class="st0" d="M510.8,260.2l-1.3,8.1l-1.9,7.1l-0.6,6.4l-0.6,4.9v5.6l-0.6,5.6l-0.6,5.6v6.4l-1.3,5.6l-0.6,7.1v2.4v7.1
		l-0.9,5.1l-0.9,5.2v2.4l-0.6,2.4l-6.4,3.9l-2.1,1.5l-3.7,3.9l-3.6,4.9l-3.7,5.6l-3.2,8.1l-5.1,22.5l-5.1-7.1l-3.7-5.6l-5.6-7.1
		l-3.7-5.6l-1.3-8.1l-1.9-6.4l-0.6-6.4l-1.9-6.4l-0.6-4.9l-0.6-5.6l-1.3-5.6l-0.6-7.1l-1.3-6.4l-1.3-7.1l-0.6-4.9l12.5-3.2v-2.4
		l-3.2-6.4v-3.2l3.2-1.7h4.5l-0.6-3.2l-1.3-6.4l-0.6-3.9l-0.6-4.9l-0.6-4.9l6.4-1.7h5.6l5.6-1.7l27.2-3.2l9.6-0.7L510.8,260.2z"/>
	<path class="st0" d="M1046.2,719.3l1.7-1.1l3.2-8.8l1.1-3.4l4.5-1.1l2.4-0.6l4.5,8.1l6.9,3.2l2.2-3.2l3.4-4.7l56.4,50.4l61.2,23.2
		l5.4,9l15.4,10.3l18.2,9.9h15.4l13.1,12.7l12.9-11.2l-95.3,88.2l-5.6,2.4l-3.7,3.2l-7.7-8.8l-9.9-7.5l-0.7-0.6l-17.8-10.3l-0.6-0.4
		l-12.7-7.7l-9.6-7.1l-2.6-1.7l-1.1-0.7l-6-4.1l-6-4.1l-3-2.1l11.2-12.2l-53-111.6L1046.2,719.3z"/>
	<path class="st0" d="M1135.5,1030.9l1.9,5.6l6,22.5l4.5,12.7l3.2,5.6l3.7,7.1l-3.2,1.7h-1.3l-2.4,1.7l-5.6,3.2l-8.2,5.6l-6.4-12
		l-6.4-12l-7.5-11.8l-3.6-8.1h-0.6l-2.6-4.9l-3.2-6l-3.2-5.2l-2.6-4.9l-2.8-4.9l-3.6-6.2l-3.4-6l-3.6-6l-4.5-6.4l8.8-5.6l2.6-1.7
		l7.9-4.9l3.7-2.4l3.7-3.9l6.9-3.9l3.7,4.9l4.5,4.9l2.6,3.9l8.8,32L1135.5,1030.9z"/>
	<path class="st0" d="M1218.7,1121.3l1.9-0.7l-1.3-4.9l5.6-4.9l3.7-3.2l7.7-4.9l9.6-7.1l4.3-2.8l2.1-1.3l6.9,9.6l6.4-4.9l27.2-15.7
		l19.7-11.4l6.4-3.2l5.1-3.9l5.1-3.2l4.5-2.4l6.9-3.9l3.7-3.2l8.8-4.9l13.3-8.1l10.1-6.4l17-10.5l3.7-1.1l14.6,30l15.2,33.5l0.6,8.1
		l12.7-8.8l10.9,22.3l-14.4,63.1l-2.4,18.4l-5.6,1.7l-6.4,14.4l-6.9-2.4l-13.3,12.7l-12,11.2l-7.7-8.8l3.2,18.4l-5.6,12l2.6,6.4
		l-5.6,3.2l-2.6,0.7l-17.8-3.2l-23.6-14.4l-3.7-2.2l1.3-3.9l1.9-6.4l1.9-4.1l2.2-2.6l-0.9-0.6l0.7-3.2l-0.6-3.2l-0.6-0.7l-9,2.8
		l9-2.8l2.1-8.6l-13.3-10.5l-39-15l-6.6,3.4l-4.9,5.8l-4.5-3.9h-3.2h-2.6l-2.6-1.7l-1.9-1.7l-5.6-6.4l-2.1-2.8l-6.7-9.2l-3.7-6.4
		l-3.7-5.6l-3-7.1L1218.7,1121.3z M1278.8,1178.1l-0.7,1.3l-0.6,1.5l0.6-1.5L1278.8,1178.1z"/>
	<path class="st0" d="M485.5,703.5l-3.2,5.6l-2.6,6.4l-1.3,1.7l-6.9-3.9l-6.9-3.9l-7.5-3.7l-6.9-4.3l-8.4-3.7l-3.6-1.9l-3.2-1.7
		l-7.5-3.9l-8.2-3.2l1.3-2.4l2.6-5.6l3.2-5.6l2.6-6.4l2.6-4.9l2.6-5.6l8.2,3.9l6.9,3.9l7.5,3.2l7.7,3.9l6.9,3.2l7.5,4.9l6.9,3.2
		l-2.6,4.9l7.7,4.9l-2.6,4.9L485.5,703.5z"/>
	<path class="st0" d="M511.3,689.9l3.7,2.4l-0.6,12l-9.6-4.7l-14.6-7.3l-7.7-4.9l2.6-4.9l-6.9-3.2l-7.5-4.9l-6.9-3.2l-7.7-3.9
		l2.6-5.6l2.6-5.6l2.6-5.6l7.5,3.9l8.2,3.9l6.9,3.9l6.9,3.9h1.9l3.2,5.6l4.5,7.1l2.6,2.4l8.8,4.9l2.6,0.7l3.2,2.4H516L511.3,689.9z"
		/>
	<path class="st0" d="M771.9,169.6l-5.2,18.2l27.3,43.4l-5.2,6.4l-4.5,2.4l-3.7,2.4l-15.2,3.9l-4.3,1.7l-1.5,1.3l-0.6,0.9l-0.9,2.1
		L720.7,220l-42.9,25.3l-0.9-10.1l-0.6-8.1l-0.6-5.6l-1.3-3.2l-17.8,1.7l-5.6-0.7l-3.7,0.7h-6.4l-9.4-0.7l-2.1-1.7l-1.5-1.3
		l-1.7-1.1l-5.6-8.1l-3.2,1.7l0.6-3.9l-0.2-1.1l-1.1-10.9l5.1-1.7l6.9,3.2l2.4-0.7l4.7-1.5l22.3-11l4.1-2.1l2.6-1.3l3.7-0.7
		l13.3-5.6l8.2-8.1l1.7-1.9l2.6-3l6.4-7.1l0.6-0.7l19.9-19.5l4.7-4.5l17-16.7l8.8,9.6l10.1-2.4l20.2,17.6l-8.8,5.6l-14.6,17.6
		l6.9,4.9L771.9,169.6z"/>
	<path class="st0" d="M406.3,504.5l1.1,3.7h-4.7l-6.9-1.7l-6.4-2.4l-7.7-1.7l-5.1-2.4l-7.7-1.7l-7.7-1.7l-5.1-1.7l-2.6,3.9l-5.6,6.4
		l-4.5,7.1l-3.2,5.6l-6.9,11.2l-3.7,7.1l-0.6,4.9l-2.4-0.7l-8.2-4.9l-7.5-4.9l-8.2-4.9l-3.6-2.8l-1.5-1.1l-1.7-1.1l-3.9-2.6
		l-0.7-0.4l-3.6-2.1l9-9.6l3-3.4l2.4-2.8l1.1-2.2l3.7-5.2l2.2-2.4l2.2-7.7l3.4-11.8l0.9-6.2v-1.7v-1.5l0.7,0.4l0.6-2.1l1.1-2.8
		l-2.4-1.5v-2.4l0.4-9.6l0.2-6.9l-1.7-2.4l-1.1-1.9l2.8,0.7l6.9,2.4l8.2,2.4l3.7,1.1l3.9,1.3l8.2,2.4l4.5,2.4l3.2,0.7l15.7,5.6
		l2.6,0.7l5.6,1.7l1.9-0.7l7.7,3.2l6.4,1.7l0.4,1.5l0.6,2.1l0.7,4.1l1.7,7.7l0.7,3.2l1.1,3.9l1.9,6.4l1.5,6.2l0.7,2.6l0.9,3.9
		L406.3,504.5z"/>
	<path class="st0" d="M659.3,654.1l-9.6,2.4l-6.4,0.7L632,659l-3.2,0.7l-11.4,3.9l-9.6,2.4l-5.1,0.7l-3.7,1.7h-2.6l-5.6,2.4
		l-7.7,0.7l-1.3,0.7l-6.4,1.7l-2.1,0.4l-2.2,0.4l-10.1,2.4l-11.4-6.4l-3.2-1.7V658l2.6-3.9l5.6-10.3l11.4-3.2l4.5-5.6l4.5,1.7
		l-6.7-3.4l7.7-23.2l3.6-0.7l2.4-2.4l3.2-2.4l6.9-5.6l3.7,1.7l20.6,3.6l9.7,3.2l5.1,1.3l2.1,1.1l23.8,13.3l6.9,4.5l6.4,4.3
		l13.3,12.7l-3.2,3.2l-4.5,3.9l-5.1,0.7L659.3,654.1z"/>
	<path class="st0" d="M975.4,1007.9l-7.7,13.7l-10.7,9.6l-11.4,9.6l-10.7,8.8l-12.7,9.6l-5.1-1.7l-6.9-8.8l-7.7-8.1l-12.7-12.7
		l1.9-2.4l13.9-15.2l5.6-5.6l6.4-4.9l3.2-2.4l2.4-2.1l7.7-6.6l5.8-5.1l3.2,1.7l5.6,3.9l5.6,3.9l4.5,2.4l5.1,3.2l3.2,1.7l1.7,1.1
		l3.4,2.1l1.9,1.5L975.4,1007.9z"/>
	<path class="st0" d="M970.9,1182.2l-34.8-12l-5.6,6.4l-4.5-5.6l-3.2-5.2l-1.1-1.9l-3.6-5.4l-3-4.1l-6.2-9.7l-24-33.5l-34.6-49.8
		l-2.4-3.9l-6.4-9.9l-8.6-12.4l-5.8-8.1l-9.6-12.7l-3.2-3.9l8.2-3.2l-7.7-17.6h-15.2l-2.4-3.6l-0.7-0.7l-12.2-21.5l-4.1-6.9
		l-9.2-15.2l-3.7-8.1l6.4-6.4l5.6-4.9l6.4-6.4l3.7,4.9l5.1,5.6l4.5,4.9l4.5,4.9l2.6,2.4l5.6,6.4l5.6,5.6l3.7,3.9l3.7,3.9l3.7,4.9
		l4.5,3.2l1.5-1.7l5.1-4.9l5.1-3.9l18.9-15.2l6.9,3.9l13.3,8.1l-33.3,29.8l9.7,10.5l-1.3,1.7l30.3,33.5L902,1041l7.7,8.1l6.9,8.8
		l5.1,1.7l-0.6,22.5l8.6,9.7l2.6,3l21,23.2l29.2,32L970.9,1182.2z"/>
	<path class="st0" d="M993.8,1274.9l-34.8-22.5l-16.5-8.8l-16.3-8.8l-1.3-28.1l13.1-20l24.7,36l1.9,2.4l1.3,1.7l0.6,2.4l1.9,2.4
		l27.9,39.1l6.9,8.8L993.8,1274.9z"/>
	<path class="st0" d="M1128.2,1099.8l-6.4,3.2l-6.9,4.9l-6.9,4.9l-5.6,3.2l-6.9,3.9l-6.4,3.9l-6.9,4.9l-3.7-5.6l-3.2-6.4l-3.2-4.9
		l-3.2-5.6l-3.4-6.4l-3.2-4.9l-0.9-2.4l-1.9-3.6l-2.2-3.7l6.4-3.9l3.2-1.7l4.5-2.4l6.4-3.9l6.4-3.9l5.1-3.2l2.4-1.7l6.4-3.2l1.9-1.7
		l5.6-3.2l2.6-1.7l2.4-2.4l3.7,8.1l7.3,12l6.4,12l6.4,12L1128.2,1099.8z"/>
	<path class="st0" d="M988.5,691l42.1-41.8l6.4,4.9l5.6-5.6l8.2,3.9l-2.6,7.1l20,12.4l4.5,2.8l6.4,3.9l-2.6,9.6l-0.6,19.1l-3.4,4.9
		l-2.2,3.2l-6.9-3.2l-4.5-8.1l-2.4,0.6l-4.5,1.1l-1.1,3.4l-3.2,8.8l-8.8,5.6l-13.1-11.2l-2.8-2.4l-7.5-1.3l-6.9-1.1l-1.3-3.2
		l-5.1-8.1l-11.4-5.6L988.5,691z"/>
	<path class="st0" d="M761,572.2l-3.7,6.4l-3.4,3.6l-3.6,3.7l-2.2,2.4l-7.3,8.1l-6.4,3.9l-3.7,3.2l-15.7,11.2l-16.5,5.6l0.6-5.6
		l6.4-12.7l-1.3-0.7l-3.2-3.9l-8.2,1.7h-2.4l-2.6,0.7l-9.4-11l-3.7,3.2l-3.2-4.9l-1.3-3.2l-1.3-5.6l-3.7-7.9l-3.9-2.4l-0.6,7.1
		l-7.5-3.9l-6.4-3.9l1.9-2.4l4.5-4.9l1.3-1.7l5.6,3.2l25.8,1.7l6.4,0.7l1.9,2.4l-1.7-2.4l-5.1-12.7l5.6-2.4l17,4.9l25.1,7.1
		l13.9,3.9l2.6,0.7l8.8,2.4l7.7,2.4L761,572.2z"/>
	<path class="st0" d="M869.1,715l-3.7,3.9l-4.5,3.9l-2.8,3.4l-9.4-7.5l-8.1-5.1l-2.8-1.9l-3.7-2.6l-6.4-2.4l-20.2-6.4l-12-3.2
		l-5.1-1.7l-3.6-1.1l1.1-3.6l0.6-1.7l0.6-3.2l3.2-8.8h2.6l4.5,1.7l5.6,2.4l7.7,2.4l6.4,2.4l6.4,1.7l6.4,2.4l6.9,2.4l5.1-1.7
		l18.9,9.6l10.1,11.2L869.1,715z"/>
	<path class="st0" d="M493.7,599.6l-1.9,7.1l-0.6,12l-7.7-8.8l-6.4,12.7l-3.2,8.8l-5.6,11.2l-4.5,8.1l-2.6,5.6l-2.6,5.6l-2.6,5.6
		l-7.5-3.2l-6.9-3.9l-8.2-3.9l-2.6,5.6l-7.7-3.9l-7.5-3.9l-6.9-3.2l2.6-5.6l3.2-5.6l2.6-4.9l2.6-6.4l7.7,3.2l1.9-4.9l3.2-5.6
		l1.9-3.2l1.3-1.7l12,3.2l1.9-6.4v-3.9l0.6-1.7l1.3-5.6l0.6-4.9l1.3-5.6l1.3-3.9v-2.4l1.3-4.9l6.9,2.4l6.4,0.7l7.7,2.4l6.9,1.7h6.9
		h6.9l-1.3,3.2l-0.6,1.7L493.7,599.6z"/>
	<path class="st0" d="M1175.1,1166.1l2.6,6.4l-10.7,2.4l-8.2,3.9h-0.6l-9.6,3.2l-2.6,0.7l-9.6,4.9l-14.6,8.1l-6.9-12l-1.3-2.4
		l-1.9-2.4l-2.8-3.6l-2.8-6l-2.8-5.1l-1.7-3l6.4-2.4l1.9-0.7l8.8-2.4l14.6-5.6l15.9-4.9l-1.9-5.6l9.6-3.9l2.2,3.7l7.3,12.2l3.2,4.9
		l2.6,5.6L1175.1,1166.1z"/>
	<path class="st0" d="M601.1,770.8l-3.2,2.4l-10.1-3.2l-10.7-4.9l-3.7-1.7l-5.6-4.9l-8.8-4.9l-7.7-2.4l-8.2-3.9l-3.2-2.4l-2.6-2.4
		l-5.1-5.6l-1.5-1.5l-4.3-4.9l6.4-5.6l5.6-5.6l6.4-5.6l5.1-4.9l6.4-5.6l5.1,6.4l5.6,6.4l5.1,5.6l5.6,6.4l5.1,5.6l6.9,6.4l5.1,6.4
		l8.2,8.8l-5.6,5.6l6.9,3.2l-1.3,3.2L601.1,770.8z"/>
	<path class="st0" d="M1107.5,983.7l-3.7,3.9l-3.7,2.4l-7.7,4.9l-2.4,1.7l-8.8,5.6l-3.7-5.6l-3.7-5.6l-5.1-5.6l-1.9-2.4l-3.7-4.9
		l-3.2-3.9l-3.7-3.9l-3.7-4.9l-2.6-3.9l-10.1-6.4l1.9-1.7l1.3-0.7l6.4-4.9l13.9-12.7l8.8-6.4l4.5,3.2l3.7,3.2l0.6,0.7l5.1,4.9
		l3.7,3.9l5.1,3.9l3.7,4.9l3.7,5.6l3.7,5.6l1.9,3.2l0.6,1.1l6.4,10.9L1107.5,983.7z"/>
	<path class="st0" d="M1179.6,934.1l-5.6,2.4l-5.1,1.7l-5.1-8.8l-3.7,8.1l1.3,10.5l-13.9-1.5l10.7,7.1l-2.8,1.7l-4.1,2.4l-8.2-2.4
		l-3.7,3.9l2.6,5.6l-2.4,0.7l-8.2,4.9l-6.9,3.9l-3.7,2.4l-5.6,3.2l-6.4-10.9l-0.6-1.1l-1.9-3.2l-3.7-5.6l-3.7-5.6l-3.7-4.9l-5.1-3.9
		l-3.7-3.9l-5.1-4.9l-0.6-0.7l-3.7-3.2l-4.5-3.2l6.9-6.4l6.4-7.1l1.3-3.9l4.5-9.6l1.3-1.7l-5.6-12.7l1.3-1.7h4.5l5.6,2.4l7.7-3.2
		l1.9-3.2l1.3-1.7l8.8-8.1l3.2-0.7l12.7,7.7l0.6,0.4l17.8,10.3l0.7,0.6l9.9,7.5l4.5,13.7l4.5,3.2l3.2,3.9l7.7,14.4L1179.6,934.1z"/>
	<path class="st0" d="M1078.6,1123l3.7,5.6l-11.4,5.6l-4.5,3.2l-6.4,3.9l-5.6,3.2l-5.6,3.2l-5.1,3.2l-2.6,1.7l-5.6,5.6l-3.7,3.9
		l-6.4,6.4l-1.9,2.4l-1.3,0.7l-1.9,1.7l-3.7,3.9l-4.5,3.9l-29.2-32l-29.2-32l1.9-2.4l8.8-7.1l27.2,28.8l1.3-1.7l16.5-9.6l3.2-1.5
		l5.1-3.2l4.5-2.4l1.9-0.7l5.6-3.2l5.1-3.2l5.6-3.2l10.7-6.4l10.7-6.4l3.2,4.9l3.7,6.4l3.2,5.6l3.2,4.9L1078.6,1123z"/>
	<path class="st0" d="M913.8,892.5l6.9,6.4l-16.5,0.7h-6.9h-7.7h-6.9h-6.4h-14.6l3.7-7.1l1.9-2.4l3.2-6.4h5.1l-3.7-15.2l-3.2-9.6
		l-1.3-5.6l-3.2-3.2l-5.6-6.4l-5.1-5.6l1.9-2.4l1.9-2.4l2.4-3.2l2.2-3.2l2.2-3.4l3.2-3.9l3.7,2.4l7.7,9.6l3.7,3.9l3.7,3.9l5.1,4.9
		l6.4,8.8l-3.7,3.2l-6.4,5.6l3.7,3.9l3.2,3.9l1.9,2.4l1.9,1.7l5.1,5.6l2.6,3.9L913.8,892.5z"/>
	<path class="st0" d="M911.6,907.7l-4.5,3.9l-2.6,0.7l-1.3,3.2l-5.1,3.2l-1.3,1.7l-3.2,2.4l-3.2,4.9l-5.1,3.2l-1.3,1.7l-2.6,2.4
		l-3.7,2.4l-6.9,7.1l-6.9-3.9l-4.5-3.2l-3.2-1.7l-5.6-3.9l13.3-24l-1.9-1.7v-6.4h14.6h6.4h6.9h7.7h6.9l16.5-0.7l-5.1,4.9
		L911.6,907.7z"/>
	<path class="st0" d="M559.5,273l0.6,8.1l-10.7,18.4l-6.4,10.5l-6.4,8.8l-5.6,8.8l-1.9,2.4l-1.3,2.4l-2.4,3.2l-3.7,1.7l-12,5.6
		l-3,1.7l-5.8,3.2l0.6-2.4v-2.4l0.9-5.2l0.9-5.1v-7.1V323l0.6-7.1l1.3-5.6v-6.4l0.6-5.6l0.6-5.6V287l0.6-4.9l0.6-6.4l1.9-7.1
		l1.3-8.1l-0.6-3.9l12-2.4l6.9-1.7h7.5l6.9-1.7l6.4-0.7l3.7-0.7l2.4,17.6l-0.6,2.4l3.7-1.7L559.5,273z"/>
	<path class="st0" d="M1027.3,1039.1l-15.2,9.6l-15.2,8.8l-5.1,3.2l-2.6-4.9l-44.4,27.2l-1.3,1.7l-8.8,8.1l-1.9,1.7l-2.6-3l-8.6-9.7
		l0.6-18.4v-3.9l12.7-9.6l10.7-8.8l11.4-9.6l10.7-9.6l7.7-13.7l6.2,3.4l4.7,2.8l3.6,1.9l1.3,0.7l3,2.1l1.5,1.1l3.7,2.4l5.1,2.4
		l5.6,3.9l7.7,4.9l6.4,3.2L1027.3,1039.1z"/>
	<path class="st0" d="M1232.7,1142.1l-3.2,5.6l-1.3,2.6l-0.7,1.5l-1.9,0.7l1.3,1.7l-4.5,2.4l-4.1-0.6l-1.5-0.2l-4.5-3.2l-5.1-3.2
		l-6.4-4.9l-3.7-3.9l-1.9-1.7l-2.6-3.9l-5.6-5.6l-8.8-7.1l-6.9-6.4l-3.7-7.1l-1.9-2.4l-1.3-3.2l6.9-2.4l6.9-1.7l2.4-1.1l3.2-1.3
		l12-3.2l5.6-2.4l4.3-1.7l1.5,3.9l5.1,12l6.4,15.9l14.8,19.3L1232.7,1142.1z"/>
	<path class="st0" d="M921.7,401.6L900.9,361l-51.1-19.7l4.3-1.3l-11.2-77l12.4,2.2l15.7,3.2l3.6,5.6l11.6,18.4l6.9,8.1l8.8,7.1
		l10.1,9.6l3.2,2.4l9.6,9.6v6.4l-3.2,3.9l2.4,1.3l0.9,1.3l0.9,0.9l1.5,0.6l1.3,0.7l0.7,1.3l0.6,0.9l0.4,1.1l0.2,0.7l1.3,0.6l0.6,0.2
		l0.6,0.7l0.2,0.6v1.1v0.6l13.5,7.5l1.3,1.7l12,12.7l4.7,3L921.7,401.6z"/>
	<path class="st0" d="M861.9,899.6l0.2,6.4l1.9,1.7l-13.3,24l-5.6-3.2l-5.6-3.2l-3.7-2.4l-1.9-1.7l-3.2-1.7l-3.2-2.4l-2.6-1.7
		l-1.3-0.7l-2.4-1.7l-7.7-4.9l-6.4-3.2l-5.1-3.9l-8.2-4.9l-1.3-0.7l3.2-3.9l4.5-4.9l4.5-4.9l3.7-3.2l3.7-3.9l10.7-0.7l4.9-0.7
		l5.6-7.9l10.1-12.7l7.7-10.5l2.4-3.9l5.1,5.6l5.6,6.4l3.2,3.2l1.3,5.6l3.2,9.6l3.7,15.2h-5.1l-3.2,6.4l-1.9,2.4L861.9,899.6z"/>
	<path class="st0" d="M1064.4,923.8l6.9,4.9L1046,923l-8.8-0.7l-6.9-0.7l-6.9-1.7l-13.9-1.7l-17-3.9h-5.6l-8.2-1.7l-8.2-2.4
		l-6.9-0.7l-6.9-1.7l-13.3-3.2l-4.5-0.7l-5.1-1.7l-12.7-3.2l3.7-3.2l2.4-1.7l1.9-2.4l1.9-1.7l2.6-2.4l3.2-2.4l3.2-3.9l4.5-3.2
		l6.4-5.6l5.1-3.9l4.5-3.9l1.9-1.7l2.6-1.7l4.5-4.9l2.6,3.9l4.5,4.9l3.2,3.9l3.7,3.9l6.9-0.7l5.6-3.2l5.1,3.2l5.6,3.9l6.4,3.9
		l3.7,3.2l5.6,4.9l2.6,3.2l5.1,3.9l4.5,3.9l8.8,11.2l6.4,4.9L1064.4,923.8z"/>
	<path class="st0" d="M794,896.4l-8.8,8.1l-2.6,2.1l-1.9,1.1l-1.3,0.7l-1.9,1.7l-6.9,6.4l-4.5,3.2l-4.3,3.2l-0.7-1.1l-0.7-1.3
		l-4.3-5.6l-3.6-4.1l-3.6-2.2L719,895.3l0.7-2.1l3.6-12l1.3-2.4l0.7-3.2l0.6-1.7l3.2-8.1l2.6-7.1l8.2,4.9l4.5,2.4l1.3,0.7l5.6,3.9
		l4.5,2.4l1.9,1.7l5.6,3.2l5.6,3.2l6.4,3.9l5.6,3.2l5.6,3.9l2.6,1.7l3.2,1.7L794,896.4z"/>
	<path class="st0" d="M409.7,383.3l-13.9-2.2l-1.9-0.4l-1.3-0.4l-3-0.6l-5.1,1.3l-2.8,0.7l-2.1,0.6l-4.1,1.1l-0.7-3.7l-0.2-0.9
		l-0.9-3.4l-1.1-4.7l-0.7-3.4l-0.6-2.4l-0.9-3.9l-1.7-6.4l-1.3-4.9l13.9-7.1l13.3-8.1l5.1-2.4l5.6-3.9L409.7,383.3z"/>
	<path class="st0" d="M796.9,624.5l0.6,3.4l0.6,5.1l-2.4,4.3l-2.8,5.2l-2.8,7.7l-6.6,13.7l-1.7,3.4v5.6l3.7,0.7l6.9,3.2l-3.2,8.8
		l-0.6,3.2l-0.6,1.7L787,694l-9.7-3.6l-13.9-3.9l-1.7-0.6l-13.3-3.6l-6.9-2.2l-6-1.3l-12.4-2.6l-10.7-3.2l-2.4-1.7l-12.7-13.5
		l3.7-2.4l2.4-3.2l8.2-7.1l1.3-2.4l12.7-6.4l5.1-3.2l1.9-1.7l5.1-2.4l-3.7-8.8l9.6-3.9l1.9-1.7l-10.7-14.4l6.4-3.9l7.3-8.1l2.2-2.4
		l3.6-3.7l3.4-3.6l3.7-6.4l6.9-2.4l15,4.3l7.3,2.1l8.8,0.7l1.3-1.7l5.6,3.2l2.6,2.4l-3.7,4.9l-4.7,7.3l-0.9,1.5l-1.7,6l-1.3,11
		l-0.2,7.5l0.2,2.4L796.9,624.5z"/>
	<path class="st0" d="M1123.8,974.1l6.9-3.9l8.2-4.9l2.6-0.7l-2.6-5.6l3.7-3.9l8.2,2.4l4.1-2.4l2.8-1.7l-10.7-7.1l13.9,1.5
		l-1.3-10.5l3.7-8.1l5.1,8.8l5.1-1.7l5.6-2.4l1.9-1.7l-7.7-14.4l-3.2-3.9l-4.5-3.2l-4.5-13.7l7.7,8.8l7.7,10.3l5.1,7.1l14.6,31.1
		l19.7,33.5l3.7,8.1l4.3,14v1.9l-0.4,2.4l-0.7,2.8l-0.9,3.6l-1.7,3.6l-2.4,4.1l-8.1,11l-1.7,2.2l-3.2,6.7l-1.9,4.5l-4.5-2.4
		l-3.2-5.6l-1.9-2.4l-3.2-3.2l-5.4-8.2l-6.6-10.1l-1.3-7.1l-5.1-9.6l-8.8-6.4l-11.4-10.3l-6-1.5l-3.6-0.9l-15.2-2.4l-7.7-6.4
		L1123.8,974.1z"/>
	<path class="st0" d="M587.8,584l-1.7,2.8l-0.6,3.2l-6.9-8.1l-2.6-3.2l-0.7-1.9l-3.7-16.3l-0.4-0.7l-0.6-1.9l-6.7-14.8l-2.2-3.6
		l-0.4-0.6l-1.9-3.2l-8.2-14.4l-1.7-1.3l-2.1-1.9l-1.3-0.7l1.9-0.7l1.9-0.7l4.5-4.9l13.9-7.1l10.1-3.2l7.1-2.1l6.2,5.2l11.6,12.9
		l5.1,3.2l3.7,3.2l-1.9,3.9v3.9l-1.3,3.2l-3.6,11.4l-0.6,2.1l-1.9,2.4l-0.6,2.4l-3.2,8.8l-0.6,1.7L587.8,584z"/>
	<path class="st0" d="M836.8,803.7l-5.1,3.9l-5.1,4.9l-13.9,13.7l-13.9,12l-5.1,4.9l-5.1,4.9l-4.3-4.9l-1.5-1.7l-1.9-2.4l-5.1-4.9
		l-1.9-6.4l-0.6-5.6l2.4-3.2l2.6-3.2l5.6-5.6l3.7-3.2l7.7-6.4l3.7-1.7l1.3-1.7l2.4-1.7l3.2-2.4l1.9-1.7l3.7-3.2l3.2-1.7l4.5-3.2
		l4.5-3.9l5.6-3.2l3.9,4.7l2.1,2.6l3.9,4.7l7.7,8.1l-5.1,3.2L836.8,803.7z"/>
	<path class="st0" d="M731.8,858.8l-2.6,7.1L726,874l-5.6-5.6l-5.1-4.9l-5.1-3.2l-6.9-5.6l-19.7-19.3l-5.6-4.9l-2.4-1.7l-3.9-3.7
		l-2.4-1.9l-6.4-4.9l5.6-7.1l6.4,4.9l2.6,3.2l3.7,2.4l8.2,6.4l6.9,4.9l4.5,3.2l5.1,3.9l10.1-12.7l4.5-5.6l12.7-17.6h5.6h1.9l5.1,2.4
		l5.6,2.4l-3.2,8.1l-2.4,6.4l-1.3,4.9l-1.3,2.4l-3.2,7.1l-1.3,3.9l-3.2,8.1l-2.4,5.6L731.8,858.8z"/>
	<path class="st0" d="M1008.2,980.7l-3.7,2.4l-2.4,2.4l-5.6,4.9l-5.1,3.9l-15.9,13.7l-4.3-2.6l-1.9-1.5l-3.4-2.1l-1.7-1.1l-3.2-1.7
		l-5.1-3.2l-4.5-2.4l13.3-12l-1.9-2.4l18.9-15.2l18.4-15.2l2.6,3.9l3.2,3.2l12.7,16.9l-5.1,3.9L1008.2,980.7z"/>
	<path class="st0" d="M1059.3,1089.1l1.9,3.6l0.9,2.4l-10.7,6.4l-10.7,6.4l-5.6,3.2l-5.1,3.2l-5.6,3.2l-1.9,0.7l-4.5,2.4l-5.1,3.2
		l-3.2,1.5l-16.5,9.6l-1.3,1.7l-27.2-28.8l1.3-1.7l10.7-8.1l4.5-3.9l5.6-3.2l-1.3-3.2l12.7-7.1l9.6-5.6l9.6-6.4l10.7-5.6l11.4-7.1
		l2.6,3.9l1.9,3.2l1.1,1.7l1.5,2.8l0.9,1.3l2.1,3.7l1.1,1.7l2.4,4.1l0.7,1.3l2.1,3.7l1.1,1.9L1059.3,1089.1z"/>
	<path class="st0" d="M720,742.9l-3.7,4.9l-1.3,1.7l-3.7,4.9l-5.6,3.9l-5.6,5.6v1.7l-4.5,4.9l-8.8-7.1l-6.9-5.6l-6.9-3.9l-6.4-5.6
		l-6.4-4.9l-6.9-4.9l-6.9-5.6l-4.5-2.4l1.3-1.7l5.6-4.9l6.4-3.2l1.9-0.7l1.9-0.7l3.7-2.4l3.2,2.4l8.2-1.7l1.9-0.7l6.9-2.4l8.8-0.7
		l1.9-1.7l13.3,11.2l5.6,4.9l6.9,3.2l6.4,1.7L720,742.9z"/>
	<path class="st0" d="M678,245.4l42.9-25.3l37.3,32.4l-0.7,1.9l-1.5,3.9l-3.2,15.2l-0.6,3.9l-1.5,4.5l-0.9,1.9l-1.3,1.3l-2.8,1.3
		l-2.6,0.7l-9.6,3.9l-2.8,0.6l-2.6,0.2l-4.1-0.2l-5.1-0.7l-3.6-0.4l-4.7-1.1l-9.4-2.2l-0.2-0.6l-3.7-4.3l-1.9-2.2l-6.9-10.5
		l-1.9-3.2l-4.5-5.6l-3-3.4l-0.6-8.8L678,245.4z"/>
	<path class="st0" d="M455.2,491.3l-1.9,7.9l-0.6,3.7l-0.7,3.6l-0.4,2.1l-2.1,12l-0.6,3.6l-0.2,0.6l-2.2,16.7l-1.3,7.1l-1.9,3.9
		l-8.8,12.7l-6.9,10.3l-3.2-1.7l-1.9-8.8l-2.4-7.1l-1.3-1.7l-1.1-5.4l-0.7-3.4l-0.6-2.4l-1.1-3.9l-0.6-2.1l-0.9-4.1l-1.3-6.6
		l-0.9-3.4l-0.9-4.7l-1.7-7.7l-1.3-4.3l-1.1-3.7l-0.9-4.1l-0.9-3.9l-0.7-2.6l-1.5-6.2l-1.9-6.4l-1.1-3.9l-0.7-3.2l-1.7-7.7l-0.7-4.1
		l20.6,6.4l1.3,0.4l6.4,2.4l16.5,3.9l5.2,1.5l5.6,1.7l3.2,0.9l3.2,0.7l-0.6,2.4l-0.2,0.6l-0.4,1.1l-1.3,5.1L455.2,491.3z"/>
	<path class="st0" d="M1153.5,1130.2l3.2,5.6l-9.6,3.9l1.9,5.6l-15.9,4.9l-14.6,5.6l-8.8,2.4l-1.9,0.7l-6.4,2.4l-0.9-1.7l-2.2-3.9
		l-1.7-2.4l-1.5-2.2l-3.2-4.9l-1.9-2.4l-1.3-2.4l-2.2-4.5l-1.5-2.8l-3.2-5.6l6.9-4.9l6.4-3.9l6.9-3.9l5.6-3.2l6.9-4.9l6.9-4.9
		l6.4-3.2l5.6-3.2l5.6,9.6l5.1,8.1l5.6,8.8l1.3,3.2L1153.5,1130.2z"/>
	<path class="st0" d="M604.2,697.2l-6.9,5.6l-6.4,3.9l-5.6-5.6l-5.6-7.1l-6.4-6.4l-5.1-6.4l-6.9-3.9l10.1-2.4l2.2-0.4l2.1-0.4
		l6.4-1.7l1.3-0.7l7.7-0.7l5.6-2.4h2.6l3.7-1.7l5.1-0.7l9.6-2.4l11.4-3.9l3.2-0.7l11.4-1.7l6.4-0.7l9.6-2.4l12-1.7l-0.6,3.9l5.6,3.9
		l-5.1,4.9l-8.8-3.2l-8.8,4.9l-1.3,0.7l-18.4,15.9l-5.1-5.6l-5.6,3.9l-6.9,5.6l-5.6,4.9L604.2,697.2z"/>
	<path class="st0" d="M860.2,830.1l-2.6,3.2l-1.9,2.4l-1.9,2.4l-2.6,3.9l-7.7,10.5l-10.1,12.7l-5.6,8.1l-5.1,0.7l-10.7,0.7l-0.6-1.7
		l-5.1-4.9l-4.5-5.6l-1.3-0.7l-3.2-3.9l-4.5-5.6l-4.5-4.9l5.1-4.9l5.1-4.9l13.9-12l13.9-13.7l5.1-4.9l5.1-3.9l5.6-3.9l5.1-3.2
		l4.5,5.1l4.9,5.4l2.2,2.8l1.5,1.9l6.9,8.1l-3.2,3.9l-2.2,3.4L860.2,830.1z"/>
	<path class="st0" d="M686.1,562.9l-25.8-1.7l-5.6-3.2l-1.3,1.7l-4.5,4.9l-1.9,2.4l-3.7,3.9l-5.1,3.9l-1.9,1.7l-6.4,10.3l-3.7,1.7
		l-3.7,1.7l-13.9,3.9l-4.5-0.7h-3.2l-2.6,0.7l-1.9,6.4l-10.7-10.3l0.6-3.2l1.9-2.4l10.7-20.8l0.6-1.7l3.2-8.8l0.6-2.4l1.9-2.4
		l0.6-2.1l3.2-11.6l1.3-3.2v-3.9l1.9-3.9l5.1,3.2l4.5,1.7l6.9,2.4l11.4,3.2l6.9,2.4l11.4,3.2l5.6,0.7l8.8,1.7l8.2,2.4l3.7,1.7
		l8.1,2.4l-5.6,2.2l5.1,12.7L686.1,562.9z"/>
	<path class="st0" d="M493.7,666.6l-6.9-3.9l-6.9-3.9l-8.2-3.9l-7.5-3.9l4.5-8.1l5.6-11.2l3.2-8.8l6.4-12.7l7.7,8.8l0.6-12l1.9-7.1
		l1.9-7.1l0.6-1.7l4.5-3.2l3.7,0.7l5.1,0.7l4.5,5.6l1.9,1.7l5.1,3.2l7.5,1.7l7.7,0.7l-1.3,3.9l1.3,8.1l1.9,4.9l-3.2,5.6l-0.6,6.4
		l-13.9,6.4l-15.7-17.6l-1.3-27.9l-5.1,2.4l-4.5,16.9l6.4,20.8l5.6,6.4l1.9,2.4l-5.1,35.2l14.6,8.8l4.5-4.9l3.2-3.2l15.2-3.2
		l6.4-18.4l8.1-12.4l0.7,1.1l-5.6,10.5l-2.6,3.9v11.2l-3.7,4.9l-2.4,1.7l-3.7-1.7l-8.8,3.2l-8.2,8.1l-1.9,1.7h-3.2l-8.8-4.9
		l-2.6-2.4l-4.5-7.1l-3.2-5.6L493.7,666.6z"/>
	<path class="st0" d="M1222.6,1156.4l-2.2,0.4l-11,2.1l-5.6,2.4l-5.6,3.2l-8.2,3.2l-12,4.9l-2.6-6.4l-3.2-3.9l-2.6-5.6l-3.2-4.9
		l-7.3-12.2l-2.2-3.7l-3.2-5.6l-1.9-3.9l-1.3-3.2l-5.6-8.8l-5.1-8.1l-5.6-9.6l8.2-5.6l5.6-3.2l2.4-1.7h1.3l3.2-1.7l4.5,8.8l1.9,3.9
		l3.2,5.6l1.3,3.2l1.9,2.4l3.7,7.1l6.9,6.4l8.8,7.1l5.6,5.6l2.6,3.9l1.9,1.7l3.7,3.9l6.4,4.9l5.1,3.2l4.5,3.2l1.5,0.2L1222.6,1156.4
		z"/>
	<path class="st0" d="M920.9,772.4l6.9,8.8l-3.2,2.4l-5.1,3.2l-7.7-3.9l-2.4-1.5l-3.2-1.9l-3.6-3.4l-1.3-0.9l-6.2-6.7l-3.6-3.4
		l-8.4-10.3l-9.9-12.2l-3.7-6.4l-4.5-3.9l-4.5-3.9l-2.8-2.2l2.8-3.4l4.5-3.9l3.7-3.9l3.7-3.2l6.4,6.4l6.9,7.1l4.5,5.6l3.2,5.6
		l4.5,3.9l1.3,2.4l2.4,3.2l3.7,5.6l1.9,2.4l1.3,1.7l5.6,7.1L920.9,772.4z"/>
	<path class="st0" d="M1046.2,719.3l3.7,8.1l53,111.6l-11.2,12.2l-10.5-7.3l-3.9-2.8l-1.7-1.1l-8.2-4.9l-5.6-8.8l-5.6-4.9l-7.7-7.1
		l-6.4-5.6l-8.8-9.6l3.2-5.6l2.6-9.6l-4.5-11.2l-1.9-3.2l-1.9-1.7l-6.9-8.8l-0.6-1.7l-1.3-2.4l1.3-12l-0.6-8.1l-1.3-3.2l-6.4-11.2
		l-18.4-20.8l-4.5-4.9l-3.7-3.9h2.6l11.4,5.6l5.1,8.1l1.3,3.2l6.9,1.1l7.5,1.3l2.8,2.4l13.1,11.2L1046.2,719.3z"/>
	<path class="st0" d="M940,638.2l-5.6-3.2l-5.1,2.4l2.6,4.9l8.2,13.7l-8.8,1.7l-4.1,5.1l-0.4,0.6l-0.6,0.6l-1.3,1.7l-1.1,1.5
		l-1.1,1.3l-9.6,11.8l-6.4,3.9l-2.4-3.2l-4.5,4.9l-12.7-14.4l-4.5,3.9l-18.9-12.7l-6.4-3.9l-5.6-3.2l1.3-2.4l-15.7-11.2l3.7-4.9
		l3.7-4.9l3.2-3.2l3.2-1.7l5.6-4.9l13.3-10.5l15.7-15.2l15.2,1.7h3.2l2.4-1.7l1.9-1.7l16.5,16.9l3.2,4.9l22.1,26.4L940,638.2z"/>
	<path class="st0" d="M934.2,982.2l2.6,1.7l-5.8,5.1l-7.7,6.6l-2.4,2.1l-3.2,2.4l-6.4,4.9l-5.6,5.6l-13.9,15.2l-1.9,2.4l-30.3-33.5
		l1.3-1.7l-9.7-10.5l33.3-29.8l20.8,12.4l1.9,1.7l5.1,3.2l5.6,3.2l3.2,2.1l1.9,1.1l5.6,3.2l1.9,0.7L934.2,982.2z"/>
	<path class="st0" d="M465.8,439.3l-0.7,5.4l-1.1,7.1l-1.3,9l-0.7,2.6l-0.9,3.4l-2.2,8.8l-1.1,4.3l-3.2-0.7l-3.2-0.9l-5.6-1.7
		l-5.2-1.5l-16.5-3.9l-6.4-2.4l-1.3-0.4l-20.6-6.4l-0.6-2.1l-0.4-1.5l3.2,0.7l-1.3-3.9l-1.9-7.1v-2.4l1.3-5.6l1.3-6.4l2.6-7.1
		l2.6-7.1l1.9-6.4l1.3-4.9l1.9-6.4l1.3-4.9l1.9-5.6l1.9-3.9l4.5-0.7l10.7-3.2l13.9-2.4l11.4-2.4l3.2-0.7h1.9l5.6,7.1l3.7,5.6
		l5.1,7.1l-1.3,4.9l-0.6,6.4l-0.7,4.7L469,420l-0.9,5.6l-1.3,7.3L465.8,439.3z"/>
	<path class="st0" d="M720.5,678.8l-5.6,3.9l-5.6,5.6L708,694l-1.9,3.2l-3.2,1.7l-17,8.1l-5.6,2.4l-1.9,0.7l-6.4,3.2h-1.9l-5.6,3.2
		l-8.8-9.6l4.5-4.9l3.2-3.9l3.7-6.4l3.2-4.9l1.3-1.7l3.2-3.9l1.3-1.7l5.6-5.6l-6.4-6.4l-3.7-2.4l5.1-4.9l-5.6-3.9l0.6-3.9l5.1-0.7
		l4.5-3.9l3.2-3.2l13.3,13.7l12.7,13.5l2.4,1.7l10.7,3.2L720.5,678.8z"/>
	<path class="st0" d="M968.9,856.5l-4.5,4.9l-2.6,1.7l-1.9,1.7l-4.5,3.9l-5.1,3.9l-6.4,5.6l-4.5,3.2l-3.2,3.9l-3.2,2.4l-2.6,2.4
		l-1.9,1.7l-1.9,2.4l-2.4,1.7l-3.7,3.2l-6.9-6.4l-7.7-8.8l-2.6-3.9l-5.1-5.6l-1.9-1.7l-1.9-2.4l-3.2-3.9l-3.7-3.9l6.4-5.6l3.7-3.2
		l-6.4-8.8l-5.1-4.9l-3.7-3.9l-3.7-3.9l-7.7-9.6l-3.7-2.4l5.6-3.2l5.6-3.9l4.5-3.2l6.4-3.9l4.5-2.4l4.5-3.2l5.6-3.2l7.7-4.9l3.2-1.7
		l2.6-1.7l1.9-1.7l16.5,8.8l4.7,1.7l4.9,1.5l14.6,3.9l4.5,1.3l6.9,1.9l-3.2,2.4l1.3,3.9l1.3,4.9l5.1,16.9l0.6,12.7L968.9,856.5z"/>
	<path class="st0" d="M329.5,541.9l0.6-4.9l3.7-7.1l6.9-11.2l3.2-5.6l4.5-7.1l5.6-6.4l2.6-3.9l5.1,1.7l7.7,1.7l7.7,1.7l5.1,2.4
		l7.7,1.7l6.4,2.4l6.9,1.7h4.7l1.3,4.3l1.7,7.7l0.9,4.7l0.9,3.4l1.3,6.6l0.9,4.1l0.6,2.1l1.1,3.9l0.6,2.4l0.7,3.4l1.1,5.4l1.3,1.7
		l2.4,7.1l1.9,8.8l-4.5-1.7l-8.2-2.4l-8.2-3.9l-5.6-3.9l-2.4-0.7l-7.7-2.4l-6.4-0.7l-6.4-2.4l-6.9-1.7l-6.9-2.4l-6.4-1.7l-6.4-2.4
		l-6.4-1.7l-5.6-1.7L329.5,541.9z"/>
	<path class="st0" d="M856.5,935.6l3.2,1.7l4.5,3.2l-18.9,15.2l-5.1,3.9l-5.1,4.9l-1.5,1.7l-4.5-3.2l-3.7-4.9l-3.7-3.9l-3.7-3.9
		l-5.6-5.6l-5.6-6.4l-2.6-2.4l-4.5-4.9l-4.5-4.9l-5.1-5.6l-3.7-4.9l16.1-14.4l5.1,3.9l6.4,3.2l7.7,4.9l2.4,1.7l1.3,0.7l2.4,1.7
		l3.2,2.4l3.2,1.7l1.9,1.7l3.7,2.4l5.6,3.2l5.6,3.2L856.5,935.6z"/>
	<path class="st0" d="M573.2,687.6l-5.6,5.6l-5.6,5.6l-5.6,4.9l-6.4,5.6l-5.1,4.9l-6.4,5.6l-5.6,5.6l-5.1-6.4l-10.7-11.2l-1.7-2.2
		l-0.7-0.9l0.6-12l-3.7-2.4h4.5h4.5l-3.2-2.4l0.6-0.7l1.9-1.7l8.2-8.1l8.8-3.2l3.7,1.7l2.4-1.7l3.7-4.9l3.2,1.7l11.4,6.4l6.9,3.9
		L573.2,687.6z"/>
	<path class="st0" d="M849.8,341.3l51.1,19.7L794,421.9l-8.8-5.6l8.1-25.3l-4.5-15.9l0.4-9.9l0.7-10.9l1.9-12l6.2-26.6l34.6-63.7
		l6.9,9.9l3.6,0.7l11,77.2L849.8,341.3z"/>
	<path class="st0" d="M1059.3,836.5l-6.9,2.4l-10.1,1.7l-10.1,1.7l-7.7,1.3l-5.6,0.9l-8.8,12l-4.5,4.9l-4.5,4.9l-5.6,3.2l-5.6,3.2
		l-6.9,0.7l-3.7-3.9l-3.2-3.9l-4.5-4.9l-2.6-3.9l7.7-9.6l-0.6-12.7l-5.1-16.9l-1.3-4.9l-1.3-3.9l3.2-2.4l13.7,1.3l15,1.1l6.7-0.2
		l9,0.2h5.6l6.7,1.7l5.4,2.4l11.4,5.6l6.4,6.2l8.8,5.8l7.7,4.9l8.2,4.9l-8.2-1.7L1059.3,836.5z"/>
	<path class="st0" d="M1117,871.7l-8.8,8.1l-1.3,1.7l-1.9,3.2l-7.7,3.2l-5.6-2.4h-4.5l-1.3,1.7l5.6,12.7l-1.3,1.7l-4.5,9.6l-1.3,3.9
		l-6.4,7.1l-6.9,6.4l-6.9-4.9l-15.2-8.1l-6.4-4.9l-8.8-11.2l-4.5-3.9l-5.1-3.9l-2.6-3.2l-5.6-4.9l-3.7-3.2l-6.4-3.9l-5.6-3.9
		l-5.1-3.2l5.6-3.2l4.5-4.9l4.5-4.9l8.8-12l5.6-0.9l7.7-1.3l9.6-1.5l10.7-1.7l6.9-2.4l8.2,1.7l8.2,1.7l1.7,1.1l3.9,2.8l13.5,9.4
		l6,4.1l6,4.1l1.1,0.7l2.6,1.7l9.6,7.1L1117,871.7z"/>
	<path class="st0" d="M850.1,474.9l-17,8.6l-8.2-14.4l-11-16.1l14.8-10.9L850.1,474.9z"/>
	<path class="st0" d="M527.1,465.7l-1.3,3.2l-5.6,12l-8.8,15.9l-3.2-1.1l-6.4-2.1l-6.2-1.9L484,488l-4.1-1.5l-0.6-0.2l-4.5-1.3
		l-9.6-2.4l-3.6-1.1l-1.5-0.7l-1.7-0.6l-1.1-0.4l1.1-4.3l2.2-8.8l0.9-3.4l0.7-2.6l1.3-9l1.1-7.1l0.7-5.4h1.3l1.9,0.7l14.6,2.4
		l8.2,2.4l6.9,0.7l8.2,2.4h5.6l5.6,1.7l7.5,2.4l6.4,3.2L527.1,465.7z"/>
	<path class="st0" d="M660.6,822.6l1.9-3l0.6-0.7l6.4,4.9l2.4,1.9l3.9,3.7l2.4,1.7l5.6,4.9l19.7,19.3l6.7,5.6l5.1,3.2l5.1,4.9
		l5.6,5.6l-0.6,1.7l-0.6,3.2l-1.3,2.4l-3.7,12l-0.7,2.1l-1.1-0.6l-21.3-9.4l-6-1.9l-2.4-0.7l-2.1-0.7l-2.4-1.7l-4.3-3l-5.8-5.1
		l-5.4-4.5l-2.8-2.6l-1.5-1.9l-2.1-2.8l-1.3-3.4l-5.2-17.2l-0.6-9.2l2.6-3.9L660.6,822.6z M725.2,878.8l-1.3,2.4l-3.7,12l-0.7,2.2
		l0.6-2.2l3.7-12L725.2,878.8l0.4-3.2l0.6-1.7l-5.6-5.6l-5.1-4.9l-5.1-3.2l-6.9-5.4l7.1,5.4l5.1,3.2l5.1,4.9l5.6,5.6l-0.6,1.7
		L725.2,878.8z"/>
	<path class="st0" d="M1112.1,1179l1.9,2.4l-5.6,3.2l-33,19.3l9.6,20v5.6l-8.8-8.8l-3.7-4.9l-5.1-4.9l-3.7-3.2l-3.2-3.9l-5.6-3.9
		l-5.6-3.2l-3.4-2.8l-4.1-3.6l-1.1-1.3l-1.5-1.9l-7.7-8.8l-2.4-3.6l-5.1-3.7l1.9-2.4l6.4-6.4l3.7-3.9l5.6-5.6l2.6-1.7l5.1-3.2
		l5.6-3.2l5.6-3.2l6.4-3.9l4.5-3.2l11.4-5.6l3.2,5.6l1.5,2.8l2.2,4.5l1.3,2.4l1.9,2.4l3.2,4.9l1.5,2.2l1.7,2.4l2.2,3.9l0.9,1.7
		l1.7,3l2.8,5.1l2.6,5.6L1112.1,1179z"/>
	<path class="st0" d="M479.3,563.6l-2.6,5.6l-4.5,9.6l-3.2,4.9l-6.4-0.7l-6.9-2.4l-5.2-0.7l-6.7-0.9l-12-2.4l-4.5-0.7l6.9-10.3
		l8.8-12.7l1.9-3.9l1.3-7.1l1.3,0.7l1.3,0.7l12.5,3.9l24,4.9l-3.2,5.6L479.3,563.6z"/>
	<path class="st0" d="M954.5,1261.4l-0.7,0.4l-6.6,5.8l-2.2-3l-1.1-1.5l-3.2,1.5l-21,9.6l-2.6-5.6l-4.7,2.1l2.6,8.1l3.9,12.2
		l1.9,2.2l10.3,11.8l1.1,1.1l6.4,5.6l24.7,26.4l-4.5,3.9l-20.2,7.1l-3.9-8.6l-7.3,2.6l5.4,11.6l-19.5,3.9l-11.4,14.4l-69.1,21.5
		l-8.8,13.7l4.5,59.2l-18.4,20.8l-182.4-165.6l-22.1-4.9l-36.1-33.5l-0.9-1.3l-0.9-2.1l1.3-4.7l3.7-4.9l1.1-1.1l0.7-0.6l0.7-0.6
		l0.7-0.4l0.7-0.4l0.7-0.4l0.7-0.4h0.9l23.4,5.6l58.8,52.8l5.1,3.2l47.2-61.2l1.5-2.1l2.1-2.6l11,2.4l-2.1-30.5l3-5.1l2.4-3.2
		l0.7-2.4l0.6-1.5l2.6-102.8v-1.1l-2.1-0.4l-6.7-1.1l-0.7-0.2l1.9-14.6h6.4l-0.6,10.5l0.6-0.2l21.5-3.9l46.8,49.6l6.9,15.9
		l21.3,55.8l4.3,2.8l0.9-2.4l6.7,3.4L819,1174l1.3-7.9l0.6-5.4l-2.4-4.9l-7.3-6.6l-29-61.1l1.9-0.4l3.7,2.2l8.4,6.9l10.5,7.7
		l7.3,6.7l6.6,6.7l3.7,10.3l-0.4,7.5l4.7,3.7l1.1,0.9l1.3,2.1l3.7,5.6l7.1-5.8l-35.4-56.6l0.7-1.3l1.3-2.1l1.3-3.4l2.1-3l14.6-11.2
		l19.9-7.1l-12.9,2.1l-8.2,3.4l-4.7,3.9l-7.9,3.9l-0.7-4.3l-6.2-0.7l-6-38.4l-4.1-10.1L788,1005l10.7-12.7l3.9-0.6l9.6,13.7
		l-1.9,1.7l-5.1,15.2l8.8-11.2l0.6-0.7l3.2,3.9l9.6,12.7l5.8,8.1l8.6,12.4l6.2,9.7l2.4,3.9l34.6,49.8l24,33.5l6.2,9.7l3,4.1l20,28.7
		l-13.1,20l1.3,28.1l16.3,8.8l16.5,8.8L954.5,1261.4z"/>
	<path class="st0" d="M781.2,995.3l-12.4,5.2l-15.7,9.6l-8.4-32.4l-4.3-16.5l4.1-4.3l10.3-11.2l4.1-4.3l5.2-5.2l1.3-1.5l2.1-1.5
		l3.7,8.1l9.2,15.2l4.1,6.9l12.2,21.5l0.7,0.7l2.4,3.6l-4.5-1.5l-13.3,7.1L781.2,995.3z"/>
	<path class="st0" d="M929.7,594l51.5-92.7l2.2,11.2l28.5,9.6l28.5,26.4l12,15.2l2.6,20.8l1.3,10.3l-6.9,20.8l-5.6,8.1l-11.4,24
		l-1.3,1.7l-2.6-11.2l-5.1-13.7l-6.9-12L998.6,602l-11.4,0.7h-25.3l-18.4-1.7l-5.1-3.2L929.7,594z"/>
	<path class="st0" d="M614.5,150.7l71.2,17.4l-3.6,3.4l-13.3,5.6l-3.7,0.7l-2.6,1.3l-4.1,2.1l-22.3,11l-4.7,1.5l-2.4,0.7l-6.9-3.2
		L617,193v-3.2l-1.3-13.7l-0.2-3.9l-0.2-4.1l-0.4-8.2L614.5,150.7z"/>
	<path class="st0" d="M787,130.6l-4.5,3.9L762.3,117l-10.1,2.4l-8.8-9.6l-17,16.7l-3.7,3.7l-12.2-8.8l-3.6,4.5l-5.4-2.8l-10.9,1.9
		l-10.3,10.1l-6.6,10.3l-36.3-17.8l-12.7-0.2l-12-4.1v-0.6v-2.6l-0.6-17.4l-0.6-5.6l-0.4-4.1l-1.5-18.4l-0.6-9.6l-1.9-20.8l-0.6-9.6
		v-3.9l-0.6-8.1l-0.6-7.1l-0.6-12V0.5l3.2,3.2l8.8,8.8L630.3,23l3.7-1.7l9.6-6.4l7.5-3.2l12,3.9l6.9,2.4l8.2,2.4l21.5,7.1l32.8,16.9
		l12,7.1l15.7,24l25.3,28.8l6.9,23.2L787,130.6z"/>
	<path class="st0" d="M559.3,401.8l1.3-3.2l4.5-8.1l3.2-5.6l1.3-3.2l1.3-3.2h9.6l9.6-3.2l9.6-2.4l3.9-2.1l13.7-6.7l10.1-3.2
		l18.9-9.6h5.1h4.5l10.7,8.6l5.1,4.1l7.5,8.1l8.2,8.8l20.2,14.4l7.7-3.9l3.6,1.5l-4.7,15.4l3.9,5.4h-0.6l-26.6,10.5l-12.9,3
		l-7.9,1.9l-3.2,0.7l-5.6,2.4l-12.7,1.7l-25.8,4.9l-1.9-1.7l-2.6-3.2l-11.4-12.7l-7.5-5.6l-5.6-3.9l-3.2,3.2l-3.6,3.6l-7.9,7.7
		l-5.6-4.9l2.4-5.6l-3.7-8.1L559.3,401.8z"/>
	<path class="st0" d="M660.4,822.6l-3,4.1l-2.6,3.9l0.2,9.4l-6.6,1.9l-6.9,0.7l-11.4,1.3l-2.4,0.4l-10.1,1.7v-12l4.5-5.6l-5.1-8.8
		l4.5-1.7l-0.6-8.1l-5.6,2.4l-18.9-22.5l-0.6-0.7l-1.9-3.2h-2.6l-3.7,1.7l-32.2-13.7l-11.8,5.4l-3.4-7.1l-2.4-5.6l5.6-6.4l1.7-1.7
		l-1.9-11.2l8.2,3.9l7.7,2.4l8.8,4.9l5.6,4.9l3.7,1.7l10.7,4.9l10.1,3.2l3.2-2.4l1.9-3.2l1.3-3.2l5.6,3.2l6.4,3.9l6.9,5.6l6.9,4.9
		l6.4,5.6l6.4,4.9l6.9,5.6l5.6,4.9l6.9,3.9l6.4,4.9l-5.6,7.1l-0.7,0.7L660.4,822.6z"/>
	<path class="st0" d="M309.8,612.1l2.6-11.2l1.9-5.6l1.9-7.1l0.2-0.6l3-7.3l0.6-3.9l1.9-1.7l0.7-8.1l6.9,2.4l6.4,1.7l5.1,0.7
		l12.7,5.6l7.5,2.4l6.9,1.7l5.6,2.4l6.9,2.4l6.4,0.7v0.7l-0.6,3.9l4.9-0.9l1.9,0.7l1.7,0.7l1.1,0.6l1.3,0.6l1.3,0.7l8.2,3.9l2.4,0.7
		l2.2,0.9l-2.2,5.4l-7.7,15.2l-1.9,3.9l-3.2,5.6l-2.6,6.4l-3.2-1.7l-3.7-1.7l-5.6-3.2l-1.3,1.3l-3.6-0.2l-1.5-0.2l-6.4-1.7l-6.9-2.4
		l-5.6-1.7l-6.9-1.7l-7.7-2.4l-6.2-1.5l-7.7-1.7l-4.5-2.4l-3.9-0.9L309.8,612.1z"/>
	<path class="st0" d="M716,827.7l-10.1,12.7l-5.1-3.9l-4.5-3.2l-6.9-4.9l-8.2-6.4l-3.7-2.4l-2.6-3.2l-6.4-4.9l5.1-5.6l5.6-6.4
		l6.9,0.7l5.1,0.7l8.2,0.7h2.6h3.2l6.9,0.7h6.4l6.9,0.7l7.7,0.7l-12.7,17.6L716,827.7z"/>
	<path class="st0" d="M555.7,539.7l-18.9,13.7L519,567.8l-4.5,5.6l-8.8,3.9l-3.7-3.2l-8.8-15.9l-0.6-2.4l-6.9-3.9l3.2-6.4l3.7-8.1
		l5.6-10.5l6.9-14.4v-1.7l2.6-2.4l2.6-7.1l1.3-3.9l6.9,3.2l6.9-4.9l2.4-2.4l5.1-3.2l4.5,3.9l1.3,2.4l3.2,3.2l3.7,4.9l0.6,8.1
		l0.6,2.4l-0.6,3.2l1.3,0.7l2.1,1.9l1.7,1.3l8.2,14.4L555.7,539.7z"/>
	<path class="st0" d="M847.5,628.2l-3.2,3.2l-3.7,4.9l-3.7,4.9l-3.7,4.9l-3.7,5.6l-4.5-3.9l-7.7,4.9l-3.7-0.7l-5.1-0.7l-6.9-0.7
		l-4.3-0.6l-3.2-3l1.5-4.9l2.8-5.2l0.9-3.4l-0.7-4.3l-1.5-3.9l-1.1-2.8l-0.2-2.4l0.2-7.5l1.3-11l1.7-6l0.9-1.5l4.7-7.3l3.7-4.9
		l-2.6-2.4l-5.6-3.2l5.6-6.4l9.6-26.4l15.2-14.4l12-15.9l1.3-2.4l0.6-1.7l1.3-1.7l1.3-2.4l4.5,7.1l2.4,3.2l3.2,3.9l10.3,16.1
		l27.7,43.8l5.2,6.9l3.7,5.1l4.5,3.9l-1.9,1.7l-2.4,1.7h-3.2l-15.2-1.7L870,611.6l-13.3,10.5l-5.6,4.9L847.5,628.2z"/>
	<path class="st0" d="M448,705l-3.2,5.6l-2.6,4.9l-3.2,6.4l-1.9,3.2l-0.6,1.7l-5.1,10.5l-2.6,2.4l-3.7-8.1l-3.2,3.2l-3.7-2.4
		l-1.9-2.4l-6.4-3.2l-7.7-5.2l-14-8.2l-3.4,0.2l-5.1-1.9l0.9-2.2l-6-2.8l-5.6,5.1l2.2-4.7l5.6-11.2l-7.5-3.9l-6.4-3.9l-3.7-0.7
		l1.3-4.9l1.9-7.1l0.2-0.7l1.1-4.1l0.6-5.6l1.3-2.4l0.6-1.7l8.2,3.9l6.9,3.9l1.9-5.4l0.9-1.1l0.9-0.6l1.3-0.9l1.1-0.6l-0.2-1.1
		l-0.2-3.6l0.6-4.1l0.9-4.3l4.7-10.1l2.6-6.4l3.2-5.6l1.9-3.9l3.2,1.7l6.4,2.4l8.8,3.9L417,635l-2.6,4.9l-3.2,5.6l-2.6,5.6l6.9,3.2
		l7.5,3.9l7.7,3.9L428,667l-2.6,6.4l-3.2,5.6l-2.6,5.6l-1.3,2.4l8.2,3.2l7.5,3.9l3.2,1.7l3.6,1.9l8.4,3.7l-1.3,2.4L448,705z"/>
	<path class="st0" d="M612.7,123.3l12,4.1l12.7,0.2l36.3,17.8l6.6-10.3l10.3-10.1l10.9-1.9l5.4,2.8l3.6-4.5l12.2,8.8l-0.9,0.9
		l-19.9,19.5l-0.6,0.7l-6.4,7.1l-2.6,3l-1.7,1.9l-4.7,4.5l-71.2-17.4l0.6-6.4l-1.9-6.4l0.6-3.2l-1.3-6.4L612.7,123.3z"/>
	<path class="st0" d="M796.9,753.3l-1.3,2.4L793,759l-0.6,1.7l-3.2,4.9l-2.6,5.6l-3.2,4.9l-2.6,3.2l-1.3,2.4l-2.6,4.9l-1.9,3.2
		l-3.2,4.9l-5.6,9.6l-3.2,4.9l-3.2,4.9l-2.6-0.7l-6.4-3.2l2.4-8.8l1.9-3.9l0.6-2.4l0.6-4.9l1.9-3.9v-1.7l1.9-4.9l0.6-2.4l1.3-3.9
		l0.6-1.7l1.3-5.6l1.9-3.9l1.3-5.6l1.9-4.9l1.9-5.6l1.3-4.9l1.3-4.9l0.6-1.7l12,3.9l14.6,8.1l-3.7,5.6L796.9,753.3z"/>
	<path class="st0" d="M803.9,766.1l-4.5,4.9l-4.5-2.4l-2.6,4.9l1.9,0.7l-0.6,3.9l2.6,3.2l5.6,5.6l4.5,6.4l-3.2,2.4l-2.4,1.7
		l-1.3,1.7l-3.7,1.7l-7.7,6.4l-3.7,3.2l-5.6,5.6l-2.6,3.2l-2.4,3.2l-4.5-3.9l-2.6-1.7l-2.4-0.7l-3.7-2.4l3.2-4.9l3.2-4.9l5.6-9.6
		l3.2-4.9l1.9-3.2l2.6-4.9l1.3-2.4l2.6-3.2l3.2-4.9l2.6-5.6l3.2-4.9l0.6-1.7l2.6-3.2l1.3-2.4l0.6-1.7l3.7-5.6l18.9,12l-10.7,4.9
		L803.9,766.1z"/>
	<path class="st0" d="M537.2,742.9l2.4,2.4l3.2,2.4l1.7,11.2l-23.4-8.8l-8.2-3.9l-8.8-3.9l-3-2.2l-3.2-2.4l-1.3-1.9l-3.6-4.5
		l-6.9-8.8l-7.7-4.9l1.3-1.7l2.6-6.4l3.2-5.6l2.6-6.4l2.6-4.9l14.6,7.3l9.6,4.7l0.6,1.1l1.7,2.2l10.7,11.2l5.1,6.4l-6.4,5.6
		L537.2,742.9z"/>
	<path class="st0" d="M620.5,437l-5.1,6.4L611,449l-1.9,2.4l-1.5,1.3l-3,2.6l-2.4,1.7l-10.9,7.1l-4.5,9.6l-1.9,3.9l-7.7,9.6l3.7,2.4
		l-2.6,3.9l6.4,5.1l-7.1,2.1l-10.1,3.2l-13.9,7.1l-4.5,4.9l-1.9,0.7l-1.9,0.7l0.6-3.2l-0.6-2.4l-0.6-8.1l-3.7-4.9l-3.2-3.2l-1.3-2.4
		l-4.1-3.7l-4.9,3.2l-2.4,2.4l-6.9,4.9l-6.9-3.2l8.8-15.9l5.4-12.2l1.3-3.2l5.1-10.5l3.7-7.1l5.6-11.2l1.9-3.2l3.7-8.1l8.8-16.9
		v-1.7l3.2-5.6l12.5,5.6l3.7,8.1l-2.4,5.6l5.6,4.9l7.9-7.7l3.6-3.6l3.2-3.2l5.6,3.9l7.5,5.6l11.4,12.7L620.5,437z"/>
	<path class="st0" d="M847.1,504.8l46.4,10.9l1.1-28.7l-6.6-31.3l88.8-46.4l14.4,4.9l-6,9.2l-1.9,4.9l-3.7,6.4l-3.2,7.1l-0.6,6.4
		l0.6,11.2l3.7,5.6l3.7,8.8l-3.2,10.5l-1.9,5.6l2.2,11.2l-51.5,92.7h-2.4l-11.4-2.4l-5.1,1.7l-2.4,1.7l-4.5-3.9l-3.7-5.1l-5.2-6.9
		L867.2,535l-10.3-16.1l-3.2-3.9l-2.4-3.2L847.1,504.8z"/>
	<path class="st0" d="M510.2,501.3l-2.6,7.1l-2.4,2.4v1.7l-6.9,14.4l-5.6,10.5l-3.7,8.1l-3.2,6.4l-24-4.9l-12.5-3.9l-1.3-0.7
		l-1.3-0.7l2.2-16.7l0.2-0.6l0.6-3.6l2.1-12l0.4-2.1l0.7-3.6l0.6-3.7l1.9-7.9l0.2-1.7l1.3-5.1l0.4-1.1l0.2-0.6l0.6-2.4l1.1,0.4
		l1.7,0.6l1.5,0.7l3.6,1.1l9.6,2.4l4.5,1.3l0.6,0.2l4.1,1.5l11.6,3.7l6.2,1.9l6.4,2.1l3.2,1.1L510.2,501.3z"/>
	<path class="st0" d="M325.6,555.4l-3.2,11.2l-0.6,8.1l-2.1,1.5l-0.6,3.9l-3,7.3L316,588l-1.9,7.1l-1.9,5.6l-2.4,11.2l0.9,9.9
		l0.9,1.9l1.5,3l1.3,1.1l-2.4-0.7l-2.1,0.2l2.2,2.4l4.9,8.8l-4.5-1.7h-3.7l-6.4-2.4h-1.3h-8.8l-6.9-3.2l-6.4-1.7l-6.4-1.7l-7.7-2.4
		L255,623l-9.6-1.7l-8.8-2.4l-5.8-1.9l-3.7-1.3l-4.3-2.2l-2.1-0.9l-14.6-5.6l-9.6-2.4l-11.4,1.5l-18.9-2.4l-27.9-3.2l-18.9-1.7
		l-28.5-2.4l-29-1.7h-5.6h-5.1l3.2-3.2l65.7,2.4l3.7-7.1l11.4-23.2l6.9-6.6l35.6-34.1l6.9,0.7l22.8,0.7l1.3-15.9l-25.3-8.8
		l-20.2,3.2l-22.1,22.3v-21.5l-56.9,9.6l-4.7,0.7L78,505v-2.4l53.7-19.1l21.5-29.6l18.9-12l24,12l8.2,4.9l59.4-7.1v-19.1l27.7,9.6
		l-15.2-25.7l23.4,9.2l2.4,2.8l1.3,1.7l3,0.7l6.7,1.7l1.1,1.9l1.7,2.4l-0.2,6.9l-0.4,9.6v2.4l2.4,1.5l-1.1,2.8l-0.6,2.1l-0.7-0.4
		v1.5v1.7l-0.9,6.2l-3.4,11.8l-2.2,7.7l-2.2,2.4l-3.7,5.2l-1.1,2.2l-2.4,2.8l-3,3.4l-9,9.6l3.6,2.1l0.7,0.4l3.9,2.6l1.7,1.1l1.5,1.1
		l3.6,2.8l8.2,4.9l7.5,4.9l8.2,4.9l2.4,0.7L325.6,555.4z"/>
	<path class="st0" d="M521.3,750l23.4,8.8l-1.7,1.7l-5.6,6.4l6,12.7l-21.7,9.7l-18.4-8.1l17-18.4l-3.7-3.9l-7.7,4.1l-13.1,7.1
		l-9.6,1.7l6.9-7.1l-8.2,1.7l1.3-6.4l-5.6,1.7l6.9-10.5l5.6-2.4l-7.5-2.4l-26,12l1.9-3.9l-17-2.4l-15.2-12l2.6-2.4l5.1-10.5l0.6-1.7
		l1.9-3.2l3.2-6.4l2.6-4.9l3.2-5.6l0.6-1.5l1.3-2.4l6.9,4.3l7.5,3.7l6.9,3.9l6.9,3.9l7.7,4.9l6.9,8.8l3.6,4.5l1.5,1.9l3.2,2.6l3,2.2
		l8.8,3.9L521.3,750z"/>
	<path class="st0" d="M322.4,566.6l3.2-11.2l3.7-13.7l6.9,2.4l5.6,1.7l6.4,1.7l6.4,2.4l6.4,1.7l6.9,2.4l6.9,1.7l6.4,2.4l6.4,0.7
		l7.7,2.4l2.4,0.7l5.6,3.9l8.2,3.9l8.2,2.4l4.5,1.7l3.2,1.7l-2.2,3.4l-1.5,3l-2.6,3.2l-2.6,2.4l-1.3,2.4l-6,9.7l-2.2-0.9l-2.4-0.7
		l-8.2-3.9l-1.3-0.7l-1.3-0.6l-1.1-0.6l-1.7-0.7l-1.9-0.7l-4.9,0.9l0.6-3.9v-0.7l-6.4-0.7l-6.9-2.4l-5.6-2.4l-6.9-1.7l-7.7-2.4
		l-12.5-5.6l-5.1-0.7l-6.4-1.7L322.4,566.6z"/>
	<path class="st0" d="M690.2,786.1l-5.6,6.4l-5.1,7.1l-5.6,6.4l-5.1,5.6l-6.4-4.9l-6.9-3.9l-5.6-4.9l-6.9-5.6l-6.4-4.9l-6.4-5.6
		l-6.9-4.9l-6.9-5.6l-6.4-3.9l-5.6-3.2l3.7-3.9l3.2-3.2l1.9-2.4h1.9l2.4-3.2l1.3-1.7l4.5-3.9l1.9-1.7l5.1-3.9l0.6-1.7l2.6-1.7
		l3.7-3.2l4.5-3.9l4.5,2.4l6.9,5.6l6.9,4.9l6.4,4.9l6.4,5.6l6.9,3.9l6.9,5.6l8.8,7.1l-1.9,8.1L690.2,786.1z"/>
	<path class="st0" d="M1067.6,834.8l-7.7-4.9l-8.8-5.8l-6.4-6.2l-11.4-5.6l-5.4-2.4l-6.7-1.7h-5.6l-9-0.2l-6.7,0.2l-15-1.1l-4.7-1.3
		l10.1-0.7l-1.3-2.4l-3.2-20l-1.9-12.7l-1.3-7.1l-6.2-3.4l-7.7-4.9l-1.9,2.4l-7.7,3.9l-2.6,1.7l-1.9-3.2l-8.8-9.6l-9.6-10.3
		l-6.9-6.4l8.2-6.4l-3.7-3.9l-3.7-5.6l-3.7-5.6l-3.7-4.9l-3.7-5.6l-3.7-4.9l-7.3,5.1l-5.4,3.7l-3.2,3.2l-3.2,1.7l-2.6-1.7L891,705
		l2.4-5.6l1.9-4.9l3.7-9.6l4.5-4.9l2.4,3.2l6.4-3.9l9.6-11.8l1.1-1.3l1.1-1.5l1.3-1.7l0.6-0.6l0.4-0.6l4.1-5.1l8.8-1.7l-8.2-13.7
		l-2.6-4.9l5.1-2.4l5.6,3.2l10.1,4.9l16.7,21.3l1.9,2.4l11.8,15.4l8.2,8.8l3.7,3.9l4.5,4.9l18.2,21l6.4,11.2l1.3,3.2l0.6,8.1
		l-1.3,12l1.3,2.4l0.6,1.7l6.9,8.8l1.9,1.7l1.9,3.2l4.5,11.2l-2.6,9.6l-3.2,5.6l8.8,9.6l6.4,5.6l7.7,7.1l5.6,4.9L1067.6,834.8z"/>
	<path class="st0" d="M754.1,742.3l-2.6,7.1l-8.2,10.5l-4.5,6.4l4.5,3.9l-9.6,12.7l5.1,3.2L735,791l-4.5,6.4l-5.1,6.4l-6.9-0.7h-6.4
		l-6.9-0.7H702h-2.6l-8.2-0.7l-5.1-0.7l-6.9-0.7l5.1-7.1l5.6-6.4l3.2-8.1l1.9-8.1l4.5-4.9v-1.7l5.6-5.6l5.6-3.9l3.7-4.9l1.3-1.7
		l3.7-4.9l5.6-10.5l1.9-8.8l1.9-7.1l2.4-8.1l4.5-12.7l2.4-6.4l2.4-8.8l6.9,2.2l13.3,3.6l-0.7,2.2l-0.2,0.7l-0.6,4.1l3.7,4.9
		l-6.9,21.5l-2.1-0.6l-3.6-0.9l-2.6,7.1l-1.3,1.7l5.6,1.7l3.9,1.5L754.1,742.3z"/>
	<path class="st0" d="M619.6,275.4l-3.2,0.7l4.5,9.6l-2.2,4.3l-0.9,2.1l-0.6,1.7l-0.6,2.4l-1.1,2.6l-1.7,2.8l-0.6,1.1l-0.4,0.6
		l-5.1,8.4l-4.3,8.1l-1.5,2.4l9.4,5.1l-3.4,5.2l-2.8,5.8l-6.4,3.2L590,344l3,4.9l-7.7,17.6l-5.1,12h-9.4l-1.1,3l-1.3,3.2l-1.3-5.6
		v-7.1l-1.3-17.6v-6.4l-0.6-6.4l-0.6-5.2v-5.6l-0.2-5.2v-1.5l-0.4-2.4l-13.9,4.9l-10.1,3.9l-7.7,3.2l-6.9,1.7l2.4-3.2l1.3-2.4
		l1.9-2.4l5.6-8.8l6.4-8.8l6.4-10.5l10.7-18.4l-0.6-8.1V267h9.6l13.3-2.4h6.4l8.2-0.7l6.9-0.7h5.1h2.6h5.6l13.3-2.4v4.9l-3.2,6.4
		L619.6,275.4z"/>
	<path class="st0" d="M454.6,585.2v2.4l-1.3,3.9l-1.3,5.6l-0.6,4.9l-1.3,5.6l-0.6,1.7v3.9l-1.9,6.4l-12-3.2l-1.3,1.7l-1.9,3.2
		l-3.2,5.6l-1.9,4.9l-7.7-3.2l-8.8-3.9l-6.4-2.4l-3.2-1.7l7.7-15.2l2.2-5.4l6-9.7l1.3-2.4l2.6-2.4l2.6-3.2l1.5-3l2.2-3.4l4.5,0.7
		l12,2.4l6.7,0.9l5.2,0.7L454.6,585.2z"/>
	<path class="st0" d="M819,717.2l-4.5,5.6L804.4,738l-0.6,2.4l-2.4,5.6l-14.6-8.1l4.5-7.1l-6.9-3.9l-6.4-2.4l1.9-7.1l1.9-3.2V711
		l1.3-4.9l1.9-3.2l0.6-3.9l0.6-0.7l0.7-3.6l3.6,1.1l5.1,1.7l12,3.2l20.2,6.4l-2.4,2.4l-3.2,3.9L819,717.2z"/>
	<path class="st0" d="M881.8,934.8l2.6-2.4l1.3-1.7l5.1-3.2l3.2-4.9l3.2-2.4l1.3-1.7l5.1-3.2l1.3-3.2l2.6-0.7l4.5-3.9l4.5-3.9
		l5.1-4.9l12.7,3.2l5.1,1.7l-1.3,8.1l6.7,7.5l4.5,3.9l3.7,4.9l2.6,3.2l1.9,1.7l3.7,3.9l3.2,3.9l-17,14.4l-2.6,2.4l-6.4,5.6l-8.2,6.4
		l-5.1,3.9l-1.9,2.4l-1.9-1.1l-3.2-2.1l-5.6-3.2l-5.1-3.2l-1.9-1.7l-12.5-7.5L891,956l-6.2-3.6l-6.4-3.9l-6.9-3.9l6.9-7.1
		L881.8,934.8z"/>
	<path class="st0" d="M1331.1,892.9l30.9,44.9l24.7,57.5l10.9,22.8l-3.7,1.1l-17,10.5l-10.1,6.4l-13.3,8.1l-8.8,4.9l-3.7,3.2
		l-6.9,3.9l-4.5,2.4l-5.1,3.2l-5.1,3.9l-6.4,3.2l-19.7,11.4l-27.2,15.7l-6.4,4.9l-6.9-9.6l-2.1,1.3l-4.3,2.8l-9.6,7.1l-7.7,4.9
		l-3.7,3.2l-5.6,4.9l1.3,4.9l-1.9,0.7l-6.4-15.9l-5.1-12l-5.8-16.1l-0.9-3.2l-0.2-2.4l0.2-6.6l0.7-3.6l2.2-8.2l1.9-4.5l3.2-6.7
		l1.7-2.2l8.1-11l2.4-4.1l1.7-3.6l0.9-3.6l0.7-2.8l0.4-2.4v-1.9l-4.3-14l-3.7-8.1l-19.7-33.5l-14.6-31.1l-5.1-7.1l-7.7-10.3l3.7-3.2
		l5.6-2.4l5.6,0.7l-5.4-0.9l95.3-88.2l31.3,41.8l4.5-2.4l4.5,6.4l-3.7,3.2l12,16.9L1331.1,892.9z"/>
	<path class="st0" d="M567,379.4l1.3,5.6l-3.2,5.6l-4.5,8.1l-6.9-3.9l-5.1-3.2l-7.5-3.2l-6.9-2.4l-12-2.4l-7.5-0.7l-5.1-2.4h-3.2
		l-8.8-1.7l-12-5.6l-2.4,0.7l-1.9,0.7l-3.2,0.7l3.2-8.1l3.7-5.6l3.6-4.9l3.7-3.9l2.1-1.5l6.4-3.9l5.8-3.2l3-1.7l12-5.6l3.7-1.7
		l6.9-1.7l7.7-3.2l10.1-3.9l13.9-4.9l0.4,2.4v1.5l0.2,5.2v5.6l0.6,5.2l0.6,6.4v6.4l1.3,17.6L567,379.4z"/>
	<path class="st0" d="M1335,1210.1l-9,2.8l-14-6.2l-1.1,0.7l-2.6,1.7l-13.3,18.4l-5.6,3.9l-4.5,1.7l-0.6-3.2l3.2-1.7l-4.5-14.4
		l-2.2-1.1l-0.9-7.9l-2.4,1.9h-2.1h-1.1l-2.4-12l-0.2-0.7l-3.7-6.4l-4.5-6.4h2.6h3.2l4.5,3.9l4.9-5.8l6.6-3.4l39,15l13.3,10.5
		L1335,1210.1z"/>
	<path class="st0" d="M1076.4,707.8l0.7-19.3l2.6-9.6l13.3,5.6v-10.5l1.3-2.4l-0.6-3.9l-5.1,0.7l-3.2-4.9l-3.2-4.9l-1.3-19.1
		l22.5-6.9l2.1,0.6l0.7,0.2l11.4,3.7l1.9,5.6l-1.7,0.2l-8.4,1.3l3.2,2.4v1.1v3v3.4l-0.2,3.2l2.6,2.6l-0.6,1.7l2.1,2.1l0.2,1.1
		l-0.6,3l0.2,0.6l3.7,7.3l-0.6,8.1l-0.6,4.9l9.6-1.7l-0.6-5.6l3.2-3.2l5.1,0.7l11.4,1.7l9.6,12.7l-4.5,5.6l4.5,3.9l4.5-3.2l6.4,3.9
		v3.2l34.1,0.7l1.9,32l31.1,0.7l4.9,5.8l10.5,12.5l6.4-6.4l7.7,7.1l-12,22.5l22.5,30.2l-12.9,11.2l-13.1-12.7h-15.4l-18.2-9.9
		l-15.4-10.3l-5.4-9l-61.2-23.2L1076.4,707.8z"/>
	<path class="st0" d="M1078.8,1258.4l-1.1-0.2l-2.8,0.6l-1.5,1.3l-1.3,1.9l-0.9,1.7l-1.3,2.1l-2.8,1.7l-5.8,0.6l-1.9,0.7l-0.9,1.3
		l-2.2,2.4l-2.1,2.6l-0.6,0.4l-5.1,3.9l-6.9,0.4l-11.8,0.6l-2.8-7.5l-6,0.6l-1.3,0.2l-1.1,1.1l-6.2,6.2h-1.7h-4.5l-2.6-1.7l-6.9-8.8
		l2.8-5.8l5.6-11.4l0.4-0.7l1.9-3.9l2.4-4.9l0.6-1.1l9-18.5l2.2-4.5l3.6-7.5l1.1-2.2l0.6-7.9v-0.9l-2.6-6.4l2.8,2.8l1.9,2.2l1.1,1.3
		l5.1,4.9l4.5,4.9l5.6,6.4l2.6,3.9l5.1,5.6l3.4,3l1.1,0.9h-3.7l2.6,2.4l3.2,3.2l21.3,20.4l2.1,1.9h-1.3L1078.8,1258.4z"/>
	<path class="st0" d="M787.2,915l-1.3,0.7l-6.4,6.4l-5.6,4.9l-6.4,6.4l-2.1,1.5l-1.5,1.5l-5.2,5.2l-4.1,4.3l-10.3,11.2l-4.1,4.3
		l-33-36.7l-3-0.7l-6.7-2.1l-0.7-0.2l-8.2-5.2l-0.6-0.4l-22.1-12l-11.8-11.2l-10.1-9.6l-4.5-3.9l-22.1-32.8l10.1-1.7l2.4-0.4
		l11.4-1.3l6.9-0.7l6.7-2.1l5.2,17.2l1.3,3.4l2.1,2.8l1.7,1.9l2.4,2.4l5.6,4.9l5.8,5.1l4.3,3l2.6,1.7l2.1,0.7l2.4,0.7l6,1.9
		l21.3,9.4l1.1,0.6l29.6,12.9l3.6,2.2l3.7,4.1l4.3,5.6l1.5,2.4l8.8-6.4l6.9-6.4l1.9-1.7l1.3-0.7l1.9-1.1l2.6-2.1l8.8-8.1l8.2,4.9
		l-5.6,4.9l-3.7,3.2L787.2,915z"/>
	<path class="st0" d="M301.6,634.6l-1.5,4.9l-1.7,6.4l-2.1,11l-1.3,6.2l-3.9,1.3l-2.4,0.2l-6.4,0.2l-14.4-1.3l-8.8-2.2l-17.2-6.6
		l-11-9.9L200.5,606l6.2,1.5l16.5,6.6l4.5,2.2l9.2,3l8.8,2.4l9.7,1.7l9.9,2.2l7.9,2.4l6.2,1.5l6.4,1.7l7.1,3.4L301.6,634.6z"/>
	<path class="st0" d="M1081.8,1230.2l-20.2,2.4l-4.5-1.7l-1.1-0.9l-3.4-3l-5.1-5.6l-2.6-3.9l-5.6-6.4l-4.5-4.9l-5.1-4.9l-1.1-1.3
		l-1.5-1.9l-3.2-3.2l-1.3-1.7l-3-3.9l-3.9-3.4l-0.6-0.7l-3.2-3.9l4.5-3.9l3.7-3.9l1.9-1.7l1.3-0.7l5.1,3.7l2.4,3.6l7.7,8.8l1.5,1.9
		l1.1,1.3l4.1,3.6l3.4,2.8l5.6,3.2l5.6,3.9l3.2,3.9l3.7,3.2l5.1,4.9l3.7,4.9l8.8,8.8h-1.3L1081.8,1230.2z"/>
	<path class="st0" d="M808.4,878.8l-3.7,3.2l-4.5,4.9l-4.5,4.9l-3.2,3.9l-3.2-1.7l-2.4-1.7l-5.6-3.9l-5.6-3.2l-6.4-3.9l-5.6-3.2
		l-5.6-3.2l-1.9-1.7l-4.5-2.4l-5.6-3.9l-1.3-0.7l-4.5-2.4l-8.2-4.9l1.3-3.2l2.4-5.6l3.2-8.1l1.3-3.9l3.2-7.1l1.3-2.4l1.3-4.9
		l2.4-6.4l3.2-8.1l6.4,3.2l2.6,0.7l3.7,2.4l2.4,0.7l2.6,1.7l4.5,3.9l0.6,5.6l1.9,6.4l5.1,4.9l1.9,2.4l1.5,1.7l4.3,4.9l4.5,4.9
		l4.5,5.6l3.2,3.9l1.3,0.7l4.5,5.6l5.1,4.9l0.6,1.7L808.4,878.8z"/>
	<path class="st0" d="M556.3,407.3v1.7l-8.8,16.9l-3.7,8.1l-1.9,3.2l-5.6,11.2l-3.7,7.1l-6.4-3.2l-7.5-2.4l-5.6-1.7h-5.6l-8.2-2.4
		l-6.9-0.7l-8.2-2.4l-14.6-2.4l-1.9-0.7h-1.3l1.1-6.4l1.3-7.3l0.9-5.6l0.9-6.4l0.7-4.7l0.6-6.4l1.3-4.9l5.1-22.5l3.2-0.7l1.9-0.7
		l2.4-0.7l12,5.6l8.8,1.7h3.2l5.1,2.4l7.5,0.7l12,2.4l6.9,2.4l7.5,3.2l5.1,3.2l6.9,3.9l-1.3,3.2L556.3,407.3z"/>
	<path class="st0" d="M1201.7,1090.8l-5.6,2.4l-12,3.2l-3.2,1.3l-2.4,1.1l-6.9,1.7l-6.9,2.4l-3.2-5.6l-1.9-3.9l-4.5-8.8l-3.7-7.1
		l-3.2-5.6l-4.5-12.7l-5.6-22.5l-1.9-5.6l-1.9-5.6l-8.8-32l-2.6-3.9l-4.5-4.9l-3.7-4.9l5.6-3.2l7.7,6.4l15.2,2.4l3.6,0.9l6,1.5
		l11.4,10.3l8.8,6.4l5.1,9.6l1.3,7.1l6.6,10.1l5.4,8.2l3.2,3.2l1.9,2.4l3.2,5.6l4.5,2.4l-2.2,8.2l-0.7,3.6l-0.2,6.6l0.2,2.4l0.9,3.2
		l4.5,12L1201.7,1090.8z"/>
	<path class="st0" d="M733.8,620.4l3.7,8.8l-5.1,2.4l-1.9,1.7l-5.1,3.2l-12.7,6.4l-1.3,2.4l-8.2,7.1l-2.4,3.2l-3.7,2.4l-13.3-13.7
		l-13.3-12.7l-6.4-4.3l-6.9-4.5l-23.8-13.3l-2.1-1.1l-5.1-1.3l-9.7-3.2l-20.6-3.6l1.9-6.4l2.4-0.7h3.2l4.5,0.7l13.9-3.9l3.7-1.7
		l3.7-1.7l6.4-10.5l2.1-1.3l5.1-3.9l3.7-3.9l6.2,3.9l7.7,3.9l0.6-7.1l3.7,2.4l3.7,8.1l1.5,5.8l1.3,3.2l3,4.7l3.7-3.2l9.6,11.2
		l2.6-0.7h2.4l8.2-1.7l3.2,3.9l1.3,0.7l-6.4,12.7l-0.6,5.6l16.5-5.6l15.7-11.2l3.7-3.2l10.7,14.4l-1.9,1.7L733.8,620.4z"/>
	<path class="st0" d="M736.5,695.7l-4.5,12.7l-2.6,8.1l-1.9,7.1l-1.9,8.8l-6.4-1.7l-6.9-3.2l-5.6-4.9l-13.3-11.2l-1.9,1.7l-8.8,0.7
		l-6.9,2.4l-1.9,0.7l-8.2,1.7l-3.2-2.4h1.9l5.6-3.2h1.9l6.4-3.2l1.9-0.7l5.6-2.4l17-8.1l3.2-1.7l1.9-3.2l1.3-5.6l5.6-5.6l5.6-3.9
		l2.6-2.4l12.4,2.6l6,1.3l-2.4,8.8L736.5,695.7z"/>
	<path class="st0" d="M989.1,803l1.3,2.4l-10.1,0.7l4.7,1.3l-13.7-1.3l-6.9-1.9l-4.5-1.3l-14.6-3.9l-4.9-1.5l-4.7-1.7l-16.5-8.8
		l5.1-3.2l3.2-2.4l-6.7-9l-6.4-9.6l-5.6-7.1l-1.3-1.7l-1.9-2.4l-3.7-5.6l-2.4-3.2l-1.3-2.4l-4.5-3.9l-3.2-5.6l-4.5-5.6l-6.9-7.1
		l-6.4-6.4l3.7-3.9l3.7-3.9l5.1-3.9l5.6,5.6l2.4,3.2l2.6,1.7l3.2-1.7l3.2-3.2l5.4-3.7l7.3-5.1l3.7,4.9l3.7,5.6l3.7,4.9l3.7,5.6
		l3.7,5.6l3.7,3.9l-8.2,6.4l6.9,6.4l9.6,10.3l8.8,9.6l1.9,3.2l2.2-1.5l7.7-3.9l1.9-2.4l7.7,4.9l6.4,3.2l1.3,7.1l1.9,12.7L989.1,803z
		"/>
	<path class="st0" d="M869.8,736.5l3.7,6.4l-2.4,1.7l-4.5,3.9l-3.2,1.7l-1.9,1.7l-2.4,2.4l-1.9,1.7l-5.1,3.2l-5.1,3.9l-6.9,4.9
		l-7.7,5.6l-4.5-4.9l-3.7-5.6l-3.7-4.9l-18.9-12l2.4-5.6l0.6-2.4l10.1-15.2l4.5-5.6l3.2-3.9l3.2-3.9l2.4-2.4l6.4,2.4l3.7,2.6
		l2.8,1.9l8.1,5.1l9.4,7.5l2.8,2.2l4.5,3.9L869.8,736.5z"/>
	<path class="st0" d="M771.1,415.5l-11.4,0.7l-8.2,13.7l-3,1.5l-8.4,4.1l-3.2-5.6l-5.4-4.7l-2.8-2.4l-5.6-3.2l-5.6-5.6h0.6l-3.9-5.4
		l4.7-15.4l-3.6-1.5l-7.7,3.9l-20.2-14.4l-8.2-8.8l-7.5-8.1l-5.1-4.1l-10.7-8.6h-4.5h-5.1l-18.9,9.6l-10.1,3.2l-13.7,6.7l-3.9,2.1
		l-9.6,2.4l-9.6,3.2l5.1-12l7.7-17.6l-3.2-4.9l8.8-2.4l6.4-3.2l2.8-5.8l3.4-5.2l-9.6-4.9l1.5-2.4l4.3-8.1l5.1-8.4l0.4-0.6l0.6-1.1
		l1.7-2.8l1.1-2.6l0.6-2.4l0.6-1.7l0.9-2.1l2.2-4.3l-4.5-9.6l3.2-0.7l7.5-3.2l3.2-6.4v-4.9h3.7l2.6-0.2l28.5-2.2h2.4l11.4-0.7
		l3.2,3.2l4.5,5.6l1.9,3.2l6.9,10.5l1.9,2.2l3.7,4.3l1.1,2.1l7.9,15.5l20.4,27.2l3.6,5.6l5.1,9.6l2.4,3.9l12,17.6l13.9,15.2l2.2,3.9
		l12.4,22.5l3.2,6.4h-3.2l-6.4-1.7L771.1,415.5z"/>
	<path class="st0" d="M507.6,587.6l1.9,1.7l-5.1-0.7l-3.7-0.7l-4.5,3.2l1.3-3.2h-6.9h-6.9l-6.9-1.7l-7.7-2.4l3.2-4.9l4.5-9.6
		l2.6-5.6l3.2-6.4l3.2-5.6l6.9,3.9l0.6,2.4l8.8,15.9l3.7,3.2l0.4,3.7l0.2,1.9L507.6,587.6z"/>
	<path class="st0" d="M1109.9,1052.6l-2.6,2.4l-2.4,1.7l-5.4,3l-1.9,1.7l-6.4,3.2l-2.4,1.7l-5.1,3.2l-6.4,3.9l-6.4,3.9l-4.5,2.4
		l-3.2,1.7l-6.4,3.9l-1.1-1.9l-2.1-3.7l-0.7-1.3l-2.4-4.1l-1.1-1.7l-2.1-3.7l-0.9-1.3l-1.5-2.8l-1.1-1.7l-1.9-3.2l-2.6-3.9l-1.5-3
		l-1.7-2.8l-1.3-3l-1.9-3.2l-1.9-2.4l-3.7-2.4l-3.2-2.4l13.3-7.1l10.7-6.4l10.7-7.1l11.8-7.1l10.1-6.6l4.5,6.4l3.6,6l3.4,6l3.6,6.2
		l2.8,4.9l2.6,4.9l3.2,5.2l3.2,6L1109.9,1052.6z"/>
	<path class="st0" d="M1036.1,1050l1.7,2.8l1.5,3l-11.4,7.1l-10.7,5.6l-9.6,6.4l-9.6,5.6l-12.7,7.1l1.3,3.2l-5.6,3.2l-4.5,3.9
		l-10.7,8.1l-1.3,1.7l-8.8,7.1l-1.9,2.4l-21-23.2l1.9-1.7l8.8-8.1l1.3-1.7l44.4-27.2l2.6,4.9l5.1-3.2l15.2-8.8l15.2-9.6l3.7,2.4
		l1.9,2.4l1.9,3.2L1036.1,1050z"/>
	<path class="st0" d="M1030.9,649.2l-42.1,41.6l-8.4-8.6l-11.8-15.4l-1.9-2.4L950,643l-22.1-26.4l-3.2-4.9l-16.5-16.9l2.4-1.7
		l5.1-1.7l11.4,2.4h2.6l8.8,3.9l5.1,3.2l18.4,1.7h25.3l11.4-0.7l17.8,10.3l6.9,12l5.1,13.7L1030.9,649.2z"/>
	<path class="st0" d="M893.8,699.6l-2.4,5.6l-5.6-5.6l-5.1,3.9l-3.7,3.9l-3.7,3.9l-10.1-11.2l-18.9-9.6l-5.1,1.7l-6.9-2.4l-6.4-2.4
		l-6.4-1.7l-6.4-2.4l-7.7-2.4l-5.6-2.4l-4.5-1.7h-2.4l-6.9-3.2l-3.7-0.7v-5.6l1.7-3.4l6.6-13.7l2.8-7.7l2.8-5.2l2.4-4.3l-0.6-5.1
		l-0.6-3.4l1.5,3.9l0.7,4.3l-0.9,3.4l-2.8,5.2l-1.5,4.9l3.2,3l4.3,0.6l6.9,0.7l5.1,0.7l3.7,0.7l7.7-4.9l4.5,3.9l3.7-5.6l3.7-4.9
		l15.7,11.2l-1.3,2.4l5.6,3.2l6.4,3.9l18.9,12.7l4.5-3.9l12.7,14.4l-3.7,9.6L893.8,699.6z"/>
</g>
<g id="labels-layer">
</g>
<g id="lines-layer">
</g>
<g id="region-groups-layer">
</g>
<circle class="st1" cx="983.3" cy="889.7" r="3"/>
<circle class="st1" cx="862.7" cy="771" r="3"/>
<circle class="st1" cx="660" cy="676.4" r="3"/>
<circle class="st1" cx="848.6" cy="680.1" r="3"/>
<circle class="st1" cx="850.7" cy="939.9" r="3"/>
<circle class="st2" cx="964.4" cy="1201.1" r="15"/>
<circle class="st1" cx="1104.3" cy="874.5" r="3"/>
<circle class="st3" cx="1057.6" cy="722.8" r="15"/>
<circle class="st1" cx="1131.6" cy="1009.9" r="3"/>
<circle class="st1" cx="622" cy="275.2" r="3"/>
<circle class="st1" cx="567.3" cy="315.1" r="3"/>
<circle class="st1" cx="616.8" cy="644.5" r="3"/>
<circle class="st1" cx="937" cy="982.8" r="3"/>
<circle class="st2" cx="1035.2" cy="774.1" r="15"/>
<circle class="st1" cx="718.3" cy="586.5" r="3"/>
<circle class="st1" cx="526.9" cy="705.6" r="3"/>
<circle class="st1" cx="1056" cy="1006.5" r="3"/>
<circle class="st1" cx="707.8" cy="649" r="3"/>
<circle class="st1" cx="1112.1" cy="1105.6" r="3"/>
<circle class="st1" cx="533.1" cy="402.4" r="3"/>
<circle class="st1" cx="983.3" cy="1055.8" r="3"/>
<circle class="st1" cx="1061.8" cy="1178.7" r="3"/>
<circle class="st1" cx="589.6" cy="729" r="3"/>
<circle class="st2" cx="1062.5" cy="1182.2" r="15"/>
<circle class="st1" cx="837.4" cy="888.2" r="3"/>
<circle class="st1" cx="994.2" cy="910.8" r="3"/>
<circle class="st1" cx="806.1" cy="708.4" r="3"/>
<circle class="st1" cx="668.5" cy="785.6" r="3"/>
<circle class="st1" cx="775.6" cy="636.9" r="3"/>
<circle class="st1" cx="811.2" cy="844.6" r="3"/>
<circle class="st2" cx="1363.1" cy="1054.5" r="15"/>
<circle class="st1" cx="927.3" cy="964.2" r="3"/>
<circle class="st1" cx="687.2" cy="355.9" r="3"/>
<circle class="st1" cx="425.2" cy="495.8" r="3"/>
<circle class="st2" cx="882.5" cy="885.8" r="15"/>
<circle class="st1" cx="705" cy="840.6" r="3"/>
<circle class="st1" cx="884.4" cy="529.4" r="3"/>
<circle class="st1" cx="526" cy="709.3" r="3"/>
<circle class="st1" cx="916.8" cy="734.4" r="3"/>
<circle class="st1" cx="788.7" cy="804.8" r="3"/>
<circle class="st1" cx="470.5" cy="678.4" r="3"/>
<circle class="st1" cx="946.2" cy="987.4" r="3"/>
<circle class="st1" cx="1044.3" cy="1251.5" r="3"/>
<circle class="st1" cx="1038.4" cy="1252.1" r="3"/>
<circle class="st1" cx="741.1" cy="740.1" r="3"/>
<circle class="st1" cx="741.1" cy="740.1" r="3"/>
<circle class="st1" cx="1028.2" cy="956.4" r="3"/>
<circle class="st1" cx="370.1" cy="633.5" r="3"/>
<circle class="st1" cx="397.9" cy="525.6" r="3"/>
<circle class="st1" cx="909.1" cy="835" r="3"/>
<circle class="st1" cx="527.1" cy="718" r="3"/>
<circle class="st1" cx="813.8" cy="430.7" r="3"/>
<circle class="st1" cx="886.7" cy="525.8" r="3"/>
<circle class="st1" cx="1029.4" cy="1062.2" r="3"/>
<circle class="st1" cx="1193.4" cy="979.2" r="3"/>
<circle class="st1" cx="663.2" cy="636.7" r="3"/>
<circle class="st1" cx="514.7" cy="412.1" r="3"/>
<circle class="st1" cx="554.6" cy="422.2" r="3"/>
<circle class="st2" cx="1112.3" cy="954.3" r="15"/>
<circle class="st1" cx="523.5" cy="287.6" r="3"/>
<circle class="st1" cx="586.3" cy="447" r="3"/>
<circle class="st1" cx="282.3" cy="609" r="3"/>
<circle class="st1" cx="373" cy="609.3" r="3"/>
<circle class="st1" cx="1135.9" cy="1106.6" r="3"/>
<circle class="st1" cx="979.4" cy="704.3" r="3"/>
<circle class="st1" cx="1029" cy="1062.9" r="3"/>
<circle class="st1" cx="655" cy="762.1" r="3"/>
<circle class="st1" cx="1187.2" cy="949.6" r="3"/>
<circle class="st1" cx="487.9" cy="302.4" r="3"/>
<circle class="st1" cx="822.2" cy="660.6" r="3"/>
<circle class="st1" cx="1119.6" cy="693.8" r="3"/>
<circle class="st1" cx="1187.2" cy="949.6" r="3"/>
<circle class="st1" cx="481" cy="536.7" r="3"/>
<circle class="st1" cx="705" cy="840.6" r="3"/>
<circle class="st1" cx="822" cy="389.7" r="3"/>
<circle class="st1" cx="788.7" cy="804.8" r="3"/>
<circle class="st1" cx="741.1" cy="821.9" r="3"/>
<circle class="st1" cx="371.8" cy="609" r="3"/>
<circle class="st1" cx="511.5" cy="568.5" r="3"/>
</svg>
