<?xml version="1.0" encoding="utf-8"?>
<!-- Generator: Adobe Illustrator 26.2.1, SVG Export Plug-In . SVG Version: 6.00 Build 0)  -->
<svg version="1.1" id="Layer_1" xmlns="http://www.w3.org/2000/svg" xmlns:xlink="http://www.w3.org/1999/xlink" x="0px" y="0px"
	 viewBox="0 0 238 158.4" style="enable-background:new 0 0 238 158.4;" xml:space="preserve">
<style type="text/css">
	.st0{fill:#E8F0EC;stroke:#7B6F6F;stroke-width:0.4036;}
	.st1{fill-opacity:0.5;stroke:#000000;stroke-width:1.6146;stroke-opacity:0;}
	.st2{fill:#FF0000;fill-opacity:0.5;stroke:#000000;stroke-width:1.6146;stroke-opacity:0;}
</style>
<g id="globe-layer">
</g>
<g id="graticule-layer">
</g>
<path class="st0" d="M47.1,83.3l-1.3,0.9l-1.7,0.9L40,87.7l-3,1.7l-2.4,1.7l-2.4,1.3l-3.4,2.1l-2.4,1.7l-3,2.1l-3,1.7l-3.7-4.3
	l-0.8-1l-1.2-1.5l-2.6-2.9l-2.4-2.7l-4.1-4.3l-2.1-2.5l-1.1-1.4l-2.1-2.5l1.4-1.7l4.1-3l3.7-2.6l2.7-2.1l2.7-1.7l1-0.9l1.3-1.3
	l1-0.9l1.7-0.9l2.4-2.1l1.3-0.9l5.3,6.5l4.5,5.5l1.9,1.8l3.3,3.6l0.7,0.5l1.9,1.8l1.7,1l1.3,0.8l4.1,2.1L47.1,83.3z"/>
<path class="st0" d="M115.6,46.4l0.9-0.6l1.7-4.7l0.6-1.8l2.4-0.6l1.3-0.3l2.4,4.3l3.7,1.7l1.2-1.7l1.8-2.5l30.1,26.9l32.7,12.4
	l2.9,4.8l8.2,5.5l9.7,5.3h8.2l7,6.8l6.9-6L186.4,143l-3,1.3l-2,1.7l-4.1-4.7l-5.3-4l-0.4-0.3l-9.5-5.5l-0.3-0.2l-6.8-4.1l-5.1-3.8
	l-1.4-0.9l-0.6-0.4l-3.2-2.2l-3.2-2.2l-1.6-1.1l6-6.5l-28.3-59.6L115.6,46.4z"/>
<path class="st0" d="M84.8,31.3L107.3,9l3.4,2.6l3-3l4.4,2.1l-1.4,3.8l10.7,6.6l2.4,1.5l3.4,2.1l-1.4,5.1L131.5,40l-1.8,2.6
	l-1.2,1.7l-3.7-1.7l-2.4-4.3l-1.3,0.3l-2.4,0.6l-0.6,1.8l-1.7,4.7l-4.7,3l-7-6l-1.5-1.3l-4-0.7l-3.7-0.6l-0.7-1.7l-2.7-4.3l-6.1-3
	L84.8,31.3z"/>
<path class="st0" d="M125.3,155.6l3.7,2.6l-13.5-3l-4.7-0.4l-3.7-0.4l-3.7-0.9l-7.4-0.9l-9.1-2.1h-3l-4.4-0.9l-4.4-1.3l-3.7-0.4
	l-3.7-0.9l-7.1-1.7l-2.4-0.4l-2.7-0.9l-6.8-1.7l2-1.7l1.3-0.9l1-1.3l1-0.9l1.4-1.3l1.7-1.3l1.7-2.1l2.4-1.7l3.4-3l2.7-2.1l2.4-2.1
	l1-0.9l1.4-0.9l2.4-2.6l1.4,2.1l2.4,2.6l1.7,2.1l2,2.1l3.7-0.4l3-1.7l2.7,1.7l3,2.1l3.4,2.1l2,1.7l3,2.6l1.4,1.7l2.7,2.1l2.4,2.1
	l4.7,6l3.4,2.6L125.3,155.6z"/>
<path class="st0" d="M48.7,74.8l3.7,4.7l-1.7,1.3L48,82.5l-4.1-2.1l-1.3-0.8l-1.7-1L39,76.8l-0.7-0.5L35,72.7l-1.9-1.8l-4.5-5.5
	l-5.3-6.5l-2-3.4l-2.4-2.1l-2.4-2.1L15,50.1l1.5-1.8l2.4-2.1l2-2.1l2-1.7l3.4,3.4l3.7,3.8l2.4,3l1.7,3l2.4,2.1l0.7,1.3l1.3,1.7l2,3
	l1,1.3l0.7,0.9l3,3.8L48.7,74.8z"/>
<path class="st0" d="M115.6,46.4l2,4.3l28.3,59.6l-6,6.5l-5.6-3.9l-2.1-1.5l-0.9-0.6l-4.4-2.6l-3-4.7l-3-2.6l-4.1-3.8l-3.4-3
	l-4.7-5.1l1.7-3l1.4-5.1l-2.4-6l-1-1.7l-1-0.9l-3.7-4.7l-0.3-0.9l-0.7-1.3l0.7-6.4l-0.3-4.3l-0.7-1.7L99,47l-9.8-11.1l-2.4-2.6
	l-2-2.1h1.4l6.1,3l2.7,4.3l0.7,1.7l3.7,0.6l4,0.7l1.5,1.3l7,6L115.6,46.4z"/>
<path class="st0" d="M74.3,119.7l-2.4,2.6l-1.4,0.9l-1,0.9l-2.4,2.1l-2.7,2.1l-3.4,3l-2.4,1.7l-1.7,2.1l-1.7,1.3l-1.4,1.3l-1,0.9
	l-1,1.3l-1.3,0.9l-2,1.7l-3.7-3.4l-4.1-4.7l-1.4-2.1l-2.7-3l-1-0.9l-1-1.3l-1.7-2.1l-2-2.1l3.4-3l2-1.7l-3.4-4.7l-2.7-2.6l-2-2.1
	l-2-2.1l-4.1-5.1l-2-1.3l3-1.7l3-2.1l2.4-1.7l3.4-2.1l2.4-1.3l2.4-1.7l3-1.7l4.1-2.6l1.7-0.9l1.4-0.9l1-0.9l8.8,4.7l2.5,0.9l2.6,0.8
	l7.8,2.1l2.4,0.7l3.7,1L74,94.2l0.7,2.1l0.7,2.6l2.7,9l0.3,6.8L74.3,119.7z"/>
<path class="st0" d="M122.6,109l-3.7,1.3l-5.4,0.9l-5.4,0.9l-4.1,0.7l-3,0.5l-4.7,6.4l-2.4,2.6l-2.4,2.6l-3,1.7l-3,1.7l-3.7,0.4
	l-2-2.1l-1.7-2.1l-2.4-2.6l-1.4-2.1l4.1-5.1l-0.3-6.8l-2.7-9l-0.7-2.6L74,94.2l1.7-1.3l7.3,0.7l8,0.6l3.6-0.1l4.8,0.1h3l3.6,0.9
	l2.9,1.3l6.1,3l3.4,3.3l4.7,3.1l4.1,2.6l4.4,2.6l-4.4-0.9L122.6,109z"/>
<path class="st0" d="M153.4,127.8l-4.7,4.3L148,133l-1,1.7l-4.1,1.7l-3-1.3h-2.4l-0.7,0.9l3,6.8l-0.7,0.9l-2.4,5.1l-0.7,2.1
	l-3.4,3.8l-3.7,3.4l-3.7-2.6l-8.1-4.3l-3.4-2.6l-4.7-6l-2.4-2.1l-2.7-2.1l-1.4-1.7l-3-2.6l-2-1.7l-3.4-2.1l-3-2.1l-2.7-1.7l3-1.7
	l2.4-2.6l2.4-2.6l4.7-6.4l3-0.5l4.1-0.7l5.1-0.8l5.7-0.9l3.7-1.3l4.4,0.9l4.4,0.9l0.9,0.6l2.1,1.5l7.2,5l3.2,2.2l3.2,2.2l0.6,0.4
	l1.4,0.9l5.1,3.8L153.4,127.8z"/>
<path class="st0" d="M127,108.1l-4.1-2.6l-4.7-3.1l-3.4-3.3l-6.1-3l-2.9-1.3l-3.6-0.9h-3l-4.8-0.1l-3.6,0.1l-8-0.6l-2.5-0.7l5.4-0.4
	L85,90.9l-1.7-10.7l-1-6.8l-0.7-3.8l-3.3-1.8l-4.1-2.6l-1,1.3l-4.1,2.1l-1.4,0.9l-1-1.7L62,62.7l-5.1-5.5l-3.7-3.4l4.4-3.4l-2-2.1
	l-2-3l-2-3l-2-2.6l-2-3l-2-2.6l-3.9,2.7l-2.9,2l-1.7,1.7l-1.7,0.9L34,40.5l-1.3-1.7l1.3-3l1-2.6l2-5.1l2.4-2.6l1.3,1.7l3.4-2.1
	l5.1-6.3l0.6-0.7l0.6-0.8l0.7-0.9l0.3-0.3l0.2-0.3l2.2-2.7l4.7-0.9l-4.4-7.3l-1.4-2.6L55.4,1l3,1.7l5.4,2.6l8.9,11.4l1,1.3l6.3,8.2
	l4.4,4.7l2,2.1l2.4,2.6l9.7,11.2l3.4,6l0.7,1.7l0.3,4.3l-0.7,6.4l0.7,1.3l0.3,0.9l3.7,4.7l1,0.9l1,1.7l2.4,6l-1.4,5.1l-1.7,3
	l4.7,5.1l3.4,3l4.1,3.8l3,2.6L127,108.1z"/>
<path class="st0" d="M131.7,40.3l0.4-10.3l1.4-5.1l7.1,3v-5.6l0.7-1.3l-0.3-2.1l-2.7,0.4l-1.7-2.6l-1.7-2.6l-0.7-10.2l12-3.7
	l1.1,0.3l0.4,0.1l6.1,2l1,3l-0.9,0.1l-4.5,0.7l1.7,1.3v0.6v1.6v1.8l-0.1,1.7l1.4,1.4l-0.3,0.9l1.1,1.1l0.1,0.6L153,19l0.1,0.3l2,3.9
	l-0.3,4.3l-0.3,2.6l5.1-0.9l-0.3-3l1.7-1.7l2.7,0.4l6.1,0.9l5.1,6.8l-2.4,3l2.4,2.1l2.4-1.7l3.4,2.1v1.7l18.2,0.4l1,17.1l16.6,0.4
	l2.6,3.1l5.6,6.7l3.4-3.4l4.1,3.8l-6.4,12l12,16.1l-6.9,6l-7-6.8h-8.2l-9.7-5.3l-8.2-5.5l-2.9-4.8l-32.7-12.4L131.7,40.3z"/>
<path class="st0" d="M85.1,91.1l0.7,1.3l-5.4,0.4l2.5,0.7l-7.3-0.7l-3.7-1l-2.4-0.7L61.7,89l-2.6-0.8l-2.5-0.9l-8.8-4.7l2.7-1.7
	l1.7-1.3l-3.6-4.8l-3.4-5.1l-3-3.8L41.5,65l-1-1.3l-2-3L37.2,59l-0.7-1.3l-2.4-2.1l-1.7-3l-2.4-3l-3.7-3.8l-3.4-3.4l2-2.1l2-2.1
	l2.7-2.1l3,3l1.3,1.7l1.4,0.9l1.7-0.9l1.7-1.7l2.9-2l3.9-2.7l2,2.6l2,3l2,2.6l2,3l2,3l2,2.1l-4.4,3.4l3.7,3.4l5.1,5.5l4.7,5.1l1,1.7
	l1.2-0.8l4.1-2.1l1-1.3l4.1,2.6l3.4,1.7l0.7,3.8l1,6.8L85.1,91.1z"/>
<g id="labels-layer">
</g>
<g id="lines-layer">
</g>
<g id="region-groups-layer">
</g>
<circle class="st1" cx="82" cy="137.4" r="1.6"/>
<circle class="st1" cx="17.6" cy="74" r="1.6"/>
<circle class="st1" cx="146.6" cy="129.3" r="1.6"/>
<circle class="st1" cx="121.7" cy="48.3" r="1.6"/>
<circle class="st2" cx="109.7" cy="75.7" r="8"/>
<circle class="st1" cx="87.8" cy="148.7" r="1.6"/>
<circle class="st1" cx="46.5" cy="54.5" r="1.6"/>
<circle class="st1" cx="42.4" cy="108.2" r="1.6"/>
<circle class="st1" cx="79.9" cy="38.4" r="1.6"/>
<circle class="st1" cx="154.8" cy="32.8" r="1.6"/>
</svg>
