<?xml version="1.0" encoding="utf-8"?>
<!-- Generator: Adobe Illustrator 26.2.1, SVG Export Plug-In . SVG Version: 6.00 Build 0)  -->
<svg version="1.1" id="Layer_1" xmlns="http://www.w3.org/2000/svg" xmlns:xlink="http://www.w3.org/1999/xlink" x="0px" y="0px"
	 viewBox="0 0 311.1 301.3" style="enable-background:new 0 0 311.1 301.3;" xml:space="preserve">
<style type="text/css">
	.st0{fill:#E8F0EC;stroke:#7B6F6F;stroke-width:0.4036;}
	.st1{fill:#FF8000;fill-opacity:0.5;}
	.st2{fill-opacity:0.5;stroke:#000000;stroke-width:1.6146;stroke-opacity:0;}
	.st3{fill:#FF0000;fill-opacity:0.5;}
	.st4{fill:none;}
	.st5{fill:none;stroke:#3F3B3C;stroke-miterlimit:10;}
	.st6{fill:#3F3B3C;}
</style>
<g id="globe-layer">
</g>
<g id="graticule-layer">
</g>
<path class="st0" d="M41.8,15.4l0.9-0.6l1.7-4.7L45,8.3l2.4-0.6l1.3-0.3l2.4,4.3l3.7,1.7l1.2-1.7l1.8-2.5l30.1,26.9l32.7,12.4
	l2.9,4.8l8.2,5.5l9.7,5.3h8.2l7,6.8l6.9-6L112.6,112l-3,1.3l-2,1.7l-4.1-4.7l-5.3-4l-0.4-0.3l-9.5-5.5l-0.3-0.2l-6.8-4.1l-5.1-3.8
	l-1.4-0.9l-0.6-0.4l-3.2-2.2l-3.2-2.2l-1.6-1.1l6-6.5L43.8,19.5L41.8,15.4z"/>
<path class="st0" d="M89.5,181.8l1,3l3.2,12l2.4,6.8l1.7,3l2,3.8l-1.7,0.9h-0.7l-1.3,0.9l-3,1.7l-4.4,3l-3.4-6.4l-3.4-6.4l-4-6.3
	l-1.9-4.3h-0.3l-1.4-2.6l-1.7-3.2l-1.7-2.8l-1.4-2.6l-1.5-2.6l-1.9-3.3l-1.8-3.2l-1.9-3.2l-2.4-3.4l4.7-3l1.4-0.9l4.2-2.6l2-1.3
	l2-2.1l3.7-2.1l2,2.6l2.4,2.6l1.4,2.1l4.7,17.1L89.5,181.8z"/>
<path class="st0" d="M133.9,230.1l1-0.4l-0.7-2.6l3-2.6l2-1.7l4.1-2.6l5.1-3.8l2.3-1.5l1.1-0.7l3.7,5.1l3.4-2.6l14.5-8.4l10.5-6.1
	l3.4-1.7l2.7-2.1l2.7-1.7l2.4-1.3l3.7-2.1l2-1.7l4.7-2.6l7.1-4.3l5.4-3.4l9.1-5.6l2-0.6l7.8,16L245,209l0.3,4.3l6.8-4.7l5.8,11.9
	l-7.7,33.7l-1.3,9.8l-3,0.9l-3.4,7.7l-3.7-1.3l-7.1,6.8l-6.4,6l-4.1-4.7l1.7,9.8l-3,6.4l1.4,3.4l-3,1.7l-1.4,0.4l-9.5-1.7l-12.6-7.7
	l-2-1.2l0.7-2.1l1-3.4l1-2.2l1.2-1.4l-0.5-0.3l0.4-1.7l-0.3-1.7l-0.3-0.4l-4.8,1.5l4.8-1.5l1.1-4.6l-7.1-5.6l-20.8-8l-3.5,1.8
	l-2.6,3.1l-2.4-2.1H159h-1.4l-1.4-0.9l-1-0.9l-3-3.4l-1.1-1.5l-3.6-4.9l-2-3.4l-2-3l-1.6-3.8L133.9,230.1z M166,260.4l-0.4,0.7
	l-0.3,0.8l0.3-0.8L166,260.4z"/>
<path class="st0" d="M74.5,156.6l-2,2.1l-2,1.3l-4.1,2.6l-1.3,0.9l-4.7,3l-2-3l-2-3l-2.7-3l-1-1.3l-2-2.6l-1.7-2.1l-2-2.1l-2-2.6
	l-1.4-2.1l-5.4-3.4l1-0.9l0.7-0.4l3.4-2.6l7.4-6.8l4.7-3.4l2.4,1.7l2,1.7l0.3,0.4l2.7,2.6l2,2.1l2.7,2.1l2,2.6l2,3l2,3l1,1.7
	l0.3,0.6l3.4,5.8L74.5,156.6z"/>
<path class="st0" d="M113,130.1l-3,1.3l-2.7,0.9l-2.7-4.7l-2,4.3l0.7,5.6l-7.4-0.8l5.7,3.8l-1.5,0.9l-2.2,1.3l-4.4-1.3l-2,2.1l1.4,3
	l-1.3,0.4l-4.4,2.6l-3.7,2.1l-2,1.3l-3,1.7l-3.4-5.8l-0.3-0.6l-1-1.7l-2-3l-2-3l-2-2.6l-2.7-2.1l-2-2.1l-2.7-2.6l-0.3-0.4l-2-1.7
	l-2.4-1.7l3.7-3.4l3.4-3.8l0.7-2.1l2.4-5.1l0.7-0.9l-3-6.8l0.7-0.9h2.4l3,1.3l4.1-1.7l1-1.7l0.7-0.9l4.7-4.3l1.7-0.4l6.8,4.1
	l0.3,0.2l9.5,5.5l0.4,0.3l5.3,4l2.4,7.3l2.4,1.7l1.7,2.1l4.1,7.7L113,130.1z"/>
<path class="st0" d="M141.4,241.2l-1.7,3l-0.7,1.4l-0.4,0.8l-1,0.4l0.7,0.9l-2.4,1.3l-2.2-0.3l-0.8-0.1l-2.4-1.7l-2.7-1.7l-3.4-2.6
	l-2-2.1l-1-0.9l-1.4-2.1l-3-3l-4.7-3.8l-3.7-3.4l-2-3.8l-1-1.3l-0.7-1.7l3.7-1.3l3.7-0.9l1.3-0.6l1.7-0.7l6.4-1.7l3-1.3l2.3-0.9
	l0.8,2.1l2.7,6.4l3.4,8.5l7.9,10.3L141.4,241.2z"/>
<path class="st0" d="M83.2,151.5l3.7-2.1l4.4-2.6l1.4-0.4l-1.4-3l2-2.1l4.4,1.3l2.2-1.3l1.5-0.9l-5.7-3.8l7.4,0.8l-0.7-5.6l2-4.3
	l2.7,4.7l2.7-0.9l3-1.3l1-0.9l-4.1-7.7l-1.7-2.1l-2.4-1.7l-2.4-7.3l4.1,4.7l4.1,5.5l2.7,3.8l7.8,16.6l10.5,17.9l2,4.3l2.3,7.5v1
	l-0.2,1.3l-0.4,1.5l-0.5,1.9l-0.9,1.9l-1.3,2.2l-4.3,5.9l-0.9,1.2l-1.7,3.6l-1,2.4l-2.4-1.3l-1.7-3l-1-1.3l-1.7-1.7l-2.9-4.4
	l-3.5-5.4l-0.7-3.8l-2.7-5.1l-4.7-3.4l-6.1-5.5l-3.2-0.8l-1.9-0.5l-8.1-1.3l-4.1-3.4L83.2,151.5z"/>
<path class="st0" d="M136,248.8l-1.2,0.2l-5.9,1.1l-3,1.3l-3,1.7l-4.4,1.7l-6.4,2.6l-1.4-3.4l-1.7-2.1l-1.4-3l-1.7-2.6l-3.9-6.5
	l-1.2-2l-1.7-3l-1-2.1l-0.7-1.7l-3-4.7l-2.7-4.3l-3-5.1l4.4-3l3-1.7l1.3-0.9h0.7l1.7-0.9l2.4,4.7l1,2.1l1.7,3l0.7,1.7l1,1.3l2,3.8
	l3.7,3.4l4.7,3.8l3,3l1.4,2.1l1,0.9l2,2.1l3.4,2.6l2.7,1.7l2.4,1.7l0.8,0.1L136,248.8z"/>
<path class="st0" d="M41.8,15.4l2,4.3l28.3,59.6l-6,6.5l-5.6-3.9l-2.1-1.5l-0.9-0.6l-4.4-2.6l-3-4.7l-3-2.6L43,66.1l-3.4-3L34.9,58
	l1.7-3l1.4-5.1l-2.4-6l-1-1.7l-1-0.9l-3.7-4.7l-0.3-0.9l-0.7-1.3l0.7-6.4l-0.3-4.3L28.6,22l-3.4-6L15.4,4.9L13,2.3l-2-2.1h1.4l6.1,3
	l2.7,4.3l0.7,1.7l3.7,0.6l4,0.7l1.5,1.3l7,6L41.8,15.4z"/>
<path class="st0" d="M48.8,78l-3.7,1.3l-5.4,0.9l-5.4,0.9l-4.1,0.7l-3,0.5l-4.7,6.4l-2.4,2.6l-2.4,2.6l-3,1.7l-3,1.7L8,97.7l-2-2.1
	l-1.7-2.1l-2.4-2.6l-1.4-2.1l4.1-5.1l-0.3-6.8l-2.7-9l-0.7-2.6l-0.7-2.1l1.7-1.3l7.3,0.7l8,0.6l3.6-0.1l4.8,0.1h3l3.6,0.9l2.9,1.3
	l6.1,3l3.4,3.3l4.7,3.1l4.1,2.6l4.4,2.6l-4.4-0.9L48.8,78z"/>
<path class="st0" d="M79.6,96.8l-4.7,4.3l-0.7,0.9l-1,1.7l-4.1,1.7l-3-1.3h-2.4L63,105l3,6.8l-0.7,0.9l-2.4,5.1l-0.7,2.1l-3.4,3.8
	l-3.7,3.4l-3.7-2.6l-8.1-4.3l-3.4-2.6l-4.7-6l-2.4-2.1l-2.7-2.1l-1.4-1.7l-3-2.6l-2-1.7l-3.4-2.1l-3-2.1l-2.7-1.7l3-1.7l2.4-2.6
	l2.4-2.6l4.7-6.4l3-0.5l4.1-0.7l5.1-0.8l5.7-0.9l3.7-1.3l4.4,0.9l4.4,0.9l0.9,0.6l2.1,1.5l7.2,5l3.2,2.2l3.2,2.2l0.6,0.4l1.4,0.9
	l5.1,3.8L79.6,96.8z"/>
<path class="st0" d="M193.9,108.1l16.5,24l13.2,30.7l5.8,12.2l-2,0.6l-9.1,5.6l-5.4,3.4l-7.1,4.3l-4.7,2.6l-2,1.7l-3.7,2.1l-2.4,1.3
	l-2.7,1.7l-2.7,2.1l-3.4,1.7l-10.5,6.1l-14.5,8.4l-3.4,2.6l-3.7-5.1l-1.1,0.7l-2.3,1.5l-5.1,3.8l-4.1,2.6l-2,1.7l-3,2.6l0.7,2.6
	l-1,0.4l-3.4-8.5l-2.7-6.4l-3.1-8.6l-0.5-1.7l-0.1-1.3l0.1-3.5l0.4-1.9l1.2-4.4l1-2.4l1.7-3.6l0.9-1.2l4.3-5.9l1.3-2.2l0.9-1.9
	l0.5-1.9l0.4-1.5l0.2-1.3v-1l-2.3-7.5l-2-4.3l-10.5-17.9l-7.8-16.6l-2.7-3.8l-4.1-5.5l2-1.7l3-1.3l3,0.4l-2.9-0.5L163.9,65
	l16.7,22.3L183,86l2.4,3.4l-2,1.7l6.4,9L193.9,108.1z"/>
<path class="st0" d="M196,277.5l-4.8,1.5l-7.5-3.3l-0.6,0.4l-1.4,0.9l-7.1,9.8l-3,2.1l-2.4,0.9l-0.3-1.7l1.7-0.9l-2.4-7.7l-1.2-0.6
	l-0.5-4.2l-1.3,1h-1.1h-0.6l-1.3-6.4l-0.1-0.4l-2-3.4l-2.4-3.4h1.4h1.7l2.4,2.1l2.6-3.1l3.5-1.8l20.8,8l7.1,5.6L196,277.5z"/>
<path class="st0" d="M124.8,213.8l-3,1.3l-6.4,1.7l-1.7,0.7l-1.3,0.6l-3.7,0.9l-3.7,1.3l-1.7-3l-1-2.1l-2.4-4.7l-2-3.8l-1.7-3
	l-2.4-6.8l-3-12l-1-3l-1-3l-4.7-17.1l-1.4-2.1l-2.4-2.6l-2-2.6l3-1.7l4.1,3.4l8.1,1.3l1.9,0.5l3.2,0.8l6.1,5.5l4.7,3.4l2.7,5.1
	l0.7,3.8l3.5,5.4l2.9,4.4l1.7,1.7l1,1.3l1.7,3l2.4,1.3l-1.2,4.4l-0.4,1.9l-0.1,3.5l0.1,1.3l0.5,1.7l2.4,6.4L124.8,213.8z"/>
<g id="labels-layer">
</g>
<g id="lines-layer">
</g>
<g id="region-groups-layer">
</g>
<circle class="st1" cx="72.8" cy="98.3" r="8"/>
<circle class="st2" cx="47.9" cy="17.3" r="1.6"/>
<circle class="st2" cx="87.4" cy="170.6" r="1.6"/>
<circle class="st3" cx="211" cy="194.4" r="8"/>
<circle class="st1" cx="120.4" cy="154.2" r="8"/>
<circle class="st2" cx="77.1" cy="140.9" r="1.6"/>
<circle class="st2" cx="117.1" cy="138.4" r="1.6"/>
<circle class="st2" cx="117.1" cy="138.4" r="1.6"/>
<g>
	<rect x="265.4" y="80.7" class="st4" width="45.7" height="35.9"/>
	<g>
		<path class="st5" d="M183.9,20.7"/>
	</g>
</g>
<g>
	<g>
		<g>
			<path class="st6" d="M208.3,185.3c-18.7-18.3-38.8-35-60.1-50.1c-10.7-7.5-21.6-14.7-32.8-21.4c-5.6-3.3-11.3-6.6-17-9.7
				c-2.9-1.5-5.7-3.1-8.6-4.6l-1.2-0.6l2.1-4l-7.6,2.4l2.4,7.5l2.1-4l1.2,0.6c2.9,1.5,5.7,3.1,8.6,4.6c5.7,3.1,11.4,6.3,16.9,9.7
				c11.2,6.7,22.1,13.8,32.7,21.3c21.2,15,41.2,31.7,59.8,49.9L208.3,185.3z"/>
		</g>
	</g>
</g>
<g>
	<g>
		<g>
			<path class="st6" d="M201.4,193.2c-5.9-3.4-12.3-5.9-18.8-8s-13-3.8-19.4-5.8s-12.7-4.3-18.6-7.4c-2.9-1.5-5.8-3.3-8.4-5.3
				c-0.7-0.5-1.3-1-1.9-1.5c-0.6-0.5-1.3-1.1-1.9-1.6l-0.7-0.6l3.1-3.2c-1.2,0.1-2.5,0.1-3.8,0.1s-2.6-0.1-3.9-0.2
				c-0.1,1.3-0.2,2.6-0.2,4c0,1.3,0,2.8,0.1,4.1l3.1-3.2l0.7,0.7c0.6,0.6,1.3,1.2,1.9,1.7c0.7,0.6,1.3,1.1,2,1.6
				c2.7,2.1,5.7,3.9,8.7,5.5c6.1,3.2,12.5,5.5,19,7.5s13,3.7,19.4,5.8c6.4,2.1,12.6,4.5,18.4,7.8L201.4,193.2z"/>
		</g>
	</g>
</g>
</svg>
