<?xml version="1.0" encoding="utf-8"?>
<!-- Generator: Adobe Illustrator 26.2.1, SVG Export Plug-In . SVG Version: 6.00 Build 0)  -->
<svg version="1.1" id="Layer_1" xmlns="http://www.w3.org/2000/svg" xmlns:xlink="http://www.w3.org/1999/xlink" x="0px" y="0px"
	 viewBox="0 0 775.1 795.2" style="enable-background:new 0 0 775.1 795.2;" xml:space="preserve">
<style type="text/css">
	.st0{fill:#E8F0EC;stroke:#7B6F6F;stroke-width:0.4036;}
	.st1{fill-opacity:0.5;stroke:#000000;stroke-width:1.6146;stroke-opacity:0;}
	.st2{fill:#008BD1;fill-opacity:0.5;}
</style>
<g id="globe-layer">
</g>
<g id="graticule-layer">
</g>
<g id="regions-layer">
	<path class="st0" d="M424,225.5l57.1-32.5l11.1,21.7l-30.9,17.4l2.7,19.2l0.3,4.7l-2.9,0.8l-5-4.2l-2.3,1.2l-11.5-17.5l-7.9,5.8
		l5.9,8.6l4.4,7.9l6.8,12.2l-0.7,0.9l-0.3,0.9l-0.7,1.3l-6.4,8.5l-4.4-3l-2.7-2.1l-7.4-4.7l-3-2.1l-4-3.4l-0.7-0.9l-2-0.9l-3.5-3.4
		l-9.3-9l-4.4-6.4l-1-1.7l-3.7-7.3l-2-4.7l4.5-2.2l1.6-0.8l4.4-7.3l6.1-0.4l2.4-0.4l3.4,0.9h1.7L424,225.5z"/>
	<path class="st0" d="M461.4,232.1l54.1-30.5l6.8,1.3l5.4,1.3l2,5.1l0.3,1.7l1.4,6.4l-0.7,2.1l-1.2,1.9l-7.7-2.6l-47.4,24.8
		l3.5,16.7l-0.6,15.3l-24.8-5.8l-0.8,1.1l-6.8-12.4l11.4-5.8l5,4.2l2.9-0.8l-0.3-4.7L461.4,232.1z"/>
	<path class="st0" d="M374.4,153.7l5,1.2l2.5,0.6l1.9,0.2l2.7,0.4l2.2,0.1l1.4-0.1l1.5-0.3l5.1-2.1l1.4-0.4l1.5-0.7l0.7-0.7l0.5-1
		l0.8-2.4l0.3-2.1l1.7-8.1l0.8-2.1l0.9-2.2l0.3-0.5l0.8-0.7l2.3-0.9l8.1-2.1l2-1.3l2.4-1.3l2.8-3.4l-14.6-23.2l2.8-9.7l19.3,23.6
		l0.7,0.4l1.3,1.3l3,3.8l1,1.5l1.2,1.6l2.7,4.3l-0.1,0.3l-0.6,1.8l3.8,5.4l-18.5,34v-0.4l-6-5.1l-3.7-1.2l-10.9,1.8l-12.7,6.3
		l-10.4-2.8l-3.5-4.6l-4.2-8.3L374.4,153.7z"/>
	<path class="st0" d="M382.6,167.5l10.4,2.8l12.7-6.3l10.9-1.8l3.7,1.2l5.9,5.1v0.4l-3.3,14.2l-1,6.4l-0.4,5.8l-0.2,5.3l2.4,8.5
		l-4.3,13.5l-1.7-3.4l-6.6-12l-1.2-2.1l-7.4-8.1l-6.4-9.4l-1.3-2.1l-2.7-5.1l-1.9-3L382.6,167.5z"/>
	<path class="st0" d="M199.6,200.6l0.5,1.8l-6.2,1.6h-1.7l-1,0.9l-0.7-2.6l-1-3l-2-7.7l-0.7-2.1l-1.7-7.3l-1.3-6l-0.7-3l-1-3.4
		l-1-3.8l-1-2.6l-0.3-1.7l-0.3-2.6l-1-4.3l-1.3-4.7l-0.7-1.3l9.5-3l0.5,1.9l0.3,1.5l0.7,2.9l0.4,1.5l0.8,3.3l0.3,1.3l0.5,1.9
		l0.2,0.8l0.6,2.5l0.5,1.7l0.6,2.2l0.9,3.8l0.8,3.1l1,3.8l0.6,2.1l0.5,2.1l1.3,4.7l0.7,2.6l0.9,3.4l0.5,2.1l0.3,1.3l0.4,1.8
		L199.6,200.6z"/>
	<path class="st0" d="M216.5,173.7v1.7l-3,2.1l-2.7,1.3l-7.1,4.3l-7.4,3.8l-1.3-4.7l-0.5-2.1l-0.6-2.1l-1-3.8l-0.8-3.1l-0.9-3.8
		l-0.6-2.2l-0.5-1.7l-0.6-2.5l-0.2-0.8l-0.5-1.9l-0.3-1.3l-0.8-3.3l-0.4-1.5l-0.7-2.9l-0.3-1.5l7.6-2.3l1,1.7l0.7,3.8v1.3l3-0.9
		l0.3,2.1l0.5,2l0.9,3.6l0.3,1.7l1.7-0.4l6.1-1.3l6.1-0.8v1.7l1,4.7l0.3,3.8l0.3,1.7l0.2,2.4L216.5,173.7z"/>
	<path class="st0" d="M242.9,198.9l2,3h-1l-1.7,0.4l-6.1,1.3l-7.4,1.3l-5.7,1.7l-2.4,0.4l0.5-2l-2.2-0.1l-2.3-29.5v-1.7l-0.1-1
		l-0.2-2.4l-0.3-1.7l-0.3-3.8l-1-4.7v-1.7l0.3-0.1l3.7-0.8l0.7,2.1l0.3,3.8l0.3,1.3l1.7-0.4l7.4-1.3l3-0.4l3.4-0.4h1l0.3,2.6
		l0.7,3.8l0.7,3.4l0.3,3.8l0.7,3l0.3,3l0.3,2.6l1,3.4l0.3,3.4l1,3.4L242.9,198.9z"/>
	<path class="st0" d="M419.3,375.6l-1,1.7l-0.7,2.6v1.7l-1,1.7l-1,3.8l3.4,1.3l3.7,2.1l-2.4,3.8l-6.4-2.1l-0.3,0.9l-0.7,2.6
		l-0.7,2.6l-1,3l-1,2.6l-0.7,3l-1,2.1l-0.7,3l-0.3,0.9l-0.7,2.1l-0.3,1.3l-1,2.6v0.9l-1,2.1l-0.3,2.6l-0.3,1.3l-1,2.1l-1.3,4.7
		l-3-1.3l-2.7-1.3h-1h-3l-4.1-0.4l2.7-3.4l2.4-3.4l2-2.6l-2.7-1.7l5.1-6.8l-2.4-2.1l2.4-3.4l4.4-5.6l1.4-3.8l1.6-6.5l-5.1-1.7
		l0.7-0.9l1.4-3.8l1.9,0.5l1.1,0.3l3.7-11.5l-2-2.6l0.3-2.2l0.1-0.4l0.4-1.2l0.9,0.3l7.4,2.1l5.2,1.9l-0.4,1.9l-0.3,0.4L419.3,375.6
		z"/>
	<path class="st0" d="M350.8,384.5l-1,0.4l-3.4,1.7l-3,2.6l-0.7,0.9l-2.4,2.1l-2,1.7l-1.4,0.9l-0.3,0.9l-2.7,2.1l-1,0.9l-2.4,2.1
		l-0.7,0.9l-1.3,1.7h-1l-1,1.3l-1.7,1.7l-2,2.1l-3.7-1.7l3-3l-4.4-4.7l-2.7-3.4l-3.7-3.4l-2.7-3l-3-3.4l-2.7-3l-3.1-3.4l-2.7-3.4
		l3-2.6l3-3l3-3l3.4,3.4l3,3.8l3,3l3.4-2.1l3.7-3l3.4-2.6l3-2.6l3.7-3l3-2.1l2.7,3l2,2.6l3.4,3.4l3,3.8l3,2.6l4.7,5.1h-1l-2,1.3
		L350.8,384.5z"/>
	<path class="st0" d="M207.3,351.8l0.1,0.6l-0.6,0.3l-0.7,0.5l-0.5,0.3l-0.5,0.6l-1,3l-3.7-2.1l-4.3-2.1l-0.3,0.8l-0.7,1.3l-0.3,3
		l-0.6,2.2l-0.1,0.4l-1,3.8l-0.7,2.6l2,0.4l3.4,2.1l4.1,2.1l-3,6l-1.2,2.5l-1.2-1.1l-6.7-0.6l-8.5-0.9l-3.1-0.5l0.3-3.2l-2.3-0.6
		l-3.8,9.8l-2.6-1.6l0.9-4.9l-1.8-0.3l-1.9,5.7l-2,2.4l-1.5-2.4l-1.9,0.7l0.2,2.6l-7.9,2.1l-32.4-0.4l-22.3-4.7l-23-6.1l-27.3-7.2
		l-15.9-9l1.4-2.1l1.3-0.2l3.1-0.6l10.1-0.4l5.4-14.1l1-5.6l0.7-4.3l-7.1-2.1l-1.2-0.3l-3-1l-4.4,3.1l-10.1,7.2l-16,6.7l-8.8,3.4
		l-5.1-7.7L27.7,318h2.7h3l15.5,0.9l15.2,1.3l10.1,0.9l14.9,1.7l10.1,1.3l6.1-0.8l1.8,0.5l16.1,20.6l5.9,5.3l6.5,3l7.5,1.8l7.6,0.7
		l2,0.1l2.7-0.3l2.2-0.7l1.8-9.2l0.3-1.7l1.4-4.2h0.7l3.4,1.3h2l2.4,0.9l-2.7-4.7l-1.2-1.3l1.1-0.1l1.3,0.4l-0.7-0.7l-0.8-1.5
		l-0.5-1l-0.5-5.3l5,1.2l2.1,0.5l2.4,1.3l4.1,0.9l3.4,0.9l4,1.3l3.7,0.9l3,0.9l3.7,1.3l3.4,0.9l0.8,0.1l1.9,0.1l0.7-0.7l3,1.7l2,0.9
		l1.7,0.9l-2.5,5.4l-0.5,2.3l-0.3,2.2L207.3,351.8z"/>
	<path class="st0" d="M316.5,320l-3.7,3l-1.7,1.3l-1.4,1.3l-2,0.4l-1.7-1.7l-2.4,1.7l-8.4,4.3l-7.8,0.4l-1-2.6l-0.7-4.3l0.7-2.1
		l-4.1-0.4l-4-0.9l-2.7-1.7l-1-0.9l-2.4-3l-1-0.9l-0.7-2.6l-0.1-1l-0.2-2l4.7-2.1l2.4-3l9.5-7.7l10.1-7.3l0.4-0.3l1.7-1.4l1,1.7
		l0.2,0.3l1.2,1.9l3.6,7.9l0.3,1l2.1,9l0.4,1l1.4,1.7l3.7,4.3l5.7,5.5L316.5,320z"/>
	<path class="st0" d="M490.3,421.2l-1.3,0.9l-1.7,0.9l-4.1,2.6l-3,1.7l-2.4,1.7l-2.4,1.3l-3.4,2.1l-2.4,1.7l-3,2.1l-3,1.7l-3.7-4.3
		l-0.8-1l-1.2-1.5l-2.6-2.9l-2.4-2.7l-4.1-4.3l-2.1-2.5l-1.1-1.4l-2.1-2.5l1.4-1.7l4.1-3l3.7-2.6l2.7-2.1l2.7-1.7l1-0.9l1.3-1.3
		l1-0.9l1.7-0.9l2.4-2.1l1.3-0.9l5.3,6.5l4.5,5.5l1.9,1.8l3.3,3.6l0.7,0.5l1.9,1.8l1.7,1l1.3,0.8l4.1,2.1L490.3,421.2z"/>
	<path class="st0" d="M577.4,535.4l-5.4,3.4l-6.4,3.8l-5.7,3.8l-5.7,3.4l-7.1,3.8l-3.4-1.7l-4.1-2.6l-3-2.1l-2.7-1.3l-2-1.3
		l-0.8-0.6l-1.6-1.1l-0.7-0.4l-1.9-1l-2.5-1.5l-3.3-1.8l8.5-7.3l2.7-2.1l3-2.6l1.4-1.3l2-1.3l2.7-2.1l2.7-2.1l1.7-1.7l1.7-1.3l1-0.9
		l2-1.7l2.4-2.1l2.4-1.7l5.4,3.4l1.4,2.1l2,2.6l2,2.1l1.7,2.1l2,2.6l1,1.3l2.7,3l2,3L577.4,535.4z"/>
	<path class="st0" d="M555.1,510.2l-2.4,1.7l-2.4,2.1l-2,1.7l-1,0.9l-1.7,1.3l-1.7,1.7l-6.8-9l-1.7-1.7l-1.4-2.1l-9.8,8.1l-10.1,8.1
		l1,1.3l-7.1,6.4l-3-2.1l-3-2.1l-1.7-0.9l-1.4-0.9l-2-1.3l-1-0.4l-3-1.7l1-1.3l2.7-2.1l4.4-3.4l3.4-3l1.4-1.3l0.3-0.3l2.7-2.3
		l2.5-2.1l3.6-3l-1.7-2.1l-2-2.1l-1-0.9l-1.4-1.7l-2-2.6l-2.4-2.1l-3.6-4l0.7-4.3l2.2,0.5l7.2,1.8l3.7,0.9l3.7,0.4l4.4,1.3l4.4,0.9
		h3l9.1,2.1l7.4,0.9l3.7,0.9l3.7,0.4l4.7,0.4l13.5,3l-4.7,3.4l-7.4,6.8l-3.4,2.6l-0.7,0.4L555.1,510.2z"/>
	<path class="st0" d="M444.6,413.1l-1.4,1.7l-3,1.7l-2.4,2.1l-2.4,1.7l-1.7,0.9l-2,1.7l-1,0.9l-2.4-3.4l-3-3l-1.4-1.7l0.3-2.1
		l-1-0.4l1.4-2.6l2.4,1.3l2.4-2.6l3-1.7l5.7-2.6l2,2.6l2,3L444.6,413.1z"/>
	<path class="st0" d="M360.3,364l-1.7,2.1l-0.7,0.9l-1.7,2.6l-2,3.4l-1.7,2.1l-2.4,2.6l-3-2.6l-3-3.8l-3.4-3.4l-2-2.6l9.8-8.5
		l0.7-0.4l4.7-2.6l4.7,1.7l2,1.3l3.4,3.4l-3,3L360.3,364z"/>
	<path class="st0" d="M548,646.4l-0.6,1.2l-1.9,4l-1.2,2.4l-4.8,9.9l-0.3,0.6l-1.3,2.6l-1,2.1l-0.2,0.4l-3,6.1l-1.5,3.1l-14.9-20.9
		l-1-1.3l-0.3-1.3l-0.7-0.9l-1-1.3l-15.5-22.2l-1.8-2.5l3-3.4l1.7,0.4l1.4,0.4l5.4,1.7l10.1,3.8l6.4-17.5l15.6,17.1l1.7,2.1l0.3,0.4
		l2,1.7l1.7,2.1l0.7,0.9l1.4,3.4v0.5L548,646.4z"/>
	<path class="st0" d="M272.9,139.2l-0.7,4.3l-1,3.8l-0.3,3.4l-0.3,2.6v3l-0.3,3l-0.3,3v3.4l-0.7,3l-0.3,3.8v1.3v3.8l-0.5,2.7
		l-0.5,2.8v1.3l-0.3,1.3l-3.4,2.1l-1.1,0.8l-2,2.1l-1.9,2.6l-2,3l-1.7,4.3l-2.7,12l-2.7-3.8l-2-3l-3-3.8l-2-3l-0.7-4.3l-1-3.4
		l-0.3-3.4l-1-3.4l-0.3-2.6l-0.3-3l-0.7-3l-0.3-3.8l-0.7-3.4l-0.7-3.8l-0.3-2.6l6.7-1.7v-1.3l-1.7-3.4v-1.7l1.7-0.9h2.4l-0.3-1.7
		l-0.7-3.4l-0.3-2.1l-0.3-2.6l-0.3-2.6l3.4-0.9h3l3-0.9l14.5-1.7l5.1-0.4L272.9,139.2z"/>
	<path class="st0" d="M558.8,384.3l0.9-0.6l1.7-4.7l0.6-1.8l2.4-0.6l1.3-0.3l2.4,4.3l3.7,1.7l1.2-1.7l1.8-2.5l30.1,26.9l32.7,12.4
		l2.9,4.8l8.2,5.5l9.7,5.3h8.2l7,6.8l6.9-6l-50.9,47.1l-3,1.3l-2,1.7l-4.1-4.7l-5.3-4l-0.4-0.3l-9.5-5.5l-0.3-0.2l-6.8-4.1l-5.1-3.8
		l-1.4-0.9l-0.6-0.4l-3.2-2.2l-3.2-2.2l-1.6-1.1l6-6.5l-28.3-59.6L558.8,384.3z"/>
	<path class="st0" d="M606.5,550.7l1,3l3.2,12l2.4,6.8l1.7,3l2,3.8l-1.7,0.9h-0.7l-1.3,0.9l-3,1.7l-4.4,3l-3.4-6.4l-3.4-6.4l-4-6.3
		l-1.9-4.3h-0.3l-1.4-2.6l-1.7-3.2l-1.7-2.8l-1.4-2.6l-1.5-2.6l-1.9-3.3l-1.8-3.2l-1.9-3.2l-2.4-3.4l4.7-3l1.4-0.9l4.2-2.6l2-1.3
		l2-2.1l3.7-2.1l2,2.6l2.4,2.6l1.4,2.1l4.7,17.1L606.5,550.7z"/>
	<path class="st0" d="M650.9,599l1-0.4l-0.7-2.6l3-2.6l2-1.7l4.1-2.6l5.1-3.8l2.3-1.5l1.1-0.7l3.7,5.1l3.4-2.6l14.5-8.4l10.5-6.1
		l3.4-1.7l2.7-2.1l2.7-1.7l2.4-1.3l3.7-2.1l2-1.7l4.7-2.6l7.1-4.3l5.4-3.4l9.1-5.6l2-0.6l7.8,16l8.1,17.9l0.3,4.3l6.8-4.7l5.8,11.9
		l-7.7,33.7l-1.3,9.8l-3,0.9l-3.4,7.7l-3.7-1.3l-7.1,6.8l-6.4,6l-4.1-4.7l1.7,9.8l-3,6.4l1.4,3.4l-3,1.7l-1.4,0.4l-9.5-1.7
		l-12.6-7.7l-2-1.2l0.7-2.1l1-3.4l1-2.2l1.2-1.4l-0.5-0.3l0.4-1.7l-0.3-1.7l-0.3-0.4l-4.8,1.5l4.8-1.5l1.1-4.6L707,636l-20.8-8
		l-3.5,1.8l-2.6,3.1l-2.4-2.1H676h-1.4l-1.4-0.9l-1-0.9l-3-3.4l-1.1-1.5l-3.6-4.9l-2-3.4l-2-3l-1.6-3.8L650.9,599z M683,629.3
		l-0.4,0.7l-0.3,0.8l0.3-0.8L683,629.3z"/>
	<path class="st0" d="M259.4,375.9l-1.7,3l-1.4,3.4l-0.7,0.9l-3.7-2.1l-3.7-2.1l-4-2l-3.7-2.3l-4.5-2l-1.9-1l-1.7-0.9l-4-2.1
		L224,367l0.7-1.3l1.4-3l1.7-3l1.4-3.4l1.4-2.6l1.4-3l4.4,2.1l3.7,2.1l4,1.7l4.1,2.1l3.7,1.7l4,2.6l3.7,1.7l-1.4,2.6l4.1,2.6
		l-1.4,2.6L259.4,375.9z"/>
	<path class="st0" d="M273.2,368.6l2,1.3l-0.3,6.4l-5.1-2.5l-7.8-3.9l-4.1-2.6l1.4-2.6l-3.7-1.7l-4-2.6l-3.7-1.7l-4.1-2.1l1.4-3
		l1.4-3l1.4-3l4,2.1l4.4,2.1l3.7,2.1l3.7,2.1h1l1.7,3l2.4,3.8l1.4,1.3l4.7,2.6l1.4,0.4l1.7,1.3h-2.4L273.2,368.6z"/>
	<path class="st0" d="M412.3,90.8l-2.8,9.7l14.6,23.2l-2.8,3.4l-2.4,1.3l-2,1.3l-8.1,2.1l-2.3,0.9l-0.8,0.7l-0.3,0.5l-0.5,1.1
		L385,117.7l-22.9,13.5l-0.5-5.4l-0.3-4.3l-0.3-3l-0.7-1.7l-9.5,0.9l-3-0.4l-2,0.4h-3.4l-5-0.4l-1.1-0.9l-0.8-0.7l-0.9-0.6l-3-4.3
		l-1.7,0.9l0.3-2.1l-0.1-0.6l-0.6-5.8l2.7-0.9l3.7,1.7l1.3-0.4l2.5-0.8l11.9-5.9l2.2-1.1l1.4-0.7l2-0.4l7.1-3l4.4-4.3l0.9-1l1.4-1.6
		l3.4-3.8l0.3-0.4l10.6-10.4l2.5-2.4l9.1-8.9l4.7,5.1l5.4-1.3l10.8,9.4l-4.7,3l-7.8,9.4l3.7,2.6L412.3,90.8z"/>
	<path class="st0" d="M217.1,269.6l0.6,2h-2.5l-3.7-0.9l-3.4-1.3l-4.1-0.9l-2.7-1.3l-4.1-0.9l-4.1-0.9l-2.7-0.9l-1.4,2.1l-3,3.4
		l-2.4,3.8l-1.7,3l-3.7,6l-2,3.8l-0.3,2.6l-1.3-0.4l-4.4-2.6l-4-2.6l-4.4-2.6l-1.9-1.5l-0.8-0.6l-0.9-0.6l-2.1-1.4l-0.4-0.2
		l-1.9-1.1l4.8-5.1l1.6-1.8l1.3-1.5l0.6-1.2l2-2.8l1.2-1.3l1.2-4.1l1.8-6.3l0.5-3.3v-0.9v-0.8l0.4,0.2l0.3-1.1l0.6-1.5l-1.3-0.8V242
		l0.2-5.1l0.1-3.7l-0.9-1.3l-0.6-1l1.5,0.4l3.7,1.3l4.4,1.3l2,0.6l2.1,0.7l4.4,1.3l2.4,1.3l1.7,0.4l8.4,3l1.4,0.4l3,0.9l1-0.4
		l4.1,1.7l3.4,0.9l0.2,0.8l0.3,1.1l0.4,2.2l0.9,4.1l0.4,1.7l0.6,2.1l1,3.4l0.8,3.3l0.4,1.4l0.5,2.1L217.1,269.6z"/>
	<path class="st0" d="M352.2,349.5l-5.1,1.3l-3.4,0.4l-6.1,0.9l-1.7,0.4l-6.1,2.1l-5.1,1.3l-2.7,0.4l-2,0.9h-1.4l-3,1.3l-4.1,0.4
		l-0.7,0.4l-3.4,0.9l-1.1,0.2l-1.2,0.2l-5.4,1.3l-6.1-3.4l-1.7-0.9v-6l1.4-2.1l3-5.5l6.1-1.7l2.4-3l2.4,0.9l-3.6-1.8l4.1-12.4
		l1.9-0.4l1.3-1.3l1.7-1.3l3.7-3l2,0.9l11,1.9l5.2,1.7l2.7,0.7l1.1,0.6l12.7,7.1l3.7,2.4l3.4,2.3l7.1,6.8l-1.7,1.7l-2.4,2.1
		l-2.7,0.4L352.2,349.5z"/>
	<path class="st0" d="M521,538.4l-4.1,7.3l-5.7,5.1l-6.1,5.1l-5.7,4.7l-6.8,5.1l-2.7-0.9l-3.7-4.7l-4.1-4.3l-6.8-6.8l1-1.3l7.4-8.1
		l3-3l3.4-2.6l1.7-1.3l1.3-1.1l4.1-3.5l3.1-2.7l1.7,0.9l3,2.1l3,2.1l2.4,1.3l2.7,1.7l1.7,0.9l0.9,0.6l1.8,1.1l1,0.8L521,538.4z"/>
	<path class="st0" d="M518.6,631.5l-18.6-6.4l-3,3.4l-2.4-3l-1.7-2.8l-0.6-1l-1.9-2.9l-1.6-2.2l-3.3-5.2l-12.8-17.9l-18.5-26.6
		l-1.3-2.1l-3.4-5.3l-4.6-6.6l-3.1-4.3l-5.1-6.8l-1.7-2.1l4.4-1.7l-4.1-9.4h-8.1l-1.3-1.9l-0.4-0.4l-6.5-11.5l-2.2-3.7l-4.9-8.1
		l-2-4.3l3.4-3.4l3-2.6l3.4-3.4l2,2.6l2.7,3l2.4,2.6l2.4,2.6l1.4,1.3l3,3.4l3,3l2,2.1l2,2.1l2,2.6l2.4,1.7l0.8-0.9l2.7-2.6l2.7-2.1
		l10.1-8.1l3.7,2.1l7.1,4.3l-17.8,15.9l5.2,5.6l-0.7,0.9l16.2,17.9l6.8,6.8l4.1,4.3l3.7,4.7l2.7,0.9l-0.3,12l4.6,5.2l1.4,1.6
		l11.2,12.4l15.6,17.1L518.6,631.5z"/>
	<path class="st0" d="M530.8,681l-18.6-12l-8.8-4.7l-8.7-4.7l-0.7-15l7-10.7l13.2,19.2l1,1.3l0.7,0.9l0.3,1.3l1,1.3l14.9,20.9
		l3.7,4.7L530.8,681z"/>
	<path class="st0" d="M602.6,587.5l-3.4,1.7l-3.7,2.6l-3.7,2.6l-3,1.7l-3.7,2.1l-3.4,2.1l-3.7,2.6l-2-3l-1.7-3.4l-1.7-2.6l-1.7-3
		l-1.8-3.4l-1.7-2.6l-0.5-1.3l-1-1.9l-1.2-2l3.4-2.1l1.7-0.9l2.4-1.3l3.4-2.1l3.4-2.1l2.7-1.7l1.3-0.9l3.4-1.7l1-0.9l3-1.7l1.4-0.9
		l1.3-1.3l2,4.3l3.9,6.4l3.4,6.4l3.4,6.4L602.6,587.5z"/>
	<path class="st0" d="M528,369.2l22.5-22.3l3.4,2.6l3-3l4.4,2.1l-1.4,3.8l10.7,6.6l2.4,1.5l3.4,2.1l-1.4,5.1l-0.3,10.2l-1.8,2.6
		l-1.2,1.7l-3.7-1.7l-2.4-4.3l-1.3,0.3l-2.4,0.6l-0.6,1.8l-1.7,4.7l-4.7,3l-7-6l-1.5-1.3l-4-0.7l-3.7-0.6l-0.7-1.7l-2.7-4.3l-6.1-3
		L528,369.2z"/>
	<path class="st0" d="M406.5,305.8l-2,3.4l-1.8,1.9l-1.9,2l-1.2,1.3l-3.9,4.3l-3.4,2.1l-2,1.7l-8.4,6l-8.8,3l0.3-3l3.4-6.8l-0.7-0.4
		l-1.7-2.1l-4.4,0.9h-1.3l-1.4,0.4l-5-5.9l-2,1.7l-1.7-2.6l-0.7-1.7l-0.7-3l-2-4.2l-2.1-1.3l-0.3,3.8l-4-2.1l-3.4-2.1l1-1.3l2.4-2.6
		l0.7-0.9l3,1.7l13.8,0.9l3.4,0.4l1,1.3l-0.9-1.3l-2.7-6.8l3-1.3l9.1,2.6l13.4,3.8l7.4,2.1l1.4,0.4l4.7,1.3l4.1,1.3L406.5,305.8z"/>
	<path class="st0" d="M464.2,382l-2,2.1l-2.4,2.1l-1.5,1.8l-5-4l-4.3-2.7l-1.5-1l-2-1.4l-3.4-1.3l-10.8-3.4l-6.4-1.7l-2.7-0.9
		l-1.9-0.6l0.6-1.9l0.3-0.9l0.3-1.7l1.7-4.7h1.4l2.4,0.9l3,1.3l4.1,1.3l3.4,1.3l3.4,0.9l3.4,1.3l3.7,1.3l2.7-0.9l10.1,5.1l5.4,6
		L464.2,382z"/>
	<path class="st0" d="M263.8,320.4l-1,3.8l-0.3,6.4l-4.1-4.7l-3.4,6.8l-1.7,4.7l-3,6l-2.4,4.3l-1.4,3l-1.4,3l-1.4,3l-4-1.7l-3.7-2.1
		l-4.4-2.1l-1.4,3l-4.1-2.1l-4-2.1l-3.7-1.7l1.4-3l1.7-3l1.4-2.6l1.4-3.4l4.1,1.7l1-2.6l1.7-3l1-1.7l0.7-0.9l6.4,1.7l1-3.4v-2.1
		l0.3-0.9l0.7-3l0.3-2.6l0.7-3l0.7-2.1v-1.3l0.7-2.6l3.7,1.3l3.4,0.4l4.1,1.3l3.7,0.9h3.7h3.7l-0.7,1.7l-0.3,0.9L263.8,320.4z"/>
	<path class="st0" d="M627.6,622.9l1.4,3.4l-5.7,1.3l-4.4,2.1h-0.3l-5.1,1.7l-1.4,0.4l-5.1,2.6l-7.8,4.3l-3.7-6.4l-0.7-1.3l-1-1.3
		l-1.5-1.9l-1.5-3.2l-1.5-2.7l-0.9-1.6l3.4-1.3l1-0.4l4.7-1.3l7.8-3l8.5-2.6l-1-3l5.1-2.1l1.2,2l3.9,6.5l1.7,2.6l1.4,3L627.6,622.9z
		"/>
	<path class="st0" d="M321.1,411.8l-1.7,1.3l-5.4-1.7l-5.7-2.6l-2-0.9l-3-2.6l-4.7-2.6l-4.1-1.3l-4.4-2.1l-1.7-1.3l-1.4-1.3l-2.7-3
		l-0.8-0.8l-2.3-2.6l3.4-3l3-3l3.4-3l2.7-2.6l3.4-3l2.7,3.4l3,3.4l2.7,3l3,3.4l2.7,3l3.7,3.4l2.7,3.4l4.4,4.7l-3,3l3.7,1.7l-0.7,1.7
		L321.1,411.8z"/>
	<path class="st0" d="M591.5,525.5l-2,2.1l-2,1.3l-4.1,2.6l-1.3,0.9l-4.7,3l-2-3l-2-3l-2.7-3l-1-1.3l-2-2.6l-1.7-2.1l-2-2.1l-2-2.6
		l-1.4-2.1l-5.4-3.4l1-0.9l0.7-0.4l3.4-2.6l7.4-6.8l4.7-3.4l2.4,1.7l2,1.7l0.3,0.4l2.7,2.6l2,2.1l2.7,2.1l2,2.6l2,3l2,3l1,1.7
		l0.3,0.6l3.4,5.8L591.5,525.5z"/>
	<path class="st0" d="M630,499l-3,1.3l-2.7,0.9l-2.7-4.7l-2,4.3l0.7,5.6l-7.4-0.8l5.7,3.8l-1.5,0.9l-2.2,1.3l-4.4-1.3l-2,2.1l1.4,3
		l-1.3,0.4l-4.4,2.6l-3.7,2.1l-2,1.3l-3,1.7l-3.4-5.8l-0.3-0.6l-1-1.7l-2-3l-2-3l-2-2.6l-2.7-2.1l-2-2.1l-2.7-2.6l-0.3-0.4l-2-1.7
		l-2.4-1.7l3.7-3.4l3.4-3.8l0.7-2.1l2.4-5.1l0.7-0.9l-3-6.8l0.7-0.9h2.4l3,1.3l4.1-1.7l1-1.7l0.7-0.9l4.7-4.3l1.7-0.4l6.8,4.1
		l0.3,0.2l9.5,5.5l0.4,0.3l5.3,4l2.4,7.3l2.4,1.7l1.7,2.1l4.1,7.7L630,499z"/>
	<path class="st0" d="M576.1,599.9l2,3l-6.1,3l-2.4,1.7l-3.4,2.1l-3,1.7l-3,1.7l-2.7,1.7l-1.4,0.9l-3,3l-2,2.1l-3.4,3.4l-1,1.3
		l-0.7,0.4l-1,0.9l-2,2.1l-2.4,2.1L525,613.9l-15.6-17.1l1-1.3l4.7-3.8l14.5,15.4l0.7-0.9l8.8-5.1l1.7-0.8l2.7-1.7l2.4-1.3l1-0.4
		l3-1.7l2.7-1.7l3-1.7l5.7-3.4l5.7-3.4l1.7,2.6l2,3.4l1.7,3l1.7,2.6L576.1,599.9z"/>
	<path class="st0" d="M488.1,476.8l3.7,3.4l-8.8,0.4h-3.7h-4.1h-3.7h-3.4h-7.8l2-3.8l1-1.3l1.7-3.4h2.7l-2-8.1l-1.7-5.1l-0.7-3
		l-1.7-1.7l-3-3.4l-2.7-3l1-1.3l1-1.3l1.3-1.7l1.2-1.7l1.2-1.8l1.7-2.1l2,1.3l4.1,5.1l2,2.1l2,2.1l2.7,2.6l3.4,4.7l-2,1.7l-3.4,3
		l2,2.1l1.7,2.1l1,1.3l1,0.9l2.7,3l1.4,2.1L488.1,476.8z"/>
	<path class="st0" d="M486.9,484.9l-2.4,2.1l-1.4,0.4l-0.7,1.7l-2.7,1.7l-0.7,0.9l-1.7,1.3l-1.7,2.6l-2.7,1.7l-0.7,0.9l-1.4,1.3
		l-2,1.3l-3.7,3.8l-3.7-2.1l-2.4-1.7l-1.7-0.9l-3-2.1l7.1-12.8l-1-0.9v-3.4h7.8h3.4h3.7h4.1h3.7l8.8-0.4l-2.7,2.6L486.9,484.9z"/>
	<path class="st0" d="M298.9,146l0.3,4.3l-5.7,9.8l-3.4,5.6l-3.4,4.7l-3,4.7l-1,1.3l-0.7,1.3l-1.3,1.7l-2,0.9l-6.4,3l-1.6,0.9
		l-3.1,1.7l0.3-1.3v-1.3l0.5-2.8l0.5-2.7V174v-1.3l0.3-3.8l0.7-3v-3.4l0.3-3l0.3-3v-3l0.3-2.6l0.3-3.4l1-3.8l0.7-4.3l-0.3-2.1
		l6.4-1.3l3.7-0.9h4l3.7-0.9l3.4-0.4l2-0.4l1.3,9.4l-0.3,1.3l2-0.9L298.9,146z"/>
	<path class="st0" d="M548.7,555.1l-8.1,5.1l-8.1,4.7l-2.7,1.7l-1.4-2.6l-23.7,14.5l-0.7,0.9l-4.7,4.3l-1,0.9l-1.4-1.6l-4.6-5.2
		l0.3-9.8v-2.1l6.8-5.1l5.7-4.7l6.1-5.1l5.7-5.1l4.1-7.3l3.3,1.8l2.5,1.5l1.9,1l0.7,0.4l1.6,1.1l0.8,0.6l2,1.3l2.7,1.3l3,2.1
		l4.1,2.6l3.4,1.7L548.7,555.1z"/>
	<path class="st0" d="M658.4,610.1l-1.7,3l-0.7,1.4l-0.4,0.8l-1,0.4l0.7,0.9l-2.4,1.3l-2.2-0.3l-0.8-0.1l-2.4-1.7l-2.7-1.7l-3.4-2.6
		l-2-2.1l-1-0.9l-1.4-2.1l-3-3l-4.7-3.8l-3.7-3.4l-2-3.8l-1-1.3l-0.7-1.7l3.7-1.3l3.7-0.9l1.3-0.6l1.7-0.7l6.4-1.7l3-1.3l2.3-0.9
		l0.8,2.1l2.7,6.4l3.4,8.5l7.9,10.3L658.4,610.1z"/>
	<path class="st0" d="M492.3,214.7L481.2,193l-27.3-10.5l2.3-0.7l-6-41.1l6.6,1.2l8.4,1.7l1.9,3l6.2,9.8l3.7,4.3l4.7,3.8l5.4,5.1
		l1.7,1.3l5.1,5.1v3.4l-1.7,2.1l1.3,0.7l0.5,0.7l0.5,0.5l0.8,0.3l0.7,0.4l0.4,0.7l0.3,0.5l0.2,0.6l0.1,0.4l0.7,0.3l0.3,0.1l0.3,0.4
		l0.1,0.3v0.6v0.3l7.2,4l0.7,0.9l6.4,6.8l2.5,1.6L492.3,214.7z"/>
	<path class="st0" d="M460.4,480.6l0.1,3.4l1,0.9l-7.1,12.8l-3-1.7l-3-1.7l-2-1.3l-1-0.9l-1.7-0.9l-1.7-1.3l-1.4-0.9l-0.7-0.4
		l-1.3-0.9l-4.1-2.6l-3.4-1.7l-2.7-2.1l-4.4-2.6l-0.7-0.4l1.7-2.1l2.4-2.6l2.4-2.6l2-1.7l2-2.1l5.7-0.4l2.6-0.4l3-4.2l5.4-6.8
		l4.1-5.6l1.3-2.1l2.7,3l3,3.4l1.7,1.7l0.7,3l1.7,5.1l2,8.1H465l-1.7,3.4l-1,1.3L460.4,480.6z"/>
	<path class="st0" d="M568.5,493.5l3.7,2.6l-13.5-3l-4.7-0.4l-3.7-0.4l-3.7-0.9l-7.4-0.9l-9.1-2.1h-3l-4.4-0.9l-4.4-1.3l-3.7-0.4
		l-3.7-0.9l-7.1-1.7l-2.4-0.4l-2.7-0.9l-6.8-1.7l2-1.7l1.3-0.9l1-1.3l1-0.9l1.4-1.3l1.7-1.3l1.7-2.1l2.4-1.7l3.4-3l2.7-2.1l2.4-2.1
		l1-0.9l1.4-0.9l2.4-2.6l1.4,2.1l2.4,2.6l1.7,2.1l2,2.1l3.7-0.4l3-1.7l2.7,1.7l3,2.1l3.4,2.1l2,1.7l3,2.6l1.4,1.7l2.7,2.1l2.4,2.1
		l4.7,6l3.4,2.6L568.5,493.5z"/>
	<path class="st0" d="M424.1,478.9l-4.7,4.3l-1.4,1.1l-1,0.6l-0.7,0.4l-1,0.9l-3.7,3.4l-2.4,1.7l-2.3,1.7l-0.4-0.6l-0.4-0.7l-2.3-3
		l-1.9-2.2l-1.9-1.2l-15.9-7l0.4-1.1l1.9-6.4l0.7-1.3l0.4-1.7l0.3-0.9l1.7-4.3l1.4-3.8l4.4,2.6l2.4,1.3l0.7,0.4l3,2.1l2.4,1.3l1,0.9
		l3,1.7l3,1.7l3.4,2.1l3,1.7l3,2.1l1.4,0.9l1.7,0.9L424.1,478.9z"/>
	<path class="st0" d="M218.9,204.9l-7.4-1.2l-1-0.2l-0.7-0.2l-1.6-0.3l-2.7,0.7l-1.5,0.4l-1.1,0.3l-2.2,0.6l-0.4-2l-0.1-0.5
		l-0.5-1.8l-0.6-2.5l-0.4-1.8l-0.3-1.3l-0.5-2.1l-0.9-3.4l-0.7-2.6l7.4-3.8l7.1-4.3l2.7-1.3l3-2.1L218.9,204.9z"/>
	<path class="st0" d="M425.7,333.7l0.3,1.8l0.3,2.7l-1.3,2.3l-1.5,2.8l-1.5,4.1l-3.5,7.3l-0.9,1.8v3l2,0.4l3.7,1.7l-1.7,4.7
		l-0.3,1.7l-0.3,0.9l-0.6,1.9l-5.2-1.9l-7.4-2.1l-0.9-0.3l-7.1-1.9l-3.7-1.2l-3.2-0.7l-6.6-1.4l-5.7-1.7l-1.3-0.9l-6.8-7.2l2-1.3
		l1.3-1.7l4.4-3.8l0.7-1.3l6.8-3.4l2.7-1.7l1-0.9l2.7-1.3l-2-4.7l5.1-2.1l1-0.9l-5.7-7.7l3.4-2.1l3.9-4.3l1.2-1.3l1.9-2l1.8-1.9
		l2-3.4l3.7-1.3l8,2.3l3.9,1.1l4.7,0.4l0.7-0.9l3,1.7l1.4,1.3l-2,2.6l-2.5,3.9l-0.5,0.8l-0.9,3.2l-0.7,5.9l-0.1,4l0.1,1.3
		L425.7,333.7z"/>
	<path class="st0" d="M600.2,520.4l3.7-2.1l4.4-2.6l1.4-0.4l-1.4-3l2-2.1l4.4,1.3l2.2-1.3l1.5-0.9l-5.7-3.8l7.4,0.8l-0.7-5.6l2-4.3
		l2.7,4.7l2.7-0.9l3-1.3l1-0.9l-4.1-7.7l-1.7-2.1l-2.4-1.7l-2.4-7.3l4.1,4.7l4.1,5.5l2.7,3.8l7.8,16.6l10.5,17.9l2,4.3l2.3,7.5v1
		l-0.2,1.3l-0.4,1.5l-0.5,1.9l-0.9,1.9l-1.3,2.2l-4.3,5.9l-0.9,1.2l-1.7,3.6l-1,2.4l-2.4-1.3l-1.7-3l-1-1.3l-1.7-1.7l-2.9-4.4
		l-3.5-5.4l-0.7-3.8l-2.7-5.1l-4.7-3.4l-6.1-5.5l-3.2-0.8l-1.9-0.5l-8.1-1.3l-4.1-3.4L600.2,520.4z"/>
	<path class="st0" d="M314,312.1l-0.9,1.5l-0.3,1.7l-3.7-4.3l-1.4-1.7l-0.4-1l-2-8.7l-0.2-0.4l-0.3-1l-3.6-7.9l-1.2-1.9l-0.2-0.3
		l-1-1.7l-4.4-7.7l-0.9-0.7l-1.1-1l-0.7-0.4l1-0.4l1-0.4l2.4-2.6l7.4-3.8l5.4-1.7l3.8-1.1l3.3,2.8l6.2,6.9l2.7,1.7l2,1.7l-1,2.1v2.1
		l-0.7,1.7l-1.9,6.1l-0.3,1.1l-1,1.3l-0.3,1.3l-1.7,4.7l-0.3,0.9L314,312.1z"/>
	<path class="st0" d="M447,429.4l-2.7,2.1l-2.7,2.6l-7.4,7.3l-7.4,6.4l-2.7,2.6l-2.7,2.6l-2.3-2.6l-0.8-0.9l-1-1.3l-2.7-2.6l-1-3.4
		l-0.3-3l1.3-1.7l1.4-1.7l3-3l2-1.7l4.1-3.4l2-0.9l0.7-0.9l1.3-0.9l1.7-1.3l1-0.9l2-1.7l1.7-0.9l2.4-1.7l2.4-2.1l3-1.7l2.1,2.5
		l1.1,1.4l2.1,2.5l4.1,4.3l-2.7,1.7L447,429.4z"/>
	<path class="st0" d="M390.9,458.8l-1.4,3.8l-1.7,4.3l-3-3l-2.7-2.6l-2.7-1.7l-3.7-3l-10.5-10.3l-3-2.6l-1.3-0.9l-2.1-2l-1.3-1
		l-3.4-2.6l3-3.8l3.4,2.6l1.4,1.7l2,1.3l4.4,3.4l3.7,2.6l2.4,1.7l2.7,2.1l5.4-6.8l2.4-3l6.8-9.4h3h1l2.7,1.3l3,1.3l-1.7,4.3
		l-1.3,3.4l-0.7,2.6l-0.7,1.3l-1.7,3.8l-0.7,2.1l-1.7,4.3l-1.3,3L390.9,458.8z"/>
	<path class="st0" d="M538.5,523.9l-2,1.3l-1.3,1.3l-3,2.6l-2.7,2.1l-8.5,7.3l-2.3-1.4l-1-0.8l-1.8-1.1l-0.9-0.6l-1.7-0.9l-2.7-1.7
		l-2.4-1.3l7.1-6.4l-1-1.3l10.1-8.1l9.8-8.1l1.4,2.1l1.7,1.7l6.8,9l-2.7,2.1L538.5,523.9z"/>
	<path class="st0" d="M565.8,581.8l1,1.9l0.5,1.3l-5.7,3.4l-5.7,3.4l-3,1.7l-2.7,1.7l-3,1.7l-1,0.4l-2.4,1.3l-2.7,1.7l-1.7,0.8
		l-8.8,5.1l-0.7,0.9l-14.5-15.4l0.7-0.9l5.7-4.3l2.4-2.1l3-1.7l-0.7-1.7l6.8-3.8l5.1-3l5.1-3.4l5.7-3l6.1-3.8l1.4,2.1l1,1.7l0.6,0.9
		l0.8,1.5l0.5,0.7l1.1,2l0.6,0.9l1.3,2.2l0.4,0.7l1.1,2l0.6,1L565.8,581.8z"/>
	<path class="st0" d="M384.6,396.9l-2,2.6l-0.7,0.9l-2,2.6l-3,2.1l-3,3v0.9l-2.4,2.6l-4.7-3.8l-3.7-3l-3.7-2.1l-3.4-3l-3.4-2.6
		l-3.7-2.6l-3.7-3l-2.4-1.3l0.7-0.9l3-2.6l3.4-1.7l1-0.4l1-0.4l2-1.3l1.7,1.3l4.4-0.9l1-0.4l3.7-1.3l4.7-0.4l1-0.9l7.1,6l3,2.6
		l3.7,1.7l3.4,0.9L384.6,396.9z"/>
	<path class="st0" d="M362.2,131.3l22.9-13.5l19.9,17.3l-0.4,1l-0.8,2.1l-1.7,8.1l-0.3,2.1l-0.8,2.4l-0.5,1l-0.7,0.7l-1.5,0.7
		l-1.4,0.4l-5.1,2.1l-1.5,0.3l-1.4,0.1l-2.2-0.1l-2.7-0.4l-1.9-0.2l-2.5-0.6l-5-1.2l-0.1-0.3l-2-2.3l-1-1.2l-3.7-5.6l-1-1.7l-2.4-3
		l-1.6-1.8l-0.3-4.7L362.2,131.3z"/>
	<path class="st0" d="M243.2,262.6l-1,4.2l-0.3,2l-0.4,1.9l-0.2,1.1l-1.1,6.4l-0.3,1.9l-0.1,0.3l-1.2,8.9l-0.7,3.8l-1,2.1l-4.7,6.8
		l-3.7,5.5l-1.7-0.9l-1-4.7l-1.3-3.8l-0.7-0.9l-0.6-2.9l-0.4-1.8l-0.3-1.3l-0.6-2.1l-0.3-1.1l-0.5-2.2l-0.7-3.5l-0.5-1.8l-0.5-2.5
		l-0.9-4.1l-0.7-2.3l-0.6-2l-0.5-2.2l-0.5-2.1l-0.4-1.4l-0.8-3.3l-1-3.4l-0.6-2.1l-0.4-1.7l-0.9-4.1l-0.4-2.2l11,3.4l0.7,0.2
		l3.4,1.3l8.8,2.1l2.8,0.8l3,0.9l1.7,0.5l1.7,0.4l-0.3,1.3l-0.1,0.3l-0.2,0.6l-0.7,2.7L243.2,262.6z"/>
	<path class="st0" d="M616.1,603.7l1.7,3l-5.1,2.1l1,3l-8.5,2.6l-7.8,3l-4.7,1.3l-1,0.4l-3.4,1.3l-0.5-0.9l-1.2-2.1l-0.9-1.3
		l-0.8-1.2l-1.7-2.6l-1-1.3l-0.7-1.3l-1.2-2.4l-0.8-1.5l-1.7-3l3.7-2.6l3.4-2.1l3.7-2.1l3-1.7l3.7-2.6l3.7-2.6l3.4-1.7l3-1.7l3,5.1
		l2.7,4.3l3,4.7l0.7,1.7L616.1,603.7z"/>
	<path class="st0" d="M322.8,372.5l-3.7,3l-3.4,2.1l-3-3l-3-3.8l-3.4-3.4l-2.7-3.4l-3.7-2.1l5.4-1.3l1.2-0.2l1.1-0.2l3.4-0.9
		l0.7-0.4l4.1-0.4l3-1.3h1.4l2-0.9l2.7-0.4l5.1-1.3l6.1-2.1l1.7-0.4l6.1-0.9l3.4-0.4l5.1-1.3l6.4-0.9l-0.3,2.1l3,2.1l-2.7,2.6
		l-4.7-1.7l-4.7,2.6l-0.7,0.4l-9.8,8.5l-2.7-3l-3,2.1l-3.7,3l-3,2.6L322.8,372.5z"/>
	<path class="st0" d="M459.5,443.5l-1.4,1.7l-1,1.3l-1,1.3l-1.4,2.1l-4.1,5.6l-5.4,6.8l-3,4.3l-2.7,0.4l-5.7,0.4l-0.3-0.9l-2.7-2.6
		l-2.4-3l-0.7-0.4l-1.7-2.1l-2.4-3l-2.4-2.6l2.7-2.6l2.7-2.6l7.4-6.4l7.4-7.3l2.7-2.6l2.7-2.1l3-2.1l2.7-1.7l2.4,2.7l2.6,2.9
		l1.2,1.5l0.8,1l3.7,4.3l-1.7,2.1l-1.2,1.8L459.5,443.5z"/>
	<path class="st0" d="M366.5,300.8l-13.8-0.9l-3-1.7l-0.7,0.9l-2.4,2.6l-1,1.3l-2,2.1l-2.7,2.1l-1,0.9l-3.4,5.5l-2,0.9l-2,0.9
		l-7.4,2.1l-2.4-0.4H321l-1.4,0.4l-1,3.4l-5.7-5.5l0.3-1.7l1-1.3l5.7-11.1l0.3-0.9l1.7-4.7l0.3-1.3l1-1.3l0.3-1.1l1.7-6.2l0.7-1.7
		V282l1-2.1l2.7,1.7l2.4,0.9l3.7,1.3l6.1,1.7l3.7,1.3l6.1,1.7l3,0.4l4.7,0.9l4.4,1.3l2,0.9l4.3,1.3l-3,1.2l2.7,6.8L366.5,300.8z"/>
	<path class="st0" d="M263.8,356.2l-3.7-2.1l-3.7-2.1l-4.4-2.1l-4-2.1l2.4-4.3l3-6l1.7-4.7l3.4-6.8l4.1,4.7l0.3-6.4l1-3.8l1-3.8
		l0.3-0.9l2.4-1.7l2,0.4l2.7,0.4l2.4,3l1,0.9l2.7,1.7l4,0.9l4.1,0.4l-0.7,2.1l0.7,4.3l1,2.6l-1.7,3l-0.3,3.4l-7.4,3.4l-8.4-9.4
		l-0.7-14.9l-2.7,1.3l-2.4,9l3.4,11.1l3,3.4l1,1.3l-2.7,18.8l7.8,4.7l2.4-2.6l1.7-1.7l8.1-1.7l3.4-9.8l4.3-6.6l0.4,0.6l-3,5.6
		l-1.4,2.1v6l-2,2.6l-1.3,0.9l-2-0.9l-4.7,1.7l-4.4,4.3l-1,0.9h-1.7l-4.7-2.6l-1.4-1.3l-2.4-3.8l-1.7-3L263.8,356.2z"/>
	<path class="st0" d="M653,617.7l-1.2,0.2l-5.9,1.1l-3,1.3l-3,1.7l-4.4,1.7l-6.4,2.6l-1.4-3.4l-1.7-2.1l-1.4-3l-1.7-2.6l-3.9-6.5
		l-1.2-2l-1.7-3l-1-2.1l-0.7-1.7l-3-4.7l-2.7-4.3l-3-5.1l4.4-3l3-1.7l1.3-0.9h0.7l1.7-0.9l2.4,4.7l1,2.1l1.7,3l0.7,1.7l1,1.3l2,3.8
		l3.7,3.4l4.7,3.8l3,3l1.4,2.1l1,0.9l2,2.1l3.4,2.6l2.7,1.7l2.4,1.7l0.8,0.1L653,617.7z"/>
	<path class="st0" d="M491.9,412.7l3.7,4.7l-1.7,1.3l-2.7,1.7l-4.1-2.1l-1.3-0.8l-1.7-1l-1.9-1.8l-0.7-0.5l-3.3-3.6l-1.9-1.8
		l-4.5-5.5l-5.3-6.5l-2-3.4l-2.4-2.1l-2.4-2.1l-1.5-1.2l1.5-1.8l2.4-2.1l2-2.1l2-1.7l3.4,3.4l3.7,3.8l2.4,3l1.7,3l2.4,2.1l0.7,1.3
		l1.3,1.7l2,3l1,1.3l0.7,0.9l3,3.8L491.9,412.7z"/>
	<path class="st0" d="M558.8,384.3l2,4.3l28.3,59.6l-6,6.5l-5.6-3.9l-2.1-1.5l-0.9-0.6l-4.4-2.6l-3-4.7l-3-2.6L560,435l-3.4-3
		l-4.7-5.1l1.7-3l1.4-5.1l-2.4-6l-1-1.7l-1-0.9l-3.7-4.7l-0.3-0.9l-0.7-1.3l0.7-6.4l-0.3-4.3l-0.7-1.7l-3.4-6l-9.8-11.1l-2.4-2.6
		l-2-2.1h1.4l6.1,3l2.7,4.3l0.7,1.7l3.7,0.6l4,0.7l1.5,1.3l7,6L558.8,384.3z"/>
	<path class="st0" d="M502.1,341l-3-1.7l-2.7,1.3l1.4,2.6l4.4,7.3l-4.7,0.9l-2.2,2.7l-0.2,0.3l-0.3,0.3l-0.7,0.9l-0.6,0.8l-0.6,0.7
		l-5.1,6.3l-3.4,2.1l-1.3-1.7l-2.4,2.6l-6.8-7.7l-2.4,2.1l-10.1-6.8l-3.4-2.1l-3-1.7l0.7-1.3l-8.4-6l2-2.6l2-2.6l1.7-1.7l1.7-0.9
		l3-2.6l7.1-5.6l8.4-8.1l8.1,0.9h1.7l1.3-0.9l1-0.9l8.8,9l1.7,2.6l11.8,14.1L502.1,341z"/>
	<path class="st0" d="M499,524.7l1.4,0.9l-3.1,2.7l-4.1,3.5l-1.3,1.1l-1.7,1.3l-3.4,2.6l-3,3l-7.4,8.1l-1,1.3l-16.2-17.9l0.7-0.9
		l-5.2-5.6l17.8-15.9l11.1,6.6l1,0.9l2.7,1.7l3,1.7l1.7,1.1l1,0.6l3,1.7l1,0.4L499,524.7z"/>
	<path class="st0" d="M248.9,234.8l-0.4,2.9l-0.6,3.8l-0.7,4.8l-0.4,1.4l-0.5,1.8l-1.2,4.7l-0.6,2.3l-1.7-0.4l-1.7-0.5l-3-0.9
		l-2.8-0.8l-8.8-2.1l-3.4-1.3l-0.7-0.2l-11-3.4l-0.3-1.1l-0.2-0.8l1.7,0.4l-0.7-2.1l-1-3.8v-1.3l0.7-3l0.7-3.4l1.4-3.8l1.4-3.8
		l1-3.4l0.7-2.6l1-3.4l0.7-2.6l1-3l1-2.1l2.4-0.4l5.7-1.7l7.4-1.3l6.1-1.3l1.7-0.4h1l3,3.8l2,3l2.7,3.8l-0.7,2.6l-0.3,3.4l-0.4,2.5
		l-0.5,3.4l-0.5,3l-0.7,3.9L248.9,234.8z"/>
	<path class="st0" d="M384.9,362.7l-3,2.1l-3,3l-0.7,3l-1,1.7l-1.7,0.9l-9.1,4.3l-3,1.3l-1,0.4l-3.4,1.7h-1l-3,1.7l-4.7-5.1l2.4-2.6
		l1.7-2.1l2-3.4l1.7-2.6l0.7-0.9l1.7-2.1l0.7-0.9l3-3l-3.4-3.4l-2-1.3l2.7-2.6l-3-2.1l0.3-2.1l2.7-0.4l2.4-2.1l1.7-1.7l7.1,7.3
		l6.8,7.2l1.3,0.9l5.7,1.7L384.9,362.7z"/>
	<path class="st0" d="M517.5,457.6l-2.4,2.6l-1.4,0.9l-1,0.9l-2.4,2.1l-2.7,2.1l-3.4,3l-2.4,1.7l-1.7,2.1l-1.7,1.3l-1.4,1.3l-1,0.9
		l-1,1.3l-1.3,0.9l-2,1.7L488,477l-4.1-4.7l-1.4-2.1l-2.7-3l-1-0.9l-1-1.3l-1.7-2.1l-2-2.1l3.4-3l2-1.7l-3.4-4.7l-2.7-2.6l-2-2.1
		l-2-2.1l-4.1-5.1l-2-1.3l3-1.7l3-2.1l2.4-1.7l3.4-2.1l2.4-1.3l2.4-1.7l3-1.7l4.1-2.6l1.7-0.9l1.4-0.9l1-0.9l8.8,4.7l2.5,0.9
		l2.6,0.8l7.8,2.1l2.4,0.7l3.7,1l-1.7,1.3l0.7,2.1l0.7,2.6l2.7,9l0.3,6.8L517.5,457.6z"/>
	<path class="st0" d="M176.1,289.6l0.3-2.6l2-3.8l3.7-6l1.7-3l2.4-3.8l3-3.4l1.4-2.1l2.7,0.9l4.1,0.9l4.1,0.9l2.7,1.3l4.1,0.9
		l3.4,1.3l3.7,0.9h2.5l0.7,2.3l0.9,4.1l0.5,2.5l0.5,1.8l0.7,3.5l0.5,2.2l0.3,1.1l0.6,2.1l0.3,1.3l0.4,1.8l0.6,2.9l0.7,0.9l1.3,3.8
		l1,4.7l-2.4-0.9l-4.4-1.3l-4.4-2.1l-3-2.1l-1.3-0.4l-4.1-1.3l-3.4-0.4l-3.4-1.3l-3.7-0.9l-3.7-1.3l-3.4-0.9l-3.4-1.3l-3.4-0.9
		l-3-0.9L176.1,289.6z"/>
	<path class="st0" d="M457.5,499.8l1.7,0.9l2.4,1.7l-10.1,8.1l-2.7,2.1l-2.7,2.6l-0.8,0.9l-2.4-1.7l-2-2.6l-2-2.1l-2-2.1l-3-3
		l-3-3.4l-1.4-1.3l-2.4-2.6l-2.4-2.6l-2.7-3l-2-2.6l8.6-7.7l2.7,2.1l3.4,1.7l4.1,2.6l1.3,0.9l0.7,0.4l1.3,0.9l1.7,1.3l1.7,0.9l1,0.9
		l2,1.3l3,1.7l3,1.7L457.5,499.8z"/>
	<path class="st0" d="M306.2,367.4l-3,3l-3,3l-3,2.6l-3.4,3l-2.7,2.6l-3.4,3l-3,3l-2.7-3.4l-5.7-6l-0.9-1.2l-0.4-0.5l0.3-6.4l-2-1.3
		h2.4h2.4l-1.7-1.3l0.3-0.4l1-0.9l4.4-4.3l4.7-1.7l2,0.9l1.3-0.9l2-2.6l1.7,0.9l6.1,3.4l3.7,2.1L306.2,367.4z"/>
	<path class="st0" d="M453.9,182.5l27.3,10.5l-57.1,32.5l-4.7-3l4.3-13.5l-2.4-8.5l0.2-5.3l0.4-5.8l1-6.4l3.3-14.2l18.5-34l3.7,5.3
		l1.9,0.4l5.9,41.2L453.9,182.5z"/>
	<path class="st0" d="M565.8,446.9l-3.7,1.3l-5.4,0.9l-5.4,0.9l-4.1,0.7l-3,0.5l-4.7,6.4l-2.4,2.6l-2.4,2.6l-3,1.7l-3,1.7l-3.7,0.4
		l-2-2.1l-1.7-2.1l-2.4-2.6l-1.4-2.1l4.1-5.1l-0.3-6.8l-2.7-9l-0.7-2.6l-0.7-2.1l1.7-1.3l7.3,0.7l8,0.6l3.6-0.1l4.8,0.1h3l3.6,0.9
		l2.9,1.3l6.1,3l3.4,3.3l4.7,3.1l4.1,2.6l4.4,2.6l-4.4-0.9L565.8,446.9z"/>
	<path class="st0" d="M596.6,465.7l-4.7,4.3l-0.7,0.9l-1,1.7l-4.1,1.7l-3-1.3h-2.4l-0.7,0.9l3,6.8l-0.7,0.9l-2.4,5.1l-0.7,2.1
		l-3.4,3.8l-3.7,3.4l-3.7-2.6l-8.1-4.3l-3.4-2.6l-4.7-6l-2.4-2.1l-2.7-2.1l-1.4-1.7l-3-2.6l-2-1.7l-3.4-2.1l-3-2.1l-2.7-1.7l3-1.7
		l2.4-2.6l2.4-2.6l4.7-6.4l3-0.5l4.1-0.7l5.1-0.8l5.7-0.9l3.7-1.3l4.4,0.9l4.4,0.9l0.9,0.6l2.1,1.5l7.2,5l3.2,2.2l3.2,2.2l0.6,0.4
		l1.4,0.9l5.1,3.8L596.6,465.7z"/>
	<path class="st0" d="M454.1,253.8l-9.1,4.6l-4.4-7.7l-5.9-8.6l7.9-5.8L454.1,253.8z"/>
	<path class="st0" d="M281.6,248.9l-0.7,1.7l-3,6.4l-4.7,8.5l-1.7-0.6l-3.4-1.1l-3.3-1l-6.2-2l-2.2-0.8l-0.3-0.1l-2.4-0.7l-5.1-1.3
		l-1.9-0.6l-0.8-0.4l-0.9-0.3l-0.6-0.2l0.6-2.3l1.2-4.7l0.5-1.8l0.4-1.4l0.7-4.8l0.6-3.8l0.4-2.9h0.7l1,0.4l7.8,1.3l4.4,1.3l3.7,0.4
		l4.4,1.3h3l3,0.9l4,1.3l3.4,1.7L281.6,248.9z"/>
	<path class="st0" d="M352.9,439.5l1-1.6l0.3-0.4l3.4,2.6l1.3,1l2.1,2l1.3,0.9l3,2.6l10.5,10.3l3.6,3l2.7,1.7l2.7,2.6l3,3l-0.3,0.9
		l-0.3,1.7l-0.7,1.3l-2,6.4l-0.4,1.1l-0.6-0.3l-11.4-5l-3.2-1l-1.3-0.4l-1.1-0.4l-1.3-0.9l-2.3-1.6l-3.1-2.7l-2.9-2.4l-1.5-1.4
		l-0.8-1l-1.1-1.5l-0.7-1.8L350,449l-0.3-4.9l1.4-2.1L352.9,439.5z M387.4,469.5l-0.7,1.3l-2,6.4l-0.4,1.2l0.3-1.2l2-6.4
		L387.4,469.5l0.2-1.7l0.3-0.9l-3-3l-2.7-2.6l-2.7-1.7l-3.7-2.9l3.8,2.9l2.7,1.7l2.7,2.6l3,3l-0.3,0.9L387.4,469.5z"/>
	<path class="st0" d="M594,629.8l1,1.3l-3,1.7l-17.6,10.3l5.1,10.7v3l-4.7-4.7l-2-2.6l-2.7-2.6l-2-1.7l-1.7-2.1l-3-2.1l-3-1.7
		l-1.8-1.5l-2.2-1.9l-0.6-0.7l-0.8-1l-4.1-4.7l-1.3-1.9l-2.7-2l1-1.3l3.4-3.4l2-2.1l3-3l1.4-0.9l2.7-1.7l3-1.7l3-1.7l3.4-2.1
		l2.4-1.7l6.1-3l1.7,3l0.8,1.5l1.2,2.4l0.7,1.3l1,1.3l1.7,2.6l0.8,1.2l0.9,1.3l1.2,2.1l0.5,0.9l0.9,1.6l1.5,2.7l1.4,3L594,629.8z"/>
	<path class="st0" d="M256.1,301.2l-1.4,3l-2.4,5.1l-1.7,2.6l-3.4-0.4l-3.7-1.3l-2.8-0.4l-3.6-0.5l-6.4-1.3l-2.4-0.4l3.7-5.5
		l4.7-6.8l1-2.1l0.7-3.8l0.7,0.4l0.7,0.4l6.7,2.1l12.8,2.6l-1.7,3L256.1,301.2z"/>
	<path class="st0" d="M509.8,673.8l-0.4,0.2l-3.5,3.1l-1.2-1.6l-0.6-0.8l-1.7,0.8l-11.2,5.1l-1.4-3l-2.5,1.1l1.4,4.3l2.1,6.5l1,1.2
		l5.5,6.3l0.6,0.6l3.4,3l13.2,14.1l-2.4,2.1l-10.8,3.8l-2.1-4.6l-3.9,1.4l2.9,6.2l-10.4,2.1l-6.1,7.7l-36.9,11.5l-4.7,7.3l2.4,31.6
		l-9.8,11.1l-97.4-88.4l-11.8-2.6L304.2,686l-0.5-0.7l-0.5-1.1l0.7-2.5l2-2.6l0.6-0.6l0.4-0.3l0.4-0.3l0.4-0.2l0.4-0.2l0.4-0.2
		l0.4-0.2h0.5l12.5,3l31.4,28.2l2.7,1.7l25.2-32.7l0.8-1.1l1.1-1.4l5.9,1.3l-1.1-16.3l1.6-2.7l1.3-1.7l0.4-1.3l0.3-0.8l1.4-54.9
		v-0.6l-1.1-0.2l-3.6-0.6l-0.4-0.1l1-7.8h3.4l-0.3,5.6l0.3-0.1l11.5-2.1l25,26.5l3.7,8.5l11.4,29.8l2.3,1.5l0.5-1.3l3.6,1.8
		l-12.7-32.2l0.7-4.2l0.3-2.9l-1.3-2.6l-3.9-3.5l-15.5-32.6l1-0.2l2,1.2l4.5,3.7l5.6,4.1l3.9,3.6l3.5,3.6l2,5.5l-0.2,4l2.5,2
		l0.6,0.5l0.7,1.1l2,3l3.8-3.1l-18.9-30.2l0.4-0.7l0.7-1.1l0.7-1.8l1.1-1.6l7.8-6l10.6-3.8l-6.9,1.1l-4.4,1.8l-2.5,2.1l-4.2,2.1
		l-0.4-2.3l-3.3-0.4l-3.2-20.5l-2.2-5.4l-4.1-6.7l5.7-6.8l2.1-0.3l5.1,7.3l-1,0.9l-2.7,8.1l4.7-6l0.3-0.4l1.7,2.1l5.1,6.8l3.1,4.3
		l4.6,6.6l3.3,5.2l1.3,2.1l18.5,26.6l12.8,17.9l3.3,5.2l1.6,2.2l10.7,15.3l-7,10.7l0.7,15l8.7,4.7l8.8,4.7L509.8,673.8z"/>
	<path class="st0" d="M417.3,531.7l-6.6,2.8l-8.4,5.1l-4.5-17.3l-2.3-8.8l2.2-2.3l5.5-6l2.2-2.3l2.8-2.8l0.7-0.8l1.1-0.8l2,4.3
		l4.9,8.1l2.2,3.7l6.5,11.5l0.4,0.4l1.3,1.9l-2.4-0.8l-7.1,3.8L417.3,531.7z"/>
	<path class="st0" d="M496.6,317.4l27.5-49.5l1.2,6l15.2,5.1l15.2,14.1l6.4,8.1l1.4,11.1l0.7,5.5l-3.7,11.1l-3,4.3l-6.1,12.8
		l-0.7,0.9l-1.4-6l-2.7-7.3l-3.7-6.4l-9.5-5.5l-6.1,0.4h-13.5l-9.8-0.9l-2.7-1.7L496.6,317.4z"/>
	<path class="st0" d="M328.3,80.7l38,9.3l-1.9,1.8l-7.1,3l-2,0.4l-1.4,0.7l-2.2,1.1l-11.9,5.9l-2.5,0.8l-1.3,0.4l-3.7-1.7l-2.7,0.9
		v-1.7l-0.7-7.3l-0.1-2.1l-0.1-2.2l-0.2-4.4L328.3,80.7z"/>
	<path class="st0" d="M420.4,70l-2.4,2.1l-10.8-9.4l-5.4,1.3l-4.7-5.1l-9.1,8.9l-2,2l-6.5-4.7l-1.9,2.4l-2.9-1.5l-5.8,1l-5.5,5.4
		l-3.5,5.5l-19.4-9.5l-6.8-0.1l-6.4-2.2v-0.3v-1.4l-0.3-9.3l-0.3-3l-0.2-2.2l-0.8-9.8l-0.3-5.1l-1-11.1l-0.3-5.1v-2.1l-0.3-4.3
		l-0.3-3.8l-0.3-6.4V0.5l1.7,1.7l4.7,4.7l7.1,5.6l2-0.9l5.1-3.4l4-1.7l6.4,2.1l3.7,1.3l4.4,1.3l11.5,3.8l17.5,9l6.4,3.8l8.4,12.8
		L419.6,56l3.7,12.4L420.4,70z"/>
	<path class="st0" d="M298.8,214.8l0.7-1.7l2.4-4.3l1.7-3l0.7-1.7l0.7-1.7h5.1l5.1-1.7l5.1-1.3l2.1-1.1l7.3-3.6l5.4-1.7l10.1-5.1
		h2.7h2.4l5.7,4.6l2.7,2.2l4,4.3l4.4,4.7l10.8,7.7l4.1-2.1l1.9,0.8l-2.5,8.2l2.1,2.9h-0.3l-14.2,5.6l-6.9,1.6l-4.2,1l-1.7,0.4
		l-3,1.3l-6.8,0.9l-13.8,2.6l-1-0.9l-1.4-1.7l-6.1-6.8l-4-3l-3-2.1l-1.7,1.7l-1.9,1.9l-4.2,4.1l-3-2.6l1.3-3l-2-4.3L298.8,214.8z"/>
	<path class="st0" d="M352.8,439.5l-1.6,2.2l-1.4,2.1l0.1,5l-3.5,1l-3.7,0.4l-6.1,0.7l-1.3,0.2l-5.4,0.9v-6.4l2.4-3l-2.7-4.7
		l2.4-0.9l-0.3-4.3l-3,1.3l-10.1-12l-0.3-0.4l-1-1.7h-1.4l-2,0.9l-17.2-7.3l-6.3,2.9l-1.8-3.8l-1.3-3l3-3.4l0.9-0.9l-1-6l4.4,2.1
		l4.1,1.3l4.7,2.6l3,2.6l2,0.9l5.7,2.6l5.4,1.7l1.7-1.3l1-1.7l0.7-1.7l3,1.7l3.4,2.1l3.7,3l3.7,2.6l3.4,3l3.4,2.6l3.7,3l3,2.6
		l3.7,2.1l3.4,2.6l-3,3.8l-0.4,0.4L352.8,439.5z"/>
	<path class="st0" d="M165.6,327.1l1.4-6l1-3l1-3.8l0.1-0.3l1.6-3.9l0.3-2.1l1-0.9l0.4-4.3l3.7,1.3l3.4,0.9l2.7,0.4l6.8,3l4,1.3
		l3.7,0.9l3,1.3l3.7,1.3l3.4,0.4v0.4l-0.3,2.1l2.6-0.5l1,0.4l0.9,0.4l0.6,0.3l0.7,0.3l0.7,0.4l4.4,2.1l1.3,0.4l1.2,0.5l-1.2,2.9
		l-4.1,8.1l-1,2.1l-1.7,3l-1.4,3.4l-1.7-0.9l-2-0.9l-3-1.7l-0.7,0.7l-1.9-0.1l-0.8-0.1L197,336l-3.7-1.3l-3-0.9l-3.7-0.9l-4.1-1.3
		l-3.3-0.8l-4.1-0.9l-2.4-1.3l-2.1-0.5L165.6,327.1z"/>
	<path class="st0" d="M382.5,442.2l-5.4,6.8l-2.7-2.1l-2.4-1.7l-3.7-2.6l-4.4-3.4l-2-1.3l-1.4-1.7l-3.4-2.6l2.7-3l3-3.4l3.7,0.4
		l2.7,0.4l4.4,0.4h1.4h1.7l3.7,0.4h3.4l3.7,0.4l4.1,0.4l-6.8,9.4L382.5,442.2z"/>
	<path class="st0" d="M296.9,288.4l-10.1,7.3l-9.5,7.7l-2.4,3l-4.7,2.1l-2-1.7l-4.7-8.5l-0.3-1.3l-3.7-2.1l1.7-3.4l2-4.3l3-5.6
		l3.7-7.7V273l1.4-1.3l1.4-3.8l0.7-2.1l3.7,1.7l3.7-2.6l1.3-1.3l2.7-1.7l2.4,2.1l0.7,1.3l1.7,1.7l2,2.6l0.3,4.3l0.3,1.3l-0.3,1.7
		l0.7,0.4l1.1,1l0.9,0.7l4.4,7.7L296.9,288.4z"/>
	<path class="st0" d="M452.7,335.7l-1.7,1.7l-2,2.6l-2,2.6l-2,2.6l-2,3l-2.4-2.1l-4.1,2.6l-2-0.4l-2.7-0.4l-3.7-0.4l-2.3-0.3
		l-1.7-1.6l0.8-2.6l1.5-2.8l0.5-1.8l-0.4-2.3l-0.8-2.1l-0.6-1.5l-0.1-1.3l0.1-4l0.7-5.9l0.9-3.2l0.5-0.8l2.5-3.9l2-2.6l-1.4-1.3
		l-3-1.7l3-3.4l5.1-14.1l8.1-7.7l6.4-8.5l0.7-1.3l0.3-0.9l0.7-0.9l0.7-1.3l2.4,3.8l1.3,1.7l1.7,2.1l5.5,8.6l14.8,23.4l2.8,3.7l2,2.7
		l2.4,2.1l-1,0.9l-1.3,0.9h-1.7l-8.1-0.9l-8.4,8.1l-7.1,5.6l-3,2.6L452.7,335.7z"/>
	<path class="st0" d="M239.4,376.7l-1.7,3l-1.4,2.6l-1.7,3.4l-1,1.7l-0.3,0.9l-2.7,5.6l-1.4,1.3l-2-4.3l-1.7,1.7l-2-1.3l-1-1.3
		l-3.4-1.7l-4.1-2.8l-7.5-4.4l-1.8,0.1l-2.7-1l0.5-1.2l-3.2-1.5l-3,2.7l1.2-2.5l3-6l-4-2.1l-3.4-2.1l-2-0.4l0.7-2.6l1-3.8l0.1-0.4
		l0.6-2.2l0.3-3l0.7-1.3l0.3-0.9l4.4,2.1l3.7,2.1l1-2.9l0.5-0.6l0.5-0.3l0.7-0.5l0.6-0.3l-0.1-0.6L207,350l0.3-2.2l0.5-2.3l2.5-5.4
		l1.4-3.4l1.7-3l1-2.1l1.7,0.9l3.4,1.3l4.7,2.1l-1.4,3.4l-1.4,2.6l-1.7,3l-1.4,3l3.7,1.7l4,2.1l4.1,2.1l-1.4,2.6l-1.4,3.4l-1.7,3
		l-1.4,3l-0.7,1.3l4.4,1.7l4,2.1l1.7,0.9l1.9,1l4.5,2l-0.7,1.3L239.4,376.7z"/>
	<path class="st0" d="M327.3,66.1l6.4,2.2l6.8,0.1l19.4,9.5l3.5-5.5l5.5-5.4l5.8-1l2.9,1.5l1.9-2.4l6.5,4.7l-0.5,0.5l-10.6,10.4
		l-0.3,0.4l-3.4,3.8l-1.4,1.6l-0.9,1l-2.5,2.4l-38-9.3l0.3-3.4l-1-3.4l0.3-1.7l-0.7-3.4L327.3,66.1z"/>
	<path class="st0" d="M425.7,402.5l-0.7,1.3l-1.4,1.7l-0.3,0.9l-1.7,2.6l-1.4,3l-1.7,2.6l-1.4,1.7l-0.7,1.3l-1.4,2.6l-1,1.7
		l-1.7,2.6l-3,5.1l-1.7,2.6l-1.7,2.6l-1.4-0.4l-3.4-1.7l1.3-4.7l1-2.1l0.3-1.3l0.3-2.6l1-2.1V419l1-2.6l0.3-1.3l0.7-2.1l0.3-0.9
		l0.7-3l1-2.1l0.7-3l1-2.6l1-3l0.7-2.6l0.7-2.6l0.3-0.9l6.4,2.1l7.8,4.3l-2,3L425.7,402.5z"/>
	<path class="st0" d="M429.4,409.3l-2.4,2.6l-2.4-1.3l-1.4,2.6l1,0.4l-0.3,2.1l1.4,1.7l3,3l2.4,3.4l-1.7,1.3l-1.3,0.9l-0.7,0.9
		l-2,0.9l-4.1,3.4l-2,1.7l-3,3l-1.4,1.7l-1.3,1.7l-2.4-2.1l-1.4-0.9l-1.3-0.4l-2-1.3l1.7-2.6l1.7-2.6l3-5.1l1.7-2.6l1-1.7l1.4-2.6
		l0.7-1.3l1.4-1.7l1.7-2.6l1.4-3l1.7-2.6l0.3-0.9l1.4-1.7l0.7-1.3l0.3-0.9l2-3l10.1,6.4l-5.7,2.6L429.4,409.3z"/>
	<path class="st0" d="M287,396.9l1.3,1.3l1.7,1.3l0.9,6l-12.5-4.7l-4.4-2.1l-4.7-2.1l-1.6-1.2l-1.7-1.3l-0.7-1l-1.9-2.4l-3.7-4.7
		l-4.1-2.6l0.7-0.9l1.4-3.4l1.7-3l1.4-3.4l1.4-2.6l7.8,3.9l5.1,2.5l0.3,0.6l0.9,1.2l5.7,6l2.7,3.4l-3.4,3L287,396.9z"/>
	<path class="st0" d="M331.5,233.6l-2.7,3.4l-2.4,3l-1,1.3l-0.8,0.7l-1.6,1.4l-1.3,0.9l-5.8,3.8l-2.4,5.1l-1,2.1l-4.1,5.1l2,1.3
		l-1.4,2.1l3.4,2.7l-3.8,1.1l-5.4,1.7l-7.4,3.8l-2.4,2.6l-1,0.4l-1,0.4l0.3-1.7l-0.3-1.3l-0.3-4.3l-2-2.6l-1.7-1.7l-0.7-1.3l-2.2-2
		l-2.6,1.7l-1.3,1.3l-3.7,2.6l-3.7-1.7l4.7-8.5l2.9-6.5l0.7-1.7l2.7-5.6l2-3.8l3-6l1-1.7l2-4.3l4.7-9v-0.9l1.7-3l6.7,3l2,4.3l-1.3,3
		l3,2.6l4.2-4.1l1.9-1.9l1.7-1.7l3,2.1l4,3l6.1,6.8L331.5,233.6z"/>
	<path class="st0" d="M452.5,269.8l24.8,5.8l0.6-15.3l-3.5-16.7l47.4-24.8l7.7,2.6l-3.2,4.9l-1,2.6l-2,3.4l-1.7,3.8l-0.3,3.4l0.3,6
		l2,3l2,4.7l-1.7,5.6l-1,3l1.2,6l-27.5,49.5h-1.3l-6.1-1.3l-2.7,0.9l-1.3,0.9l-2.4-2.1l-2-2.7l-2.8-3.7l-14.8-23.4l-5.5-8.6
		l-1.7-2.1l-1.3-1.7L452.5,269.8z"/>
	<path class="st0" d="M272.6,267.9l-1.4,3.8l-1.3,1.3v0.9l-3.7,7.7l-3,5.6l-2,4.3l-1.7,3.4l-12.8-2.6l-6.7-2.1l-0.7-0.4l-0.7-0.4
		l1.2-8.9l0.1-0.3l0.3-1.9l1.1-6.4l0.2-1.1l0.4-1.9l0.3-2l1-4.2l0.1-0.9l0.7-2.7l0.2-0.6l0.1-0.3l0.3-1.3l0.6,0.2l0.9,0.3l0.8,0.4
		l1.9,0.6l5.1,1.3l2.4,0.7l0.3,0.1l2.2,0.8l6.2,2l3.3,1l3.4,1.1l1.7,0.6L272.6,267.9z"/>
	<path class="st0" d="M174,296.8l-1.7,6l-0.3,4.3l-1.1,0.8l-0.3,2.1l-1.6,3.9l-0.1,0.3l-1,3.8l-1,3l-1.3,6l0.5,5.3l0.5,1l0.8,1.6
		l0.7,0.6l-1.3-0.4l-1.1,0.1l1.2,1.3l2.6,4.7l-2.4-0.9h-2l-3.4-1.3H161h-4.7l-3.7-1.7l-3.4-0.9l-3.4-0.9l-4.1-1.3l-5.4-1.3l-5.1-0.9
		l-4.7-1.3l-3.1-1l-2-0.7l-2.3-1.2l-1.1-0.5l-7.8-3l-5.1-1.3l-6.1,0.8l-10.1-1.3L74,320.8l-10.1-0.9l-15.2-1.3l-15.5-0.9h-3h-2.7
		l1.7-1.7l35.1,1.3l2-3.8l6.1-12.4l3.7-3.5l19-18.2l3.7,0.4l12.2,0.4l0.7-8.5L98.2,267l-10.8,1.7l-11.8,11.9v-11.5l-30.4,5.1
		l-2.5,0.4l-0.9-4.7v-1.3l28.7-10.2L82,242.6l10.1-6.4l12.8,6.4l4.4,2.6l31.7-3.8v-10.2l14.8,5.1l-8.1-13.7l12.5,4.9l1.3,1.5
		l0.7,0.9l1.6,0.4l3.6,0.9l0.6,1l0.9,1.3l-0.1,3.7l-0.2,5.1v1.3l1.3,0.8l-0.6,1.5L169,247l-0.4-0.2v0.8v0.9l-0.5,3.3l-1.8,6.3
		l-1.2,4.1l-1.2,1.3l-2,2.8l-0.6,1.2L160,269l-1.6,1.8l-4.8,5.1l1.9,1.1l0.4,0.2l2.1,1.4l0.9,0.6l0.8,0.6l1.9,1.5l4.4,2.6l4,2.6
		l4.4,2.6l1.3,0.4L174,296.8z"/>
	<path class="st0" d="M278.5,400.7l12.5,4.7l-0.9,0.9l-3,3.4l3.2,6.8l-11.6,5.2l-9.8-4.3l9.1-9.8l-2-2.1l-4.1,2.2l-7,3.8l-5.1,0.9
		l3.7-3.8l-4.4,0.9l0.7-3.4l-3,0.9l3.7-5.6l3-1.3l-4-1.3l-13.9,6.4l1-2.1l-9.1-1.3l-8.1-6.4l1.4-1.3l2.7-5.6l0.3-0.9l1-1.7l1.7-3.4
		l1.4-2.6l1.7-3l0.3-0.8l0.7-1.3l3.7,2.3l4,2l3.7,2.1l3.7,2.1l4.1,2.6l3.7,4.7l1.9,2.4l0.8,1l1.7,1.4l1.6,1.2l4.7,2.1L278.5,400.7z"
		/>
	<path class="st0" d="M172.3,302.8l1.7-6l2-7.3l3.7,1.3l3,0.9l3.4,0.9l3.4,1.3l3.4,0.9l3.7,1.3l3.7,0.9l3.4,1.3l3.4,0.4l4.1,1.3
		l1.3,0.4l3,2.1l4.4,2.1l4.4,1.3l2.4,0.9l1.7,0.9l-1.2,1.8l-0.8,1.6l-1.4,1.7l-1.4,1.3l-0.7,1.3l-3.2,5.2l-1.2-0.5l-1.3-0.4
		l-4.4-2.1l-0.7-0.4l-0.7-0.3l-0.6-0.3l-0.9-0.4l-1-0.4l-2.6,0.5l0.3-2.1v-0.4l-3.4-0.4l-3.7-1.3l-3-1.3l-3.7-0.9l-4.1-1.3l-6.7-3
		l-2.7-0.4l-3.4-0.9L172.3,302.8z"/>
	<path class="st0" d="M368.7,420l-3,3.4l-2.7,3.8l-3,3.4l-2.7,3l-3.4-2.6l-3.7-2.1l-3-2.6l-3.7-3l-3.4-2.6l-3.4-3l-3.7-2.6l-3.7-3
		l-3.4-2.1l-3-1.7l2-2.1l1.7-1.7l1-1.3h1l1.3-1.7l0.7-0.9l2.4-2.1l1-0.9l2.7-2.1l0.3-0.9l1.4-0.9l2-1.7l2.4-2.1l2.4,1.3l3.7,3
		l3.7,2.6l3.4,2.6l3.4,3l3.7,2.1l3.7,3l4.7,3.8l-1,4.3L368.7,420z"/>
	<path class="st0" d="M570.2,446l-4.1-2.6l-4.7-3.1L558,437l-6.1-3l-2.9-1.3l-3.6-0.9h-3l-4.8-0.1l-3.6,0.1l-8-0.6l-2.5-0.7l5.4-0.4
		l-0.7-1.3l-1.7-10.7l-1-6.8l-0.7-3.8l-3.3-1.8l-4.1-2.6l-1,1.3l-4.1,2.1l-1.4,0.9l-1-1.7l-4.7-5.1l-5.1-5.5l-3.7-3.4l4.4-3.4
		l-2-2.1l-2-3l-2-3l-2-2.6l-2-3l-2-2.6l-3.9,2.7l-2.9,2l-1.7,1.7l-1.7,0.9l-1.4-0.9l-1.3-1.7l1.3-3l1-2.6l2-5.1l2.4-2.6l1.3,1.7
		l3.4-2.1l5.1-6.3l0.6-0.7l0.6-0.8l0.7-0.9l0.3-0.3l0.2-0.3l2.2-2.7l4.7-0.9l-4.4-7.3l-1.4-2.6l2.7-1.3l3,1.7l5.4,2.6l8.9,11.4
		l1,1.3l6.3,8.2l4.4,4.7l2,2.1l2.4,2.6l9.7,11.2l3.4,6l0.7,1.7l0.3,4.3l-0.7,6.4l0.7,1.3l0.3,0.9l3.7,4.7l1,0.9l1,1.7l2.4,6
		l-1.4,5.1l-1.7,3l4.7,5.1l3.4,3l4.1,3.8l3,2.6L570.2,446z"/>
	<path class="st0" d="M402.8,396.6l-1.4,3.8L397,406l-2.4,3.4l2.4,2.1l-5.1,6.8l2.7,1.7l-2,2.6l-2.4,3.4l-2.7,3.4l-3.7-0.4h-3.4
		l-3.7-0.4H375h-1.4l-4.4-0.4l-2.7-0.4l-3.7-0.4l2.7-3.8l3-3.4l1.7-4.3l1-4.3l2.4-2.6v-0.9l3-3l3-2.1l2-2.6l0.7-0.9l2-2.6l3-5.6
		l1-4.7l1-3.8l1.3-4.3l2.4-6.8l1.3-3.4l1.3-4.7l3.7,1.2l7.1,1.9l-0.4,1.2l-0.1,0.4l-0.3,2.2l2,2.6l-3.7,11.5l-1.1-0.3l-1.9-0.5
		l-1.4,3.8l-0.7,0.9l3,0.9l2.1,0.8L402.8,396.6z"/>
	<path class="st0" d="M331,147.3l-1.7,0.4l2.4,5.1l-1.2,2.3l-0.5,1.1l-0.3,0.9l-0.3,1.3l-0.6,1.4l-0.9,1.5l-0.3,0.6l-0.2,0.3
		l-2.7,4.5l-2.3,4.3l-0.8,1.3l5,2.7l-1.8,2.8l-1.5,3.1l-3.4,1.7l-4.7,1.3l1.6,2.6l-4.1,9.4l-2.7,6.4h-5l-0.6,1.6l-0.7,1.7l-0.7-3
		v-3.8l-0.7-9.4V186l-0.3-3.4l-0.3-2.8v-3l-0.1-2.8v-0.8l-0.2-1.3l-7.4,2.6l-5.4,2.1l-4.1,1.7l-3.7,0.9l1.3-1.7l0.7-1.3l1-1.3l3-4.7
		l3.4-4.7l3.4-5.6l5.7-9.8l-0.3-4.3v-3h5.1l7.1-1.3h3.4l4.4-0.4l3.7-0.4h2.7h1.4h3l7.1-1.3v2.6l-1.7,3.4L331,147.3z"/>
	<path class="st0" d="M242.9,312.7v1.3l-0.7,2.1l-0.7,3l-0.3,2.6l-0.7,3l-0.3,0.9v2.1l-1,3.4l-6.4-1.7l-0.7,0.9l-1,1.7l-1.7,3
		l-1,2.6l-4.1-1.7l-4.7-2.1l-3.4-1.3l-1.7-0.9l4.1-8.1l1.2-2.9l3.2-5.2l0.7-1.3l1.4-1.3l1.4-1.7l0.8-1.6l1.2-1.8l2.4,0.4l6.4,1.3
		l3.6,0.5l2.8,0.4L242.9,312.7z"/>
	<path class="st0" d="M437.5,383.2l-2.4,3l-5.4,8.1l-0.3,1.3l-1.3,3l-7.8-4.3l2.4-3.8l-3.7-2.1l-3.4-1.3l1-3.8l1-1.7v-1.7l0.7-2.6
		l1-1.7l0.3-2.1l0.3-0.4l0.4-1.9l1.9,0.6l2.7,0.9l6.4,1.7l10.8,3.4l-1.3,1.3l-1.7,2.1L437.5,383.2z"/>
	<path class="st0" d="M471,499.4l1.4-1.3l0.7-0.9l2.7-1.7l1.7-2.6l1.7-1.3l0.7-0.9l2.7-1.7l0.7-1.7l1.4-0.4l2.4-2.1l2.4-2.1l2.7-2.6
		l6.8,1.7l2.7,0.9L501,487l3.6,4l2.4,2.1l2,2.6l1.4,1.7l1,0.9l2,2.1l1.7,2.1l-9.1,7.7l-1.4,1.3l-3.4,3l-4.4,3.4l-2.7,2.1l-1,1.3
		l-1-0.6l-1.7-1.1l-3-1.7l-2.7-1.7l-1-0.9l-6.7-4l-1.1-0.6l-3.3-1.9l-3.4-2.1l-3.7-2.1l3.7-3.8L471,499.4z"/>
	<path class="st0" d="M710.9,477l16.5,24l13.2,30.7l5.8,12.2l-2,0.6l-9.1,5.6l-5.4,3.4l-7.1,4.3l-4.7,2.6l-2,1.7l-3.7,2.1l-2.4,1.3
		l-2.7,1.7l-2.7,2.1l-3.4,1.7l-10.5,6.1l-14.5,8.4l-3.4,2.6l-3.7-5.1l-1.1,0.7l-2.3,1.5l-5.1,3.8l-4.1,2.6l-2,1.7l-3,2.6l0.7,2.6
		l-1,0.4l-3.4-8.5l-2.7-6.4l-3.1-8.6l-0.5-1.7l-0.1-1.3l0.1-3.5l0.4-1.9l1.2-4.4l1-2.4l1.7-3.6l0.9-1.2l4.3-5.9l1.3-2.2l0.9-1.9
		l0.5-1.9l0.4-1.5l0.2-1.3v-1l-2.3-7.5l-2-4.3L639.5,510l-7.8-16.6l-2.7-3.8l-4.1-5.5l2-1.7l3-1.3l3,0.4L630,481l50.9-47.1
		l16.7,22.3l2.4-1.3l2.4,3.4l-2,1.7l6.4,9L710.9,477z"/>
	<path class="st0" d="M302.9,202.8l0.7,3l-1.7,3l-2.4,4.3l-3.7-2.1l-2.7-1.7l-4-1.7l-3.7-1.3L279,205l-4-0.4l-2.7-1.3h-1.7l-4.7-0.9
		l-6.4-3l-1.3,0.4l-1,0.4l-1.7,0.4l1.7-4.3l2-3l1.9-2.6l2-2.1l1.1-0.8l3.4-2.1l3.1-1.7l1.6-0.9l6.4-3l2-0.9l3.7-0.9l4.1-1.7l5.4-2.1
		l7.4-2.6l0.2,1.3v0.8l0.1,2.8v3l0.3,2.8l0.3,3.4v3.4l0.7,9.4L302.9,202.8z"/>
	<path class="st0" d="M713,646.4l-4.8,1.5l-7.5-3.3l-0.6,0.4l-1.4,0.9l-7.1,9.8l-3,2.1l-2.4,0.9l-0.3-1.7l1.7-0.9l-2.4-7.7l-1.2-0.6
		l-0.5-4.2l-1.3,1h-1.1h-0.6l-1.3-6.4l-0.1-0.4l-2-3.4l-2.4-3.4h1.4h1.7l2.4,2.1l2.6-3.1l3.5-1.8l20.8,8l7.1,5.6L713,646.4z"/>
	<path class="st0" d="M574.9,378.2l0.4-10.3l1.4-5.1l7.1,3v-5.6l0.7-1.3l-0.3-2.1l-2.7,0.4l-1.7-2.6l-1.7-2.6l-0.7-10.2l12-3.7
		l1.1,0.3l0.4,0.1l6.1,2l1,3l-0.9,0.1l-4.5,0.7l1.7,1.3v0.6v1.6v1.8l-0.1,1.7l1.4,1.4l-0.3,0.9l1.1,1.1l0.1,0.6l-0.3,1.6l0.1,0.3
		l2,3.9l-0.3,4.3l-0.3,2.6l5.1-0.9l-0.3-3l1.7-1.7l2.7,0.4l6.1,0.9l5.1,6.8l-2.4,3l2.4,2.1l2.4-1.7l3.4,2.1v1.7l18.2,0.4l1,17.1
		l16.6,0.4l2.6,3.1l5.6,6.7l3.4-3.4l4.1,3.8l-6.4,12l12,16.1l-6.9,6l-7-6.8h-8.2l-9.7-5.3l-8.2-5.5l-2.9-4.8l-32.7-12.4L574.9,378.2
		z"/>
	<path class="st0" d="M576.2,672.2l-0.6-0.1l-1.5,0.3l-0.8,0.7l-0.7,1l-0.5,0.9l-0.7,1.1l-1.5,0.9l-3.1,0.3l-1,0.4l-0.5,0.7
		l-1.2,1.3l-1.1,1.4l-0.3,0.2l-2.7,2.1l-3.7,0.2l-6.3,0.3l-1.5-4l-3.2,0.3l-0.7,0.1l-0.6,0.6l-3.3,3.3h-0.9h-2.4l-1.4-0.9l-3.7-4.7
		l1.5-3.1l3-6.1l0.2-0.4l1-2.1l1.3-2.6l0.3-0.6l4.8-9.9l1.2-2.4l1.9-4l0.6-1.2l0.3-4.2v-0.5l-1.4-3.4l1.5,1.5l1,1.2l0.6,0.7l2.7,2.6
		l2.4,2.6l3,3.4l1.4,2.1l2.7,3l1.8,1.6l0.6,0.5h-2l1.4,1.3l1.7,1.7l11.4,10.9l1.1,1h-0.7L576.2,672.2z"/>
	<path class="st0" d="M420.5,488.8l-0.7,0.4l-3.4,3.4l-3,2.6l-3.4,3.4l-1.1,0.8l-0.8,0.8l-2.8,2.8l-2.2,2.3l-5.5,6l-2.2,2.3
		L377.8,494l-1.6-0.4l-3.6-1.1l-0.4-0.1l-4.4-2.8l-0.3-0.2l-11.8-6.4l-6.3-6l-5.4-5.1l-2.4-2.1l-11.8-17.5l5.4-0.9l1.3-0.2l6.1-0.7
		l3.7-0.4l3.6-1.1l2.8,9.2l0.7,1.8l1.1,1.5l0.9,1l1.3,1.3l3,2.6l3.1,2.7l2.3,1.6l1.4,0.9l1.1,0.4l1.3,0.4l3.2,1l11.4,5l0.6,0.3
		l15.8,6.9l1.9,1.2l2,2.2l2.3,3l0.8,1.3l4.7-3.4l3.7-3.4l1-0.9l0.7-0.4l1-0.6l1.4-1.1l4.7-4.3l4.4,2.6l-3,2.6l-2,1.7L420.5,488.8z"
		/>
	<path class="st0" d="M161.2,339.1l-0.8,2.6l-0.9,3.4l-1.1,5.9l-0.7,3.3l-2.1,0.7l-1.3,0.1l-3.4,0.1l-7.7-0.7l-4.7-1.2l-9.2-3.5
		l-5.9-5.3l-16.2-20.7l3.3,0.8l8.8,3.5l2.4,1.2l4.9,1.6l4.7,1.3l5.2,0.9l5.3,1.2l4.2,1.3l3.3,0.8l3.4,0.9l3.8,1.8L161.2,339.1z"/>
	<path class="st0" d="M577.8,657.1l-10.8,1.3l-2.4-0.9L564,657l-1.8-1.6l-2.7-3l-1.4-2.1l-3-3.4l-2.4-2.6l-2.7-2.6l-0.6-0.7l-0.8-1
		l-1.7-1.7l-0.7-0.9l-1.6-2.1l-2.1-1.8l-0.3-0.4l-1.7-2.1l2.4-2.1l2-2.1l1-0.9l0.7-0.4l2.7,2l1.3,1.9l4.1,4.7l0.8,1l0.6,0.7l2.2,1.9
		l1.8,1.5l3,1.7l3,2.1l1.7,2.1l2,1.7l2.7,2.6l2,2.6l4.7,4.7h-0.7L577.8,657.1z"/>
	<path class="st0" d="M431.8,469.5l-2,1.7l-2.4,2.6l-2.4,2.6l-1.7,2.1l-1.7-0.9l-1.3-0.9l-3-2.1l-3-1.7l-3.4-2.1l-3-1.7l-3-1.7
		l-1-0.9l-2.4-1.3l-3-2.1l-0.7-0.4l-2.4-1.3l-4.4-2.6l0.7-1.7l1.3-3l1.7-4.3l0.7-2.1l1.7-3.8l0.7-1.3l0.7-2.6l1.3-3.4l1.7-4.3
		l3.4,1.7l1.4,0.4l2,1.3l1.3,0.4l1.4,0.9l2.4,2.1l0.3,3l1,3.4l2.7,2.6l1,1.3l0.8,0.9l2.3,2.6l2.4,2.6l2.4,3l1.7,2.1l0.7,0.4l2.4,3
		l2.7,2.6l0.3,0.9L431.8,469.5z"/>
	<path class="st0" d="M297.2,217.7v0.9l-4.7,9l-2,4.3l-1,1.7l-3,6l-2,3.8l-3.4-1.7l-4-1.3l-3-0.9h-3l-4.4-1.3l-3.7-0.4l-4.4-1.3
		l-7.8-1.3l-1-0.4h-0.7l0.6-3.4l0.7-3.9l0.5-3l0.5-3.4l0.4-2.5l0.3-3.4l0.7-2.6l2.7-12l1.7-0.4l1-0.4l1.3-0.4l6.4,3l4.7,0.9h1.7
		l2.7,1.3l4,0.4l6.4,1.3l3.7,1.3l4,1.7l2.7,1.7l3.7,2.1l-0.7,1.7L297.2,217.7z"/>
	<path class="st0" d="M641.8,582.7l-3,1.3l-6.4,1.7l-1.7,0.7l-1.3,0.6l-3.7,0.9l-3.7,1.3l-1.7-3l-1-2.1l-2.4-4.7l-2-3.8l-1.7-3
		l-2.4-6.8l-3-12l-1-3l-1-3l-4.7-17.1l-1.4-2.1l-2.4-2.6l-2-2.6l3-1.7l4.1,3.4l8.1,1.3l1.9,0.5l3.2,0.8l6.1,5.5l4.7,3.4l2.7,5.1
		l0.7,3.8l3.5,5.4l2.9,4.4l1.7,1.7l1,1.3l1.7,3l2.4,1.3l-1.2,4.4l-0.4,1.9l-0.1,3.5l0.1,1.3l0.5,1.7l2.4,6.4L641.8,582.7z"/>
	<path class="st0" d="M392,331.5l2,4.7l-2.7,1.3l-1,0.9l-2.7,1.7l-6.8,3.4l-0.7,1.3l-4.4,3.8l-1.3,1.7l-2,1.3l-7.1-7.3l-7.1-6.8
		l-3.4-2.3l-3.7-2.4l-12.7-7.1l-1.1-0.6l-2.7-0.7l-5.2-1.7l-11-1.9l1-3.4l1.3-0.4h1.7l2.4,0.4l7.4-2.1l2-0.9l2-0.9l3.4-5.6l1.1-0.7
		l2.7-2.1l2-2.1l3.3,2.1l4.1,2.1l0.3-3.8l2,1.3l2,4.3l0.8,3.1l0.7,1.7l1.6,2.5l2-1.7l5.1,6l1.4-0.4h1.3l4.4-0.9l1.7,2.1l0.7,0.4
		l-3.4,6.8l-0.3,3l8.8-3l8.4-6l2-1.7l5.7,7.7l-1,0.9L392,331.5z"/>
	<path class="st0" d="M393.4,371.7l-2.4,6.8l-1.4,4.3l-1,3.8l-1,4.7l-3.4-0.9l-3.7-1.7l-3-2.6l-7.1-6l-1,0.9l-4.7,0.4l-3.7,1.3
		l-1,0.4l-4.4,0.9l-1.7-1.3h1l3-1.7h1l3.4-1.7l1-0.4l3-1.3l9.1-4.3l1.7-0.9l1-1.7l0.7-3l3-3l3-2.1l1.4-1.3l6.6,1.4l3.2,0.7l-1.3,4.7
		L393.4,371.7z"/>
	<path class="st0" d="M528.3,429l0.7,1.3l-5.4,0.4l2.5,0.7l-7.3-0.7l-3.7-1l-2.4-0.7l-7.8-2.1l-2.6-0.8l-2.5-0.9l-8.8-4.7l2.7-1.7
		l1.7-1.3l-3.6-4.8l-3.4-5.1l-3-3.8l-0.7-0.9l-1-1.3l-2-3l-1.3-1.7l-0.7-1.3l-2.4-2.1l-1.7-3l-2.4-3l-3.7-3.8l-3.4-3.4l2-2.1l2-2.1
		l2.7-2.1l3,3l1.3,1.7l1.4,0.9l1.7-0.9l1.7-1.7l2.9-2l3.9-2.7l2,2.6l2,3l2,2.6l2,3l2,3l2,2.1l-4.4,3.4l3.7,3.4l5.1,5.5l4.7,5.1
		l1,1.7l1.2-0.8l4.1-2.1l1-1.3l4.1,2.6l3.4,1.7l0.7,3.8l1,6.8L528.3,429z"/>
	<path class="st0" d="M464.6,393.5l2,3.4l-1.3,0.9l-2.4,2.1l-1.7,0.9l-1,0.9l-1.3,1.3l-1,0.9l-2.7,1.7l-2.7,2.1l-3.7,2.6l-4.1,3
		l-2.4-2.6l-2-3l-2-2.6l-10.1-6.4l1.3-3l0.3-1.3l5.4-8.1l2.4-3l1.7-2.1l1.7-2.1l1.3-1.3l3.4,1.3l2,1.4l1.5,1l4.3,2.7l5,4l1.5,1.2
		l2.4,2.1L464.6,393.5z"/>
	<path class="st0" d="M411.9,222.1l-6.1,0.4l-4.4,7.3l-1.6,0.8l-4.5,2.2l-1.7-3l-2.9-2.5l-1.5-1.3l-3-1.7l-3-3h0.3l-2.1-2.9l2.5-8.2
		l-1.9-0.8l-4.1,2.1l-10.8-7.7l-4.4-4.7l-4-4.3l-2.7-2.2l-5.7-4.6h-2.4h-2.7l-10.1,5.1l-5.4,1.7l-7.3,3.6l-2.1,1.1l-5.1,1.3
		l-5.1,1.7l2.7-6.4l4.1-9.4l-1.7-2.6l4.7-1.3l3.4-1.7l1.5-3.1l1.8-2.8l-5.1-2.6l0.8-1.3l2.3-4.3l2.7-4.5l0.2-0.3l0.3-0.6l0.9-1.5
		l0.6-1.4l0.3-1.3l0.3-0.9l0.5-1.1l1.2-2.3l-2.4-5.1l1.7-0.4l4-1.7l1.7-3.4v-2.6h2l1.4-0.1l15.2-1.2h1.3l6.1-0.4l1.7,1.7l2.4,3
		l1,1.7l3.7,5.6l1,1.2l2,2.3l0.6,1.1l4.2,8.3l10.9,14.5l1.9,3l2.7,5.1l1.3,2.1l6.4,9.4l7.4,8.1l1.2,2.1l6.6,12l1.7,3.4h-1.7
		l-3.4-0.9L411.9,222.1z"/>
	<path class="st0" d="M271.2,314l1,0.9l-2.7-0.4l-2-0.4l-2.4,1.7l0.7-1.7h-3.7h-3.7l-3.7-0.9l-4.1-1.3l1.7-2.6l2.4-5.1l1.4-3
		l1.7-3.4l1.7-3l3.7,2.1l0.3,1.3l4.7,8.5l2,1.7l0.2,2l0.1,1L271.2,314z"/>
	<path class="st0" d="M592.8,562.3l-1.4,1.3l-1.3,0.9l-2.9,1.6l-1,0.9l-3.4,1.7l-1.3,0.9l-2.7,1.7l-3.4,2.1l-3.4,2.1l-2.4,1.3
		l-1.7,0.9l-3.4,2.1l-0.6-1l-1.1-2l-0.4-0.7l-1.3-2.2l-0.6-0.9l-1.1-2l-0.5-0.7l-0.8-1.5l-0.6-0.9l-1-1.7l-1.4-2.1l-0.8-1.6
		l-0.9-1.5l-0.7-1.6l-1-1.7l-1-1.3l-2-1.3l-1.7-1.3l7.1-3.8l5.7-3.4l5.7-3.8l6.3-3.8l5.4-3.5l2.4,3.4l1.9,3.2l1.8,3.2l1.9,3.3
		l1.5,2.6l1.4,2.6l1.7,2.8l1.7,3.2L592.8,562.3z"/>
	<path class="st0" d="M553.4,560.9l0.9,1.5l0.8,1.6l-6.1,3.8l-5.7,3l-5.1,3.4l-5.1,3l-6.8,3.8l0.7,1.7l-3,1.7l-2.4,2.1l-5.7,4.3
		l-0.7,0.9l-4.7,3.8l-1,1.3l-11.2-12.4l1-0.9l4.7-4.3l0.7-0.9l23.7-14.5l1.4,2.6l2.7-1.7l8.1-4.7l8.1-5.1l2,1.3l1,1.3l1,1.7
		L553.4,560.9z"/>
	<path class="st0" d="M550.6,346.9l-22.5,22.2l-4.5-4.6l-6.3-8.2l-1-1.3l-8.9-11.4l-11.8-14.1l-1.7-2.6l-8.8-9l1.3-0.9l2.7-0.9
		l6.1,1.3h1.4l4.7,2.1l2.7,1.7l9.8,0.9h13.5l6.1-0.4l9.5,5.5l3.7,6.4l2.7,7.3L550.6,346.9z"/>
	<path class="st0" d="M477.4,373.8l-1.3,3l-3-3l-2.7,2.1l-2,2.1l-2,2.1l-5.4-6l-10.1-5.1l-2.7,0.9l-3.7-1.3l-3.4-1.3l-3.4-0.9
		l-3.4-1.3l-4.1-1.3l-3-1.3l-2.4-0.9h-1.3l-3.7-1.7l-2-0.4v-3l0.9-1.8l3.5-7.3l1.5-4.1l1.5-2.8l1.3-2.3l-0.3-2.7l-0.3-1.8l0.8,2.1
		l0.4,2.3l-0.5,1.8l-1.5,2.8l-0.8,2.6l1.7,1.6l2.3,0.3l3.7,0.4l2.7,0.4l2,0.4l4.1-2.6l2.4,2.1l2-3l2-2.6l8.4,6l-0.7,1.3l3,1.7
		l3.4,2.1l10.1,6.8l2.4-2.1l6.8,7.7l-2,5.1L477.4,373.8z"/>
</g>
<g id="labels-layer">
</g>
<g id="lines-layer">
</g>
<g id="region-groups-layer">
</g>
<circle class="st1" cx="525.2" cy="475.3" r="1.6"/>
<circle class="st1" cx="460.8" cy="411.9" r="1.6"/>
<circle class="st1" cx="352.6" cy="361.4" r="1.6"/>
<circle class="st1" cx="453.3" cy="363.4" r="1.6"/>
<circle class="st1" cx="454.4" cy="502.1" r="1.6"/>
<circle class="st1" cx="515.1" cy="641.6" r="1.6"/>
<circle class="st1" cx="589.8" cy="467.2" r="1.6"/>
<circle class="st1" cx="564.9" cy="386.2" r="1.6"/>
<circle class="st1" cx="604.4" cy="539.5" r="1.6"/>
<circle class="st1" cx="332.3" cy="147.2" r="1.6"/>
<circle class="st1" cx="303.1" cy="168.5" r="1.6"/>
<circle class="st1" cx="329.5" cy="344.4" r="1.6"/>
<path class="st1" d="M500.5,523.4c0.9,0,1.6,0.7,1.6,1.6s-0.7,1.6-1.6,1.6s-1.6-0.7-1.6-1.6S499.6,523.4,500.5,523.4z"/>
<circle class="st1" cx="552.9" cy="413.6" r="1.6"/>
<circle class="st1" cx="383.7" cy="313.4" r="1.6"/>
<circle class="st1" cx="281.5" cy="377" r="1.6"/>
<circle class="st1" cx="564" cy="537.7" r="1.6"/>
<circle class="st1" cx="378.1" cy="346.8" r="1.6"/>
<circle class="st1" cx="594" cy="590.6" r="1.6"/>
<circle class="st1" cx="284.8" cy="215.1" r="1.6"/>
<circle class="st1" cx="525.2" cy="564" r="1.6"/>
<circle class="st1" cx="567.1" cy="629.6" r="1.6"/>
<circle class="st1" cx="315" cy="389.5" r="1.6"/>
<circle class="st1" cx="567.5" cy="631.5" r="1.6"/>
<circle class="st1" cx="447.3" cy="474.5" r="1.6"/>
<circle class="st1" cx="531" cy="486.6" r="1.6"/>
<circle class="st1" cx="430.6" cy="378.5" r="1.6"/>
<circle class="st1" cx="357.1" cy="419.7" r="1.6"/>
<circle class="st1" cx="414.3" cy="340.3" r="1.6"/>
<circle class="st1" cx="433.3" cy="451.2" r="1.6"/>
<circle class="st1" cx="728" cy="563.3" r="1.6"/>
<circle class="st1" cx="495.3" cy="515.1" r="1.6"/>
<circle class="st1" cx="367.1" cy="190.3" r="1.6"/>
<circle class="st1" cx="227.2" cy="265" r="1.6"/>
<circle class="st1" cx="469.6" cy="475.8" r="1.6"/>
<circle class="st1" cx="376.6" cy="449.1" r="1.6"/>
<circle class="st1" cx="472.4" cy="282.9" r="1.6"/>
<circle class="st1" cx="281" cy="379" r="1.6"/>
<circle class="st1" cx="489.7" cy="392.4" r="1.6"/>
<circle class="st1" cx="421.3" cy="430" r="1.6"/>
<circle class="st1" cx="251.4" cy="362.5" r="1.6"/>
<circle class="st1" cx="505.4" cy="527.5" r="1.6"/>
<circle class="st1" cx="557.8" cy="668.5" r="1.6"/>
<circle class="st1" cx="554.6" cy="668.8" r="1.6"/>
<circle class="st1" cx="395.9" cy="395.4" r="1.6"/>
<circle class="st1" cx="395.9" cy="395.4" r="1.6"/>
<circle class="st1" cx="549.2" cy="510.9" r="1.6"/>
<circle class="st1" cx="197.8" cy="338.5" r="1.6"/>
<circle class="st1" cx="212.6" cy="280.9" r="1.6"/>
<circle class="st1" cx="485.6" cy="446.1" r="1.6"/>
<circle class="st1" cx="281.6" cy="383.6" r="1.6"/>
<circle class="st1" cx="434.7" cy="230.2" r="1.6"/>
<circle class="st1" cx="473.6" cy="281" r="1.6"/>
<ellipse class="st2" cx="550" cy="566.7" rx="7.7" ry="7.1"/>
<circle class="st1" cx="637.4" cy="523.1" r="1.6"/>
<circle class="st1" cx="354.3" cy="340.2" r="1.6"/>
<circle class="st1" cx="275" cy="220.3" r="1.6"/>
<circle class="st1" cx="296.3" cy="225.7" r="1.6"/>
<circle class="st1" cx="594.1" cy="509.8" r="1.6"/>
<circle class="st1" cx="279.7" cy="153.8" r="1.6"/>
<circle class="st1" cx="313.2" cy="238.9" r="1.6"/>
<circle class="st1" cx="150.9" cy="325.4" r="1.6"/>
<circle class="st1" cx="199.3" cy="325.6" r="1.6"/>
<circle class="st1" cx="606.7" cy="591.1" r="1.6"/>
<circle class="st1" cx="523.1" cy="376.3" r="1.6"/>
<ellipse class="st2" cx="540.4" cy="572.9" rx="7.7" ry="7.1"/>
<circle class="st1" cx="349.9" cy="407.2" r="1.6"/>
<circle class="st1" cx="634.1" cy="507.3" r="1.6"/>
<circle class="st1" cx="260.7" cy="161.7" r="1.6"/>
<circle class="st1" cx="439.2" cy="353" r="1.6"/>
<circle class="st1" cx="598" cy="370.7" r="1.6"/>
<circle class="st1" cx="634.1" cy="507.3" r="1.6"/>
<circle class="st1" cx="257" cy="286.8" r="1.6"/>
<circle class="st1" cx="376.6" cy="449.1" r="1.6"/>
<circle class="st1" cx="439.1" cy="208.3" r="1.6"/>
<circle class="st1" cx="421.3" cy="430" r="1.6"/>
<circle class="st1" cx="395.9" cy="439.1" r="1.6"/>
<circle class="st1" cx="198.7" cy="325.4" r="1.6"/>
<circle class="st1" cx="273.3" cy="303.8" r="1.6"/>
</svg>
