<?xml version="1.0" encoding="utf-8"?>
<!-- Generator: Adobe Illustrator 26.2.1, SVG Export Plug-In . SVG Version: 6.00 Build 0)  -->
<svg version="1.1" id="Layer_1" xmlns="http://www.w3.org/2000/svg" xmlns:xlink="http://www.w3.org/1999/xlink" x="0px" y="0px"
	 viewBox="0 0 1561 2399" style="enable-background:new 0 0 1561 2399;" xml:space="preserve">
<style type="text/css">
	.st0{fill:#E8F0EC;stroke:#7B6F6F;stroke-width:0.4036;}
	.st1{fill-opacity:0.5;stroke:#000000;stroke-width:1.6146;stroke-opacity:0;}
	.st2{fill:#A020F0;fill-opacity:0.5;}
</style>
<g id="globe-layer">
</g>
<g id="graticule-layer">
</g>
<g id="regions-layer">
	<path class="st0" d="M434.3,1034.3l57.1-32.5l11.1,21.7l-30.9,17.4l2.7,19.2l0.3,4.7l-2.9,0.8l-5-4.2l-2.3,1.2l-11.5-17.5l-7.9,5.8
		l5.9,8.6l4.4,7.9l6.8,12.2l-0.7,0.9l-0.3,0.9l-0.7,1.3l-6.4,8.5l-4.4-3l-2.7-2.1l-7.4-4.7l-3-2.1l-4-3.4l-0.7-0.9l-2-0.9l-3.5-3.4
		l-9.3-9l-4.4-6.4l-1-1.7l-3.7-7.3l-2-4.7l4.5-2.2l1.6-0.8l4.4-7.3l6.1-0.4l2.4-0.4l3.4,0.9l1.7,0L434.3,1034.3z"/>
	<path class="st0" d="M471.7,1040.9l54.1-30.5l6.8,1.3l5.4,1.3l2,5.1l0.3,1.7l1.4,6.4l-0.7,2.1l-1.2,1.9l-7.7-2.6l-47.4,24.8
		l3.5,16.7l-0.6,15.3l-24.8-5.8l-0.8,1.1l-6.8-12.4l11.4-5.8l5,4.2l2.9-0.8l-0.3-4.7L471.7,1040.9z"/>
	<path class="st0" d="M384.7,962.5l5,1.2l2.5,0.6l1.9,0.2l2.7,0.4l2.2,0.1l1.4-0.1l1.5-0.3l5.1-2.1l1.4-0.4l1.5-0.7l0.7-0.7l0.5-1
		l0.8-2.4l0.3-2.1l1.7-8.1l0.8-2.1l0.9-2.2l0.3-0.5l0.8-0.7l2.3-0.9l8.1-2.1l2-1.3l2.4-1.3l2.8-3.4l-14.6-23.2l2.8-9.7l19.3,23.6
		l0.7,0.4l1.3,1.3l3,3.8l1,1.5l1.2,1.6l2.7,4.3l-0.1,0.3l-0.6,1.8l3.8,5.4l-18.5,34v-0.4l-6-5.1l-3.7-1.2l-10.9,1.8l-12.7,6.3
		l-10.4-2.8l-3.5-4.6l-4.2-8.3L384.7,962.5z"/>
	<path class="st0" d="M392.9,976.3l10.4,2.8l12.7-6.3l10.9-1.8l3.7,1.2l5.9,5.1l0,0.4l-3.3,14.2l-1,6.4l-0.4,5.8l-0.2,5.3l2.4,8.5
		l-4.3,13.5l-1.7-3.4l-6.6-12l-1.2-2.1l-7.4-8.1l-6.4-9.4l-1.3-2.1l-2.7-5.1l-1.9-3L392.9,976.3z"/>
	<path class="st0" d="M209.9,1009.4l0.5,1.8l-6.2,1.6l-1.7,0l-1,0.9l-0.7-2.6l-1-3l-2-7.7l-0.7-2.1l-1.7-7.3l-1.3-6l-0.7-3l-1-3.4
		l-1-3.8l-1-2.6l-0.3-1.7l-0.3-2.6l-1-4.3l-1.3-4.7l-0.7-1.3l9.5-3l0.5,1.9l0.3,1.5l0.7,2.9l0.4,1.5l0.8,3.3l0.3,1.3l0.5,1.9
		l0.2,0.8l0.6,2.5l0.5,1.7l0.6,2.2l0.9,3.8l0.8,3.1l1,3.8l0.6,2.1l0.5,2.1l1.3,4.7l0.7,2.6l0.9,3.4l0.5,2.1l0.3,1.3l0.4,1.8
		L209.9,1009.4z"/>
	<path class="st0" d="M226.8,982.5l0,1.7l-3,2.1l-2.7,1.3l-7.1,4.3l-7.4,3.8l-1.3-4.7l-0.5-2.1l-0.6-2.1l-1-3.8l-0.8-3.1l-0.9-3.8
		l-0.6-2.2l-0.5-1.7l-0.6-2.5l-0.2-0.8l-0.5-1.9l-0.3-1.3l-0.8-3.3l-0.4-1.5l-0.7-2.9l-0.3-1.5l7.6-2.3l1,1.7l0.7,3.8l0,1.3l3-0.9
		l0.3,2.1l0.5,2l0.9,3.6l0.3,1.7l1.7-0.4l6.1-1.3l6.1-0.8l0,1.7l1,4.7l0.3,3.8l0.3,1.7l0.2,2.4L226.8,982.5z"/>
	<path class="st0" d="M253.2,1007.7l2,3l-1,0l-1.7,0.4l-6.1,1.3l-7.4,1.3l-5.7,1.7l-2.4,0.4l0.5-2l-2.2-0.1l-2.3-29.5l0-1.7l-0.1-1
		l-0.2-2.4l-0.3-1.7l-0.3-3.8l-1-4.7l0-1.7l0.3-0.1l3.7-0.8l0.7,2.1l0.3,3.8l0.3,1.3l1.7-0.4l7.4-1.3l3-0.4l3.4-0.4l1,0l0.3,2.6
		l0.7,3.8l0.7,3.4l0.3,3.8l0.7,3l0.3,3l0.3,2.6l1,3.4l0.3,3.4l1,3.4L253.2,1007.7z"/>
	<path class="st0" d="M429.6,1184.4l-1,1.7l-0.7,2.6l0,1.7l-1,1.7l-1,3.8l3.4,1.3l3.7,2.1l-2.4,3.8l-6.4-2.1l-0.3,0.9l-0.7,2.6
		l-0.7,2.6l-1,3l-1,2.6l-0.7,3l-1,2.1l-0.7,3l-0.3,0.9l-0.7,2.1l-0.3,1.3l-1,2.6l0,0.9l-1,2.1l-0.3,2.6l-0.3,1.3l-1,2.1l-1.3,4.7
		l-3-1.3l-2.7-1.3l-1,0l-3,0l-4.1-0.4l2.7-3.4l2.4-3.4l2-2.6l-2.7-1.7l5.1-6.8l-2.4-2.1l2.4-3.4l4.4-5.6l1.4-3.8l1.6-6.5l-5.1-1.7
		l0.7-0.9l1.4-3.8l1.9,0.5l1.1,0.3l3.7-11.5l-2-2.6l0.3-2.2l0.1-0.4l0.4-1.2l0.9,0.3l7.4,2.1l5.2,1.9l-0.4,1.9l-0.3,0.4
		L429.6,1184.4z"/>
	<path class="st0" d="M361.1,1193.3l-1,0.4l-3.4,1.7l-3,2.6l-0.7,0.9l-2.4,2.1l-2,1.7l-1.4,0.9l-0.3,0.9l-2.7,2.1l-1,0.9l-2.4,2.1
		l-0.7,0.9l-1.3,1.7l-1,0l-1,1.3l-1.7,1.7l-2,2.1l-3.7-1.7l3-3l-4.4-4.7l-2.7-3.4l-3.7-3.4l-2.7-3l-3-3.4l-2.7-3l-3.1-3.4l-2.7-3.4
		l3-2.6l3-3l3-3l3.4,3.4l3,3.8l3,3l3.4-2.1l3.7-3l3.4-2.6l3-2.6l3.7-3l3-2.1l2.7,3l2,2.6l3.4,3.4l3,3.8l3,2.6l4.7,5.1l-1,0l-2,1.3
		L361.1,1193.3z"/>
	<path class="st0" d="M217.6,1160.6l0.1,0.6l-0.6,0.3l-0.7,0.5l-0.5,0.3l-0.5,0.6l-1,3l-3.7-2.1l-4.3-2.1l-0.3,0.8l-0.7,1.3l-0.3,3
		l-0.6,2.2l-0.1,0.4l-1,3.8l-0.7,2.6l2,0.4l3.4,2.1l4.1,2.1l-3,6l-1.2,2.5l-1.2-1.1l-6.7-0.6l-8.5-0.9l-3.1-0.5l0.3-3.2l-2.3-0.6
		l-3.8,9.8l-2.6-1.6l0.9-4.9l-1.8-0.3l-1.9,5.7l-2,2.4l-1.5-2.4l-1.9,0.7l0.2,2.6l-7.9,2.1l-32.4-0.4l-22.3-4.7l-23-6.1l-27.3-7.2
		l-15.9-9l1.4-2.1l1.3-0.2l3.1-0.6l10.1-0.4l5.4-14.1l1-5.6l0.7-4.3l-7.1-2.1L58,1139L55,1138l-4.4,3.1l-10.1,7.2l-16,6.7l-8.8,3.4
		l-5.1-7.7l27.4-23.9l2.7,0l3,0l15.5,0.9l15.2,1.3l10.1,0.9l14.9,1.7l10.1,1.3l6.1-0.8l1.8,0.5l16.1,20.6l5.9,5.3l6.5,3l7.5,1.8
		l7.6,0.7l2,0.1l2.7-0.3l2.2-0.7l1.8-9.2l0.3-1.7l1.4-4.2l0.7,0l3.4,1.3l2,0l2.4,0.9l-2.7-4.7l-1.2-1.3l1.1-0.1l1.3,0.4l-0.7-0.7
		l-0.8-1.5l-0.5-1l-0.5-5.3l5,1.2l2.1,0.5l2.4,1.3l4.1,0.9l3.4,0.9l4,1.3l3.7,0.9l3,0.9l3.7,1.3l3.4,0.9l0.8,0.1l1.9,0.1l0.7-0.7
		l3,1.7l2,0.9l1.7,0.9l-2.5,5.4l-0.5,2.3l-0.3,2.2L217.6,1160.6z"/>
	<path class="st0" d="M326.8,1128.8l-3.7,3l-1.7,1.3l-1.4,1.3l-2,0.4l-1.7-1.7l-2.4,1.7l-8.4,4.3l-7.8,0.4l-1-2.6l-0.7-4.3l0.7-2.1
		l-4.1-0.4l-4-0.9l-2.7-1.7l-1-0.9l-2.4-3l-1-0.9l-0.7-2.6l-0.1-1l-0.2-2l4.7-2.1l2.4-3l9.5-7.7l10.1-7.3l0.4-0.3l1.7-1.4l1,1.7
		l0.2,0.3l1.2,1.9l3.6,7.9l0.3,1l2.1,9l0.4,1l1.4,1.7l3.7,4.3l5.7,5.5L326.8,1128.8z"/>
	<path class="st0" d="M500.6,1230l-1.3,0.9l-1.7,0.9l-4.1,2.6l-3,1.7l-2.4,1.7l-2.4,1.3l-3.4,2.1l-2.4,1.7l-3,2.1l-3,1.7l-3.7-4.3
		l-0.8-1l-1.2-1.5l-2.6-2.9l-2.4-2.7l-4.1-4.3l-2.1-2.5l-1.1-1.4l-2.1-2.5l1.4-1.7l4.1-3l3.7-2.6l2.7-2.1l2.7-1.7l1-0.9l1.3-1.3
		l1-0.9l1.7-0.9l2.4-2.1l1.3-0.9l5.3,6.5l4.5,5.5l1.9,1.8l3.3,3.6l0.7,0.5l1.9,1.8l1.7,1l1.3,0.8l4.1,2.1L500.6,1230z"/>
	<path class="st0" d="M587.7,1344.2l-5.4,3.4l-6.4,3.8l-5.7,3.8l-5.7,3.4l-7.1,3.8l-3.4-1.7l-4.1-2.6l-3-2.1l-2.7-1.3l-2-1.3
		l-0.8-0.6l-1.6-1.1l-0.7-0.4l-1.9-1l-2.5-1.5l-3.3-1.8l8.5-7.3l2.7-2.1l3-2.6l1.4-1.3l2-1.3l2.7-2.1l2.7-2.1l1.7-1.7l1.7-1.3l1-0.9
		l2-1.7l2.4-2.1l2.4-1.7l5.4,3.4l1.4,2.1l2,2.6l2,2.1l1.7,2.1l2,2.6l1,1.3l2.7,3l2,3L587.7,1344.2z"/>
	<path class="st0" d="M565.4,1319l-2.4,1.7l-2.4,2.1l-2,1.7l-1,0.9l-1.7,1.3l-1.7,1.7l-6.8-9l-1.7-1.7l-1.4-2.1l-9.8,8.1l-10.1,8.1
		l1,1.3l-7.1,6.4l-3-2.1l-3-2.1l-1.7-0.9l-1.4-0.9l-2-1.3l-1-0.4l-3-1.7l1-1.3l2.7-2.1l4.4-3.4l3.4-3l1.4-1.3l0.3-0.3l2.7-2.3
		l2.5-2.1l3.6-3l-1.7-2.1l-2-2.1l-1-0.9l-1.4-1.7l-2-2.6l-2.4-2.1l-3.6-4l0.7-4.3l2.2,0.5l7.2,1.8l3.7,0.9l3.7,0.4l4.4,1.3l4.4,0.9
		l3,0l9.1,2.1l7.4,0.9l3.7,0.9l3.7,0.4l4.7,0.4l13.5,3l-4.7,3.4l-7.4,6.8l-3.4,2.6l-0.7,0.4L565.4,1319z"/>
	<path class="st0" d="M454.9,1221.9l-1.4,1.7l-3,1.7l-2.4,2.1l-2.4,1.7l-1.7,0.9l-2,1.7l-1,0.9l-2.4-3.4l-3-3l-1.4-1.7l0.3-2.1
		l-1-0.4l1.4-2.6l2.4,1.3l2.4-2.6l3-1.7l5.7-2.6l2,2.6l2,3L454.9,1221.9z"/>
	<path class="st0" d="M370.6,1172.8l-1.7,2.1l-0.7,0.9l-1.7,2.6l-2,3.4l-1.7,2.1l-2.4,2.6l-3-2.6l-3-3.8l-3.4-3.4l-2-2.6l9.8-8.5
		l0.7-0.4l4.7-2.6l4.7,1.7l2,1.3l3.4,3.4l-3,3L370.6,1172.8z"/>
	<path class="st0" d="M558.3,1455.2l-0.6,1.2l-1.9,4l-1.2,2.4l-4.8,9.9l-0.3,0.6l-1.3,2.6l-1,2.1l-0.2,0.4l-3,6.1l-1.5,3.1
		l-14.9-20.9l-1-1.3l-0.3-1.3l-0.7-0.9l-1-1.3l-15.5-22.2l-1.8-2.5l3-3.4l1.7,0.4l1.4,0.4l5.4,1.7l10.1,3.8l6.4-17.5l15.6,17.1
		l1.7,2.1l0.3,0.4l2,1.7l1.7,2.1l0.7,0.9l1.4,3.4l0,0.5L558.3,1455.2z"/>
	<path class="st0" d="M283.2,948l-0.7,4.3l-1,3.8l-0.3,3.4l-0.3,2.6l0,3l-0.3,3l-0.3,3l0,3.4l-0.7,3l-0.3,3.8l0,1.3l0,3.8l-0.5,2.7
		l-0.5,2.8l0,1.3l-0.3,1.3l-3.4,2.1l-1.1,0.8l-2,2.1l-1.9,2.6l-2,3l-1.7,4.3l-2.7,12l-2.7-3.8l-2-3l-3-3.8l-2-3l-0.7-4.3l-1-3.4
		l-0.3-3.4l-1-3.4l-0.3-2.6l-0.3-3l-0.7-3l-0.3-3.8l-0.7-3.4l-0.7-3.8l-0.3-2.6l6.7-1.7l0-1.3l-1.7-3.4l0-1.7l1.7-0.9l2.4,0
		l-0.3-1.7l-0.7-3.4l-0.3-2.1l-0.3-2.6l-0.3-2.6l3.4-0.9l3,0l3-0.9l14.5-1.7l5.1-0.4L283.2,948z"/>
	<path class="st0" d="M569.1,1193.1l0.9-0.6l1.7-4.7l0.6-1.8l2.4-0.6l1.3-0.3l2.4,4.3l3.7,1.7l1.2-1.7l1.8-2.5l30.1,26.9l32.7,12.4
		l2.9,4.8l8.2,5.5l9.7,5.3l8.2,0l7,6.8l6.9-6l-50.9,47.1l-3,1.3l-2,1.7l-4.1-4.7l-5.3-4l-0.4-0.3l-9.5-5.5l-0.3-0.2l-6.8-4.1
		l-5.1-3.8l-1.4-0.9l-0.6-0.4l-3.2-2.2l-3.2-2.2l-1.6-1.1l6-6.5l-28.3-59.6L569.1,1193.1z"/>
	<path class="st0" d="M616.8,1359.5l1,3l3.2,12l2.4,6.8l1.7,3l2,3.8l-1.7,0.9l-0.7,0l-1.3,0.9l-3,1.7l-4.4,3l-3.4-6.4l-3.4-6.4
		l-4-6.3l-1.9-4.3l-0.3,0l-1.4-2.6l-1.7-3.2l-1.7-2.8l-1.4-2.6l-1.5-2.6l-1.9-3.3l-1.8-3.2l-1.9-3.2l-2.4-3.4l4.7-3l1.4-0.9l4.2-2.6
		l2-1.3l2-2.1l3.7-2.1l2,2.6l2.4,2.6l1.4,2.1l4.7,17.1L616.8,1359.5z"/>
	<path class="st0" d="M661.2,1407.8l1-0.4l-0.7-2.6l3-2.6l2-1.7l4.1-2.6l5.1-3.8l2.3-1.5l1.1-0.7l3.7,5.1l3.4-2.6l14.5-8.4l10.5-6.1
		l3.4-1.7l2.7-2.1l2.7-1.7l2.4-1.3l3.7-2.1l2-1.7l4.7-2.6l7.1-4.3l5.4-3.4l9.1-5.6l2-0.6l7.8,16l8.1,17.9l0.3,4.3l6.8-4.7l5.8,11.9
		l-7.7,33.7l-1.3,9.8l-3,0.9l-3.4,7.7l-3.7-1.3l-7.1,6.8l-6.4,6l-4.1-4.7l1.7,9.8l-3,6.4l1.4,3.4l-3,1.7l-1.4,0.4l-9.5-1.7
		l-12.6-7.7l-2-1.2l0.7-2.1l1-3.4l1-2.2l1.2-1.4l-0.5-0.3l0.4-1.7l-0.3-1.7l-0.3-0.4l-4.8,1.5l4.8-1.5l1.1-4.6l-7.1-5.6l-20.8-8
		l-3.5,1.8l-2.6,3.1l-2.4-2.1l-1.7,0l-1.4,0l-1.4-0.9l-1-0.9l-3-3.4l-1.1-1.5l-3.6-4.9l-2-3.4l-2-3l-1.6-3.8L661.2,1407.8z
		 M693.3,1438.1l-0.4,0.7l-0.3,0.8l0.3-0.8L693.3,1438.1z"/>
	<path class="st0" d="M269.7,1184.7l-1.7,3l-1.4,3.4l-0.7,0.9l-3.7-2.1l-3.7-2.1l-4-2l-3.7-2.3l-4.5-2l-1.9-1l-1.7-0.9l-4-2.1
		l-4.4-1.7l0.7-1.3l1.4-3l1.7-3l1.4-3.4l1.4-2.6l1.4-3l4.4,2.1l3.7,2.1l4,1.7l4.1,2.1l3.7,1.7l4,2.6l3.7,1.7l-1.4,2.6l4.1,2.6
		l-1.4,2.6L269.7,1184.7z"/>
	<path class="st0" d="M283.5,1177.4l2,1.3l-0.3,6.4l-5.1-2.5l-7.8-3.9l-4.1-2.6l1.4-2.6l-3.7-1.7l-4-2.6l-3.7-1.7l-4.1-2.1l1.4-3
		l1.4-3l1.4-3l4,2.1l4.4,2.1l3.7,2.1l3.7,2.1l1,0l1.7,3l2.4,3.8l1.4,1.3l4.7,2.6l1.4,0.4l1.7,1.3l-2.4,0L283.5,1177.4z"/>
	<path class="st0" d="M422.6,899.6l-2.8,9.7l14.6,23.2l-2.8,3.4l-2.4,1.3l-2,1.3l-8.1,2.1l-2.3,0.9l-0.8,0.7l-0.3,0.5l-0.5,1.1
		l-19.9-17.3l-22.9,13.5l-0.5-5.4l-0.3-4.3l-0.3-3l-0.7-1.7l-9.5,0.9l-3-0.4l-2,0.4l-3.4,0l-5-0.4l-1.1-0.9l-0.8-0.7l-0.9-0.6
		l-3-4.3l-1.7,0.9l0.3-2.1l-0.1-0.6l-0.6-5.8l2.7-0.9l3.7,1.7l1.3-0.4l2.5-0.8l11.9-5.9l2.2-1.1l1.4-0.7l2-0.4l7.1-3l4.4-4.3l0.9-1
		l1.4-1.6l3.4-3.8l0.3-0.4l10.6-10.4l2.5-2.4l9.1-8.9l4.7,5.1l5.4-1.3l10.8,9.4l-4.7,3l-7.8,9.4l3.7,2.6L422.6,899.6z"/>
	<path class="st0" d="M227.4,1078.4l0.6,2l-2.5,0l-3.7-0.9l-3.4-1.3l-4.1-0.9l-2.7-1.3l-4.1-0.9l-4.1-0.9l-2.7-0.9l-1.4,2.1l-3,3.4
		l-2.4,3.8l-1.7,3l-3.7,6l-2,3.8l-0.3,2.6l-1.3-0.4l-4.4-2.6l-4-2.6l-4.4-2.6l-1.9-1.5l-0.8-0.6l-0.9-0.6l-2.1-1.4l-0.4-0.2
		l-1.9-1.1l4.8-5.1l1.6-1.8l1.3-1.5l0.6-1.2l2-2.8l1.2-1.3l1.2-4.1l1.8-6.3l0.5-3.3l0-0.9l0-0.8l0.4,0.2l0.3-1.1l0.6-1.5l-1.3-0.8
		l0-1.3l0.2-5.1l0.1-3.7l-0.9-1.3l-0.6-1l1.5,0.4l3.7,1.3l4.4,1.3l2,0.6l2.1,0.7l4.4,1.3l2.4,1.3l1.7,0.4l8.4,3l1.4,0.4l3,0.9l1-0.4
		l4.1,1.7l3.4,0.9l0.2,0.8l0.3,1.1l0.4,2.2l0.9,4.1l0.4,1.7l0.6,2.1l1,3.4l0.8,3.3l0.4,1.4l0.5,2.1L227.4,1078.4z"/>
	<path class="st0" d="M362.5,1158.3l-5.1,1.3l-3.4,0.4l-6.1,0.9l-1.7,0.4l-6.1,2.1l-5.1,1.3l-2.7,0.4l-2,0.9l-1.4,0l-3,1.3l-4.1,0.4
		l-0.7,0.4l-3.4,0.9l-1.1,0.2l-1.2,0.2l-5.4,1.3l-6.1-3.4l-1.7-0.9l0-6l1.4-2.1l3-5.5l6.1-1.7l2.4-3l2.4,0.9l-3.6-1.8l4.1-12.4
		l1.9-0.4l1.3-1.3l1.7-1.3l3.7-3l2,0.9l11,1.9l5.2,1.7l2.7,0.7l1.1,0.6l12.7,7.1l3.7,2.4l3.4,2.3l7.1,6.8l-1.7,1.7l-2.4,2.1
		l-2.7,0.4L362.5,1158.3z"/>
	<path class="st0" d="M531.3,1347.2l-4.1,7.3l-5.7,5.1l-6.1,5.1l-5.7,4.7l-6.8,5.1l-2.7-0.9l-3.7-4.7l-4.1-4.3l-6.8-6.8l1-1.3
		l7.4-8.1l3-3l3.4-2.6l1.7-1.3l1.3-1.1l4.1-3.5l3.1-2.7l1.7,0.9l3,2.1l3,2.1l2.4,1.3l2.7,1.7l1.7,0.9l0.9,0.6l1.8,1.1l1,0.8
		L531.3,1347.2z"/>
	<path class="st0" d="M528.9,1440.3l-18.6-6.4l-3,3.4l-2.4-3l-1.7-2.8l-0.6-1l-1.9-2.9l-1.6-2.2l-3.3-5.2l-12.8-17.9l-18.5-26.6
		l-1.3-2.1l-3.4-5.3l-4.6-6.6l-3.1-4.3l-5.1-6.8l-1.7-2.1l4.4-1.7l-4.1-9.4l-8.1,0l-1.3-1.9l-0.4-0.4l-6.5-11.5l-2.2-3.7l-4.9-8.1
		l-2-4.3l3.4-3.4l3-2.6l3.4-3.4l2,2.6l2.7,3l2.4,2.6l2.4,2.6l1.4,1.3l3,3.4l3,3l2,2.1l2,2.1l2,2.6l2.4,1.7l0.8-0.9l2.7-2.6l2.7-2.1
		l10.1-8.1l3.7,2.1l7.1,4.3l-17.8,15.9l5.2,5.6l-0.7,0.9l16.2,17.9l6.8,6.8l4.1,4.3l3.7,4.7l2.7,0.9l-0.3,12l4.6,5.2l1.4,1.6
		l11.2,12.4l15.6,17.1L528.9,1440.3z"/>
	<path class="st0" d="M541.1,1489.8l-18.6-12l-8.8-4.7l-8.7-4.7l-0.7-15l7-10.7l13.2,19.2l1,1.3l0.7,0.9l0.3,1.3l1,1.3l14.9,20.9
		l3.7,4.7L541.1,1489.8z"/>
	<path class="st0" d="M612.9,1396.3l-3.4,1.7l-3.7,2.6l-3.7,2.6l-3,1.7l-3.7,2.1l-3.4,2.1l-3.7,2.6l-2-3l-1.7-3.4l-1.7-2.6l-1.7-3
		l-1.8-3.4l-1.7-2.6l-0.5-1.3l-1-1.9l-1.2-2l3.4-2.1l1.7-0.9l2.4-1.3l3.4-2.1l3.4-2.1l2.7-1.7l1.3-0.9l3.4-1.7l1-0.9l3-1.7l1.4-0.9
		l1.3-1.3l2,4.3l3.9,6.4l3.4,6.4l3.4,6.4L612.9,1396.3z"/>
	<path class="st0" d="M538.3,1178l22.5-22.3l3.4,2.6l3-3l4.4,2.1l-1.4,3.8l10.7,6.6l2.4,1.5l3.4,2.1l-1.4,5.1l-0.3,10.2l-1.8,2.6
		l-1.2,1.7l-3.7-1.7l-2.4-4.3l-1.3,0.3l-2.4,0.6l-0.6,1.8l-1.7,4.7l-4.7,3l-7-6l-1.5-1.3l-4-0.7l-3.7-0.6l-0.7-1.7l-2.7-4.3l-6.1-3
		L538.3,1178z"/>
	<path class="st0" d="M416.8,1114.6l-2,3.4l-1.8,1.9l-1.9,2l-1.2,1.3l-3.9,4.3l-3.4,2.1l-2,1.7l-8.4,6l-8.8,3l0.3-3l3.4-6.8
		l-0.7-0.4l-1.7-2.1l-4.4,0.9l-1.3,0l-1.4,0.4l-5-5.9l-2,1.7l-1.7-2.6l-0.7-1.7l-0.7-3l-2-4.2l-2.1-1.3l-0.3,3.8l-4-2.1l-3.4-2.1
		l1-1.3l2.4-2.6l0.7-0.9l3,1.7l13.8,0.9l3.4,0.4l1,1.3l-0.9-1.3l-2.7-6.8l3-1.3l9.1,2.6l13.4,3.8l7.4,2.1l1.4,0.4l4.7,1.3l4.1,1.3
		L416.8,1114.6z"/>
	<path class="st0" d="M474.5,1190.8l-2,2.1l-2.4,2.1l-1.5,1.8l-5-4l-4.3-2.7l-1.5-1l-2-1.4l-3.4-1.3l-10.8-3.4l-6.4-1.7l-2.7-0.9
		l-1.9-0.6l0.6-1.9l0.3-0.9l0.3-1.7l1.7-4.7l1.4,0l2.4,0.9l3,1.3l4.1,1.3l3.4,1.3l3.4,0.9l3.4,1.3l3.7,1.3l2.7-0.9l10.1,5.1l5.4,6
		L474.5,1190.8z"/>
	<path class="st0" d="M274.1,1129.2l-1,3.8l-0.3,6.4l-4.1-4.7l-3.4,6.8l-1.7,4.7l-3,6l-2.4,4.3l-1.4,3l-1.4,3l-1.4,3l-4-1.7
		l-3.7-2.1l-4.4-2.1l-1.4,3l-4.1-2.1l-4-2.1l-3.7-1.7l1.4-3l1.7-3l1.4-2.6l1.4-3.4l4.1,1.7l1-2.6l1.7-3l1-1.7l0.7-0.9l6.4,1.7l1-3.4
		l0-2.1l0.3-0.9l0.7-3l0.3-2.6l0.7-3l0.7-2.1l0-1.3l0.7-2.6l3.7,1.3l3.4,0.4l4.1,1.3l3.7,0.9l3.7,0l3.7,0l-0.7,1.7l-0.3,0.9
		L274.1,1129.2z"/>
	<path class="st0" d="M637.9,1431.7l1.4,3.4l-5.7,1.3l-4.4,2.1l-0.3,0l-5.1,1.7l-1.4,0.4l-5.1,2.6l-7.8,4.3l-3.7-6.4l-0.7-1.3
		l-1-1.3l-1.5-1.9l-1.5-3.2l-1.5-2.7l-0.9-1.6l3.4-1.3l1-0.4l4.7-1.3l7.8-3l8.5-2.6l-1-3l5.1-2.1l1.2,2l3.9,6.5l1.7,2.6l1.4,3
		L637.9,1431.7z"/>
	<path class="st0" d="M331.4,1220.6l-1.7,1.3l-5.4-1.7l-5.7-2.6l-2-0.9l-3-2.6l-4.7-2.6l-4.1-1.3l-4.4-2.1l-1.7-1.3l-1.4-1.3l-2.7-3
		l-0.8-0.8l-2.3-2.6l3.4-3l3-3l3.4-3l2.7-2.6l3.4-3l2.7,3.4l3,3.4l2.7,3l3,3.4l2.7,3l3.7,3.4l2.7,3.4l4.4,4.7l-3,3l3.7,1.7l-0.7,1.7
		L331.4,1220.6z"/>
	<path class="st0" d="M601.8,1334.3l-2,2.1l-2,1.3l-4.1,2.6l-1.3,0.9l-4.7,3l-2-3l-2-3l-2.7-3l-1-1.3l-2-2.6l-1.7-2.1l-2-2.1l-2-2.6
		l-1.4-2.1l-5.4-3.4l1-0.9l0.7-0.4l3.4-2.6l7.4-6.8l4.7-3.4l2.4,1.7l2,1.7l0.3,0.4l2.7,2.6l2,2.1l2.7,2.1l2,2.6l2,3l2,3l1,1.7
		l0.3,0.6l3.4,5.8L601.8,1334.3z"/>
	<path class="st0" d="M640.3,1307.8l-3,1.3l-2.7,0.9l-2.7-4.7l-2,4.3l0.7,5.6l-7.4-0.8l5.7,3.8l-1.5,0.9l-2.2,1.3l-4.4-1.3l-2,2.1
		l1.4,3l-1.3,0.4l-4.4,2.6l-3.7,2.1l-2,1.3l-3,1.7l-3.4-5.8l-0.3-0.6l-1-1.7l-2-3l-2-3l-2-2.6l-2.7-2.1l-2-2.1l-2.7-2.6l-0.3-0.4
		l-2-1.7l-2.4-1.7l3.7-3.4l3.4-3.8l0.7-2.1l2.4-5.1l0.7-0.9l-3-6.8l0.7-0.9l2.4,0l3,1.3l4.1-1.7l1-1.7l0.7-0.9l4.7-4.3l1.7-0.4
		l6.8,4.1l0.3,0.2l9.5,5.5l0.4,0.3l5.3,4l2.4,7.3l2.4,1.7l1.7,2.1l4.1,7.7L640.3,1307.8z"/>
	<path class="st0" d="M586.4,1408.7l2,3l-6.1,3l-2.4,1.7l-3.4,2.1l-3,1.7l-3,1.7l-2.7,1.7l-1.4,0.9l-3,3l-2,2.1l-3.4,3.4l-1,1.3
		l-0.7,0.4l-1,0.9l-2,2.1l-2.4,2.1l-15.6-17.1l-15.6-17.1l1-1.3l4.7-3.8l14.5,15.4l0.7-0.9l8.8-5.1l1.7-0.8l2.7-1.7l2.4-1.3l1-0.4
		l3-1.7l2.7-1.7l3-1.7l5.7-3.4l5.7-3.4l1.7,2.6l2,3.4l1.7,3l1.7,2.6L586.4,1408.7z"/>
	<path class="st0" d="M498.4,1285.6l3.7,3.4l-8.8,0.4l-3.7,0l-4.1,0l-3.7,0l-3.4,0l-7.8,0l2-3.8l1-1.3l1.7-3.4l2.7,0l-2-8.1
		l-1.7-5.1l-0.7-3l-1.7-1.7l-3-3.4l-2.7-3l1-1.3l1-1.3l1.3-1.7l1.2-1.7l1.2-1.8l1.7-2.1l2,1.3l4.1,5.1l2,2.1l2,2.1l2.7,2.6l3.4,4.7
		l-2,1.7l-3.4,3l2,2.1l1.7,2.1l1,1.3l1,0.9l2.7,3l1.4,2.1L498.4,1285.6z"/>
	<path class="st0" d="M497.2,1293.7l-2.4,2.1l-1.4,0.4l-0.7,1.7l-2.7,1.7l-0.7,0.9l-1.7,1.3l-1.7,2.6l-2.7,1.7l-0.7,0.9l-1.4,1.3
		l-2,1.3l-3.7,3.8l-3.7-2.1l-2.4-1.7l-1.7-0.9l-3-2.1l7.1-12.8l-1-0.9l0-3.4l7.8,0l3.4,0l3.7,0l4.1,0l3.7,0l8.8-0.4l-2.7,2.6
		L497.2,1293.7z"/>
	<path class="st0" d="M309.2,954.8l0.3,4.3l-5.7,9.8l-3.4,5.6l-3.4,4.7l-3,4.7l-1,1.3l-0.7,1.3l-1.3,1.7l-2,0.9l-6.4,3l-1.6,0.9
		l-3.1,1.7l0.3-1.3l0-1.3l0.5-2.8l0.5-2.7l0-3.8l0-1.3l0.3-3.8l0.7-3l0-3.4l0.3-3l0.3-3l0-3l0.3-2.6l0.3-3.4l1-3.8l0.7-4.3l-0.3-2.1
		l6.4-1.3l3.7-0.9l4,0l3.7-0.9l3.4-0.4l2-0.4l1.3,9.4l-0.3,1.3l2-0.9L309.2,954.8z"/>
	<path class="st0" d="M559,1363.9l-8.1,5.1l-8.1,4.7l-2.7,1.7l-1.4-2.6l-23.7,14.5l-0.7,0.9l-4.7,4.3l-1,0.9l-1.4-1.6l-4.6-5.2
		l0.3-9.8l0-2.1l6.8-5.1l5.7-4.7l6.1-5.1l5.7-5.1l4.1-7.3l3.3,1.8l2.5,1.5l1.9,1l0.7,0.4l1.6,1.1l0.8,0.6l2,1.3l2.7,1.3l3,2.1
		l4.1,2.6l3.4,1.7L559,1363.9z"/>
	<path class="st0" d="M668.7,1418.9l-1.7,3l-0.7,1.4l-0.4,0.8l-1,0.4l0.7,0.9l-2.4,1.3l-2.2-0.3l-0.8-0.1l-2.4-1.7l-2.7-1.7
		l-3.4-2.6l-2-2.1l-1-0.9l-1.4-2.1l-3-3l-4.7-3.8l-3.7-3.4l-2-3.8l-1-1.3l-0.7-1.7l3.7-1.3l3.7-0.9l1.3-0.6l1.7-0.7l6.4-1.7l3-1.3
		l2.3-0.9l0.8,2.1l2.7,6.4l3.4,8.5l7.9,10.3L668.7,1418.9z"/>
	<path class="st0" d="M502.6,1023.5l-11.1-21.7l-27.3-10.5l2.3-0.7l-6-41.1l6.6,1.2l8.4,1.7l1.9,3l6.2,9.8l3.7,4.3l4.7,3.8l5.4,5.1
		l1.7,1.3l5.1,5.1l0,3.4l-1.7,2.1l1.3,0.7l0.5,0.7l0.5,0.5l0.8,0.3l0.7,0.4l0.4,0.7l0.3,0.5l0.2,0.6l0.1,0.4l0.7,0.3l0.3,0.1
		l0.3,0.4l0.1,0.3l0,0.6l0,0.3l7.2,4l0.7,0.9l6.4,6.8l2.5,1.6L502.6,1023.5z"/>
	<path class="st0" d="M470.7,1289.4l0.1,3.4l1,0.9l-7.1,12.8l-3-1.7l-3-1.7l-2-1.3l-1-0.9l-1.7-0.9l-1.7-1.3l-1.4-0.9l-0.7-0.4
		l-1.3-0.9l-4.1-2.6l-3.4-1.7l-2.7-2.1l-4.4-2.6l-0.7-0.4l1.7-2.1l2.4-2.6l2.4-2.6l2-1.7l2-2.1l5.7-0.4l2.6-0.4l3-4.2l5.4-6.8
		l4.1-5.6l1.3-2.1l2.7,3l3,3.4l1.7,1.7l0.7,3l1.7,5.1l2,8.1l-2.7,0l-1.7,3.4l-1,1.3L470.7,1289.4z"/>
	<path class="st0" d="M578.8,1302.3l3.7,2.6l-13.5-3l-4.7-0.4l-3.7-0.4l-3.7-0.9l-7.4-0.9l-9.1-2.1l-3,0l-4.4-0.9l-4.4-1.3l-3.7-0.4
		l-3.7-0.9l-7.1-1.7l-2.4-0.4l-2.7-0.9l-6.8-1.7l2-1.7l1.3-0.9l1-1.3l1-0.9l1.4-1.3l1.7-1.3l1.7-2.1l2.4-1.7l3.4-3l2.7-2.1l2.4-2.1
		l1-0.9l1.4-0.9l2.4-2.6l1.4,2.1l2.4,2.6l1.7,2.1l2,2.1l3.7-0.4l3-1.7l2.7,1.7l3,2.1l3.4,2.1l2,1.7l3,2.6l1.4,1.7l2.7,2.1l2.4,2.1
		l4.7,6l3.4,2.6L578.8,1302.3z"/>
	<path class="st0" d="M434.4,1287.7l-4.7,4.3l-1.4,1.1l-1,0.6l-0.7,0.4l-1,0.9l-3.7,3.4l-2.4,1.7l-2.3,1.7l-0.4-0.6l-0.4-0.7l-2.3-3
		l-1.9-2.2l-1.9-1.2l-15.9-7l0.4-1.1l1.9-6.4l0.7-1.3l0.4-1.7l0.3-0.9l1.7-4.3l1.4-3.8l4.4,2.6l2.4,1.3l0.7,0.4l3,2.1l2.4,1.3l1,0.9
		l3,1.7l3,1.7l3.4,2.1l3,1.7l3,2.1l1.4,0.9l1.7,0.9L434.4,1287.7z"/>
	<path class="st0" d="M229.2,1013.7l-7.4-1.2l-1-0.2l-0.7-0.2l-1.6-0.3l-2.7,0.7l-1.5,0.4l-1.1,0.3l-2.2,0.6l-0.4-2l-0.1-0.5
		l-0.5-1.8l-0.6-2.5l-0.4-1.8l-0.3-1.3l-0.5-2.1l-0.9-3.4l-0.7-2.6l7.4-3.8l7.1-4.3l2.7-1.3l3-2.1L229.2,1013.7z"/>
	<path class="st0" d="M436,1142.5l0.3,1.8l0.3,2.7l-1.3,2.3l-1.5,2.8l-1.5,4.1l-3.5,7.3l-0.9,1.8l0,3l2,0.4l3.7,1.7l-1.7,4.7
		l-0.3,1.7l-0.3,0.9l-0.6,1.9l-5.2-1.9l-7.4-2.1l-0.9-0.3l-7.1-1.9l-3.7-1.2l-3.2-0.7l-6.6-1.4l-5.7-1.7l-1.3-0.9l-6.8-7.2l2-1.3
		l1.3-1.7l4.4-3.8l0.7-1.3l6.8-3.4l2.7-1.7l1-0.9l2.7-1.3l-2-4.7l5.1-2.1l1-0.9l-5.7-7.7l3.4-2.1l3.9-4.3l1.2-1.3l1.9-2l1.8-1.9
		l2-3.4l3.7-1.3l8,2.3l3.9,1.1l4.7,0.4l0.7-0.9l3,1.7l1.4,1.3l-2,2.6l-2.5,3.9l-0.5,0.8l-0.9,3.2l-0.7,5.9l-0.1,4l0.1,1.3
		L436,1142.5z"/>
	<path class="st0" d="M610.5,1329.2l3.7-2.1l4.4-2.6l1.4-0.4l-1.4-3l2-2.1l4.4,1.3l2.2-1.3l1.5-0.9l-5.7-3.8l7.4,0.8l-0.7-5.6l2-4.3
		l2.7,4.7l2.7-0.9l3-1.3l1-0.9l-4.1-7.7l-1.7-2.1l-2.4-1.7l-2.4-7.3l4.1,4.7l4.1,5.5l2.7,3.8l7.8,16.6l10.5,17.9l2,4.3l2.3,7.5l0,1
		l-0.2,1.3l-0.4,1.5l-0.5,1.9l-0.9,1.9l-1.3,2.2l-4.3,5.9l-0.9,1.2l-1.7,3.6l-1,2.4l-2.4-1.3l-1.7-3l-1-1.3l-1.7-1.7l-2.9-4.4
		l-3.5-5.4l-0.7-3.8l-2.7-5.1l-4.7-3.4l-6.1-5.5l-3.2-0.8l-1.9-0.5l-8.1-1.3l-4.1-3.4L610.5,1329.2z"/>
	<path class="st0" d="M324.3,1120.9l-0.9,1.5l-0.3,1.7l-3.7-4.3l-1.4-1.7l-0.4-1l-2-8.7l-0.2-0.4l-0.3-1l-3.6-7.9l-1.2-1.9l-0.2-0.3
		l-1-1.7l-4.4-7.7l-0.9-0.7l-1.1-1l-0.7-0.4l1-0.4l1-0.4l2.4-2.6l7.4-3.8l5.4-1.7l3.8-1.1l3.3,2.8l6.2,6.9l2.7,1.7l2,1.7l-1,2.1
		l0,2.1l-0.7,1.7l-1.9,6.1l-0.3,1.1l-1,1.3l-0.3,1.3l-1.7,4.7l-0.3,0.9L324.3,1120.9z"/>
	<path class="st0" d="M457.3,1238.2l-2.7,2.1l-2.7,2.6l-7.4,7.3l-7.4,6.4l-2.7,2.6l-2.7,2.6l-2.3-2.6l-0.8-0.9l-1-1.3l-2.7-2.6
		l-1-3.4l-0.3-3l1.3-1.7l1.4-1.7l3-3l2-1.7l4.1-3.4l2-0.9l0.7-0.9l1.3-0.9l1.7-1.3l1-0.9l2-1.7l1.7-0.9l2.4-1.7l2.4-2.1l3-1.7
		l2.1,2.5l1.1,1.4l2.1,2.5l4.1,4.3l-2.7,1.7L457.3,1238.2z"/>
	<path class="st0" d="M401.2,1267.6l-1.4,3.8l-1.7,4.3l-3-3l-2.7-2.6l-2.7-1.7l-3.7-3l-10.5-10.3l-3-2.6l-1.3-0.9l-2.1-2l-1.3-1
		l-3.4-2.6l3-3.8l3.4,2.6l1.4,1.7l2,1.3l4.4,3.4l3.7,2.6l2.4,1.7l2.7,2.1l5.4-6.8l2.4-3l6.8-9.4l3,0l1,0l2.7,1.3l3,1.3l-1.7,4.3
		l-1.3,3.4l-0.7,2.6l-0.7,1.3l-1.7,3.8l-0.7,2.1l-1.7,4.3l-1.3,3L401.2,1267.6z"/>
	<path class="st0" d="M548.8,1332.7l-2,1.3l-1.3,1.3l-3,2.6l-2.7,2.1l-8.5,7.3l-2.3-1.4l-1-0.8l-1.8-1.1l-0.9-0.6l-1.7-0.9l-2.7-1.7
		l-2.4-1.3l7.1-6.4l-1-1.3l10.1-8.1l9.8-8.1l1.4,2.1l1.7,1.7l6.8,9l-2.7,2.1L548.8,1332.7z"/>
	<path class="st0" d="M576.1,1390.6l1,1.9l0.5,1.3l-5.7,3.4l-5.7,3.4l-3,1.7l-2.7,1.7l-3,1.7l-1,0.4l-2.4,1.3l-2.7,1.7l-1.7,0.8
		l-8.8,5.1l-0.7,0.9l-14.5-15.4l0.7-0.9l5.7-4.3l2.4-2.1l3-1.7l-0.7-1.7l6.8-3.8l5.1-3l5.1-3.4l5.7-3l6.1-3.8l1.4,2.1l1,1.7l0.6,0.9
		l0.8,1.5l0.5,0.7l1.1,2l0.6,0.9l1.3,2.2l0.4,0.7l1.1,2l0.6,1L576.1,1390.6z"/>
	<path class="st0" d="M394.9,1205.7l-2,2.6l-0.7,0.9l-2,2.6l-3,2.1l-3,3l0,0.9l-2.4,2.6l-4.7-3.8l-3.7-3l-3.7-2.1l-3.4-3l-3.4-2.6
		l-3.7-2.6l-3.7-3l-2.4-1.3l0.7-0.9l3-2.6l3.4-1.7l1-0.4l1-0.4l2-1.3l1.7,1.3l4.4-0.9l1-0.4l3.7-1.3l4.7-0.4l1-0.9l7.1,6l3,2.6
		l3.7,1.7l3.4,0.9L394.9,1205.7z"/>
	<path class="st0" d="M372.5,940.1l22.9-13.5l19.9,17.3l-0.4,1l-0.8,2.1l-1.7,8.1l-0.3,2.1l-0.8,2.4l-0.5,1l-0.7,0.7l-1.5,0.7
		l-1.4,0.4l-5.1,2.1l-1.5,0.3l-1.4,0.1l-2.2-0.1l-2.7-0.4l-1.9-0.2l-2.5-0.6l-5-1.2l-0.1-0.3l-2-2.3l-1-1.2l-3.7-5.6l-1-1.7l-2.4-3
		l-1.6-1.8l-0.3-4.7L372.5,940.1z"/>
	<path class="st0" d="M253.5,1071.4l-1,4.2l-0.3,2l-0.4,1.9l-0.2,1.1l-1.1,6.4l-0.3,1.9l-0.1,0.3l-1.2,8.9l-0.7,3.8l-1,2.1l-4.7,6.8
		l-3.7,5.5l-1.7-0.9l-1-4.7l-1.3-3.8l-0.7-0.9l-0.6-2.9l-0.4-1.8l-0.3-1.3l-0.6-2.1l-0.3-1.1l-0.5-2.2l-0.7-3.5l-0.5-1.8l-0.5-2.5
		l-0.9-4.1l-0.7-2.3l-0.6-2l-0.5-2.2l-0.5-2.1l-0.4-1.4l-0.8-3.3l-1-3.4l-0.6-2.1l-0.4-1.7l-0.9-4.1l-0.4-2.2l11,3.4l0.7,0.2
		l3.4,1.3l8.8,2.1l2.8,0.8l3,0.9l1.7,0.5l1.7,0.4l-0.3,1.3l-0.1,0.3l-0.2,0.6l-0.7,2.7L253.5,1071.4z"/>
	<path class="st0" d="M626.4,1412.5l1.7,3l-5.1,2.1l1,3l-8.5,2.6l-7.8,3l-4.7,1.3l-1,0.4l-3.4,1.3l-0.5-0.9l-1.2-2.1l-0.9-1.3
		l-0.8-1.2l-1.7-2.6l-1-1.3l-0.7-1.3l-1.2-2.4l-0.8-1.5l-1.7-3l3.7-2.6l3.4-2.1l3.7-2.1l3-1.7l3.7-2.6l3.7-2.6l3.4-1.7l3-1.7l3,5.1
		l2.7,4.3l3,4.7l0.7,1.7L626.4,1412.5z"/>
	<path class="st0" d="M333.1,1181.3l-3.7,3l-3.4,2.1l-3-3l-3-3.8l-3.4-3.4l-2.7-3.4l-3.7-2.1l5.4-1.3l1.2-0.2l1.1-0.2l3.4-0.9
		l0.7-0.4l4.1-0.4l3-1.3l1.4,0l2-0.9l2.7-0.4l5.1-1.3l6.1-2.1l1.7-0.4l6.1-0.9l3.4-0.4l5.1-1.3l6.4-0.9l-0.3,2.1l3,2.1l-2.7,2.6
		l-4.7-1.7l-4.7,2.6l-0.7,0.4l-9.8,8.5l-2.7-3l-3,2.1l-3.7,3l-3,2.6L333.1,1181.3z"/>
	<path class="st0" d="M469.8,1252.3l-1.4,1.7l-1,1.3l-1,1.3l-1.4,2.1l-4.1,5.6l-5.4,6.8l-3,4.3l-2.7,0.4l-5.7,0.4l-0.3-0.9l-2.7-2.6
		l-2.4-3l-0.7-0.4l-1.7-2.1l-2.4-3l-2.4-2.6l2.7-2.6l2.7-2.6l7.4-6.4l7.4-7.3l2.7-2.6l2.7-2.1l3-2.1l2.7-1.7l2.4,2.7l2.6,2.9
		l1.2,1.5l0.8,1l3.7,4.3l-1.7,2.1l-1.2,1.8L469.8,1252.3z"/>
	<path class="st0" d="M376.8,1109.6l-13.8-0.9l-3-1.7l-0.7,0.9l-2.4,2.6l-1,1.3l-2,2.1l-2.7,2.1l-1,0.9l-3.4,5.5l-2,0.9l-2,0.9
		l-7.4,2.1l-2.4-0.4l-1.7,0l-1.4,0.4l-1,3.4l-5.7-5.5l0.3-1.7l1-1.3l5.7-11.1l0.3-0.9l1.7-4.7l0.3-1.3l1-1.3l0.3-1.1l1.7-6.2
		l0.7-1.7l0-2.1l1-2.1l2.7,1.7l2.4,0.9l3.7,1.3l6.1,1.7l3.7,1.3l6.1,1.7l3,0.4l4.7,0.9l4.4,1.3l2,0.9l4.3,1.3l-3,1.2l2.7,6.8
		L376.8,1109.6z"/>
	<path class="st0" d="M274.1,1165l-3.7-2.1l-3.7-2.1l-4.4-2.1l-4-2.1l2.4-4.3l3-6l1.7-4.7l3.4-6.8l4.1,4.7l0.3-6.4l1-3.8l1-3.8
		l0.3-0.9l2.4-1.7l2,0.4l2.7,0.4l2.4,3l1,0.9l2.7,1.7l4,0.9l4.1,0.4l-0.7,2.1l0.7,4.3l1,2.6l-1.7,3l-0.3,3.4l-7.4,3.4l-8.4-9.4
		l-0.7-14.9l-2.7,1.3l-2.4,9l3.4,11.1l3,3.4l1,1.3l-2.7,18.8l7.8,4.7l2.4-2.6l1.7-1.7l8.1-1.7l3.4-9.8l4.3-6.6l0.4,0.6l-3,5.6
		l-1.4,2.1l0,6l-2,2.6l-1.3,0.9l-2-0.9l-4.7,1.7l-4.4,4.3l-1,0.9l-1.7,0l-4.7-2.6l-1.4-1.3l-2.4-3.8l-1.7-3L274.1,1165z"/>
	<path class="st0" d="M663.3,1426.5l-1.2,0.2l-5.9,1.1l-3,1.3l-3,1.7l-4.4,1.7l-6.4,2.6l-1.4-3.4l-1.7-2.1l-1.4-3l-1.7-2.6l-3.9-6.5
		l-1.2-2l-1.7-3l-1-2.1l-0.7-1.7l-3-4.7l-2.7-4.3l-3-5.1l4.4-3l3-1.7l1.3-0.9l0.7,0l1.7-0.9l2.4,4.7l1,2.1l1.7,3l0.7,1.7l1,1.3
		l2,3.8l3.7,3.4l4.7,3.8l3,3l1.4,2.1l1,0.9l2,2.1l3.4,2.6l2.7,1.7l2.4,1.7l0.8,0.1L663.3,1426.5z"/>
	<path class="st0" d="M502.2,1221.5l3.7,4.7l-1.7,1.3l-2.7,1.7l-4.1-2.1l-1.3-0.8l-1.7-1l-1.9-1.8l-0.7-0.5l-3.3-3.6l-1.9-1.8
		l-4.5-5.5l-5.3-6.5l-2-3.4l-2.4-2.1l-2.4-2.1l-1.5-1.2l1.5-1.8l2.4-2.1l2-2.1l2-1.7l3.4,3.4l3.7,3.8l2.4,3l1.7,3l2.4,2.1l0.7,1.3
		l1.3,1.7l2,3l1,1.3l0.7,0.9l3,3.8L502.2,1221.5z"/>
	<path class="st0" d="M569.1,1193.1l2,4.3l28.3,59.6l-6,6.5l-5.6-3.9l-2.1-1.5l-0.9-0.6l-4.4-2.6l-3-4.7l-3-2.6l-4.1-3.8l-3.4-3
		l-4.7-5.1l1.7-3l1.4-5.1l-2.4-6l-1-1.7l-1-0.9l-3.7-4.7l-0.3-0.9l-0.7-1.3l0.7-6.4l-0.3-4.3l-0.7-1.7l-3.4-6l-9.8-11.1l-2.4-2.6
		l-2-2.1l1.4,0l6.1,3l2.7,4.3l0.7,1.7l3.7,0.6l4,0.7l1.5,1.3l7,6L569.1,1193.1z"/>
	<path class="st0" d="M512.4,1149.8l-3-1.7l-2.7,1.3l1.4,2.6l4.4,7.3l-4.7,0.9l-2.2,2.7l-0.2,0.3l-0.3,0.3l-0.7,0.9l-0.6,0.8
		l-0.6,0.7l-5.1,6.3l-3.4,2.1l-1.3-1.7l-2.4,2.6l-6.8-7.7l-2.4,2.1l-10.1-6.8l-3.4-2.1l-3-1.7l0.7-1.3l-8.4-6l2-2.6l2-2.6l1.7-1.7
		l1.7-0.9l3-2.6l7.1-5.6l8.4-8.1l8.1,0.9l1.7,0l1.3-0.9l1-0.9l8.8,9l1.7,2.6l11.8,14.1L512.4,1149.8z"/>
	<path class="st0" d="M509.3,1333.5l1.4,0.9l-3.1,2.7l-4.1,3.5l-1.3,1.1l-1.7,1.3l-3.4,2.6l-3,3l-7.4,8.1l-1,1.3l-16.2-17.9l0.7-0.9
		l-5.2-5.6l17.8-15.9l11.1,6.6l1,0.9l2.7,1.7l3,1.7l1.7,1.1l1,0.6l3,1.7l1,0.4L509.3,1333.5z"/>
	<path class="st0" d="M259.2,1043.6l-0.4,2.9l-0.6,3.8l-0.7,4.8l-0.4,1.4l-0.5,1.8l-1.2,4.7l-0.6,2.3l-1.7-0.4l-1.7-0.5l-3-0.9
		l-2.8-0.8l-8.8-2.1l-3.4-1.3l-0.7-0.2l-11-3.4l-0.3-1.1l-0.2-0.8l1.7,0.4l-0.7-2.1l-1-3.8l0-1.3l0.7-3l0.7-3.4l1.4-3.8l1.4-3.8
		l1-3.4l0.7-2.6l1-3.4l0.7-2.6l1-3l1-2.1l2.4-0.4l5.7-1.7l7.4-1.3l6.1-1.3l1.7-0.4l1,0l3,3.8l2,3l2.7,3.8l-0.7,2.6l-0.3,3.4
		l-0.4,2.5l-0.5,3.4l-0.5,3l-0.7,3.9L259.2,1043.6z"/>
	<path class="st0" d="M395.2,1171.5l-3,2.1l-3,3l-0.7,3l-1,1.7l-1.7,0.9l-9.1,4.3l-3,1.3l-1,0.4l-3.4,1.7l-1,0l-3,1.7l-4.7-5.1
		l2.4-2.6l1.7-2.1l2-3.4l1.7-2.6l0.7-0.9l1.7-2.1l0.7-0.9l3-3l-3.4-3.4l-2-1.3l2.7-2.6l-3-2.1l0.3-2.1l2.7-0.4l2.4-2.1l1.7-1.7
		l7.1,7.3l6.8,7.2l1.3,0.9l5.7,1.7L395.2,1171.5z"/>
	<path class="st0" d="M527.8,1266.4l-2.4,2.6l-1.4,0.9l-1,0.9l-2.4,2.1l-2.7,2.1l-3.4,3l-2.4,1.7l-1.7,2.1l-1.7,1.3l-1.4,1.3l-1,0.9
		l-1,1.3l-1.3,0.9l-2,1.7l-3.7-3.4l-4.1-4.7l-1.4-2.1l-2.7-3l-1-0.9l-1-1.3l-1.7-2.1l-2-2.1l3.4-3l2-1.7l-3.4-4.7l-2.7-2.6l-2-2.1
		l-2-2.1l-4.1-5.1l-2-1.3l3-1.7l3-2.1l2.4-1.7l3.4-2.1l2.4-1.3l2.4-1.7l3-1.7l4.1-2.6l1.7-0.9l1.4-0.9l1-0.9l8.8,4.7l2.5,0.9
		l2.6,0.8l7.8,2.1l2.4,0.7l3.7,1l-1.7,1.3l0.7,2.1l0.7,2.6l2.7,9l0.3,6.8L527.8,1266.4z"/>
	<path class="st0" d="M186.4,1098.4l0.3-2.6l2-3.8l3.7-6l1.7-3l2.4-3.8l3-3.4l1.4-2.1l2.7,0.9l4.1,0.9l4.1,0.9l2.7,1.3l4.1,0.9
		l3.4,1.3l3.7,0.9l2.5,0l0.7,2.3l0.9,4.1l0.5,2.5l0.5,1.8l0.7,3.5l0.5,2.2l0.3,1.1l0.6,2.1l0.3,1.3l0.4,1.8l0.6,2.9l0.7,0.9l1.3,3.8
		l1,4.7l-2.4-0.9l-4.4-1.3l-4.4-2.1l-3-2.1l-1.3-0.4l-4.1-1.3l-3.4-0.4l-3.4-1.3l-3.7-0.9l-3.7-1.3l-3.4-0.9l-3.4-1.3l-3.4-0.9
		l-3-0.9L186.4,1098.4z"/>
	<path class="st0" d="M467.8,1308.6l1.7,0.9l2.4,1.7l-10.1,8.1l-2.7,2.1l-2.7,2.6l-0.8,0.9l-2.4-1.7l-2-2.6l-2-2.1l-2-2.1l-3-3
		l-3-3.4l-1.4-1.3l-2.4-2.6l-2.4-2.6l-2.7-3l-2-2.6l8.6-7.7l2.7,2.1l3.4,1.7l4.1,2.6l1.3,0.9l0.7,0.4l1.3,0.9l1.7,1.3l1.7,0.9l1,0.9
		l2,1.3l3,1.7l3,1.7L467.8,1308.6z"/>
	<path class="st0" d="M316.5,1176.2l-3,3l-3,3l-3,2.6l-3.4,3l-2.7,2.6l-3.4,3l-3,3l-2.7-3.4l-5.7-6l-0.9-1.2l-0.4-0.5l0.3-6.4
		l-2-1.3l2.4,0l2.4,0l-1.7-1.3l0.3-0.4l1-0.9l4.4-4.3l4.7-1.7l2,0.9l1.3-0.9l2-2.6l1.7,0.9l6.1,3.4l3.7,2.1L316.5,1176.2z"/>
	<path class="st0" d="M464.2,991.3l27.3,10.5l-57.1,32.5l-4.7-3l4.3-13.5l-2.4-8.5l0.2-5.3l0.4-5.8l1-6.4l3.3-14.2l18.5-34l3.7,5.3
		l1.9,0.4l5.9,41.2L464.2,991.3z"/>
	<path class="st0" d="M576.1,1255.7l-3.7,1.3l-5.4,0.9l-5.4,0.9l-4.1,0.7l-3,0.5l-4.7,6.4l-2.4,2.6l-2.4,2.6l-3,1.7l-3,1.7l-3.7,0.4
		l-2-2.1l-1.7-2.1l-2.4-2.6l-1.4-2.1l4.1-5.1l-0.3-6.8l-2.7-9l-0.7-2.6l-0.7-2.1l1.7-1.3l7.3,0.7l8,0.6l3.6-0.1l4.8,0.1l3,0l3.6,0.9
		l2.9,1.3l6.1,3l3.4,3.3l4.7,3.1l4.1,2.6l4.4,2.6l-4.4-0.9L576.1,1255.7z"/>
	<path class="st0" d="M606.9,1274.5l-4.7,4.3l-0.7,0.9l-1,1.7l-4.1,1.7l-3-1.3l-2.4,0l-0.7,0.9l3,6.8l-0.7,0.9l-2.4,5.1l-0.7,2.1
		l-3.4,3.8l-3.7,3.4l-3.7-2.6l-8.1-4.3l-3.4-2.6l-4.7-6l-2.4-2.1l-2.7-2.1l-1.4-1.7l-3-2.6l-2-1.7l-3.4-2.1l-3-2.1l-2.7-1.7l3-1.7
		l2.4-2.6l2.4-2.6l4.7-6.4l3-0.5l4.1-0.7l5.1-0.8l5.7-0.9l3.7-1.3l4.4,0.9l4.4,0.9l0.9,0.6l2.1,1.5l7.2,5l3.2,2.2l3.2,2.2l0.6,0.4
		l1.4,0.9l5.1,3.8L606.9,1274.5z"/>
	<path class="st0" d="M464.4,1062.6l-9.1,4.6l-4.4-7.7l-5.9-8.6l7.9-5.8L464.4,1062.6z"/>
	<path class="st0" d="M291.9,1057.7l-0.7,1.7l-3,6.4l-4.7,8.5l-1.7-0.6l-3.4-1.1l-3.3-1l-6.2-2l-2.2-0.8l-0.3-0.1l-2.4-0.7l-5.1-1.3
		l-1.9-0.6l-0.8-0.4l-0.9-0.3l-0.6-0.2l0.6-2.3l1.2-4.7l0.5-1.8l0.4-1.4l0.7-4.8l0.6-3.8l0.4-2.9l0.7,0l1,0.4l7.8,1.3l4.4,1.3
		l3.7,0.4l4.4,1.3l3,0l3,0.9l4,1.3l3.4,1.7L291.9,1057.7z"/>
	<path class="st0" d="M363.2,1248.3l1-1.6l0.3-0.4l3.4,2.6l1.3,1l2.1,2l1.3,0.9l3,2.6l10.5,10.3l3.6,3l2.7,1.7l2.7,2.6l3,3l-0.3,0.9
		l-0.3,1.7l-0.7,1.3l-2,6.4l-0.4,1.1l-0.6-0.3l-11.4-5l-3.2-1l-1.3-0.4l-1.1-0.4l-1.3-0.9l-2.3-1.6l-3.1-2.7l-2.9-2.4l-1.5-1.4
		l-0.8-1l-1.1-1.5l-0.7-1.8l-2.8-9.2l-0.3-4.9l1.4-2.1L363.2,1248.3z M397.7,1278.3l-0.7,1.3l-2,6.4l-0.4,1.2l0.3-1.2l2-6.4
		L397.7,1278.3l0.2-1.7l0.3-0.9l-3-3l-2.7-2.6l-2.7-1.7l-3.7-2.9l3.8,2.9l2.7,1.7l2.7,2.6l3,3l-0.3,0.9L397.7,1278.3z"/>
	<path class="st0" d="M604.3,1438.6l1,1.3l-3,1.7l-17.6,10.3l5.1,10.7l0,3l-4.7-4.7l-2-2.6l-2.7-2.6l-2-1.7l-1.7-2.1l-3-2.1l-3-1.7
		l-1.8-1.5l-2.2-1.9l-0.6-0.7l-0.8-1l-4.1-4.7l-1.3-1.9l-2.7-2l1-1.3l3.4-3.4l2-2.1l3-3l1.4-0.9l2.7-1.7l3-1.7l3-1.7l3.4-2.1
		l2.4-1.7l6.1-3l1.7,3l0.8,1.5l1.2,2.4l0.7,1.3l1,1.3l1.7,2.6l0.8,1.2l0.9,1.3l1.2,2.1l0.5,0.9l0.9,1.6l1.5,2.7l1.4,3L604.3,1438.6z
		"/>
	<path class="st0" d="M266.4,1110l-1.4,3l-2.4,5.1l-1.7,2.6l-3.4-0.4l-3.7-1.3l-2.8-0.4l-3.6-0.5l-6.4-1.3l-2.4-0.4l3.7-5.5l4.7-6.8
		l1-2.1l0.7-3.8l0.7,0.4l0.7,0.4l6.7,2.1l12.8,2.6l-1.7,3L266.4,1110z"/>
	<path class="st0" d="M520.1,1482.6l-0.4,0.2l-3.5,3.1l-1.2-1.6l-0.6-0.8l-1.7,0.8l-11.2,5.1l-1.4-3l-2.5,1.1l1.4,4.3l2.1,6.5l1,1.2
		l5.5,6.3l0.6,0.6l3.4,3l13.2,14.1l-2.4,2.1l-10.8,3.8l-2.1-4.6l-3.9,1.4l2.9,6.2l-10.4,2.1l-6.1,7.7l-36.9,11.5l-4.7,7.3l2.4,31.6
		l-9.8,11.1l-97.4-88.4l-11.8-2.6l-19.3-17.9l-0.5-0.7l-0.5-1.1l0.7-2.5l2-2.6l0.6-0.6l0.4-0.3l0.4-0.3l0.4-0.2l0.4-0.2l0.4-0.2
		l0.4-0.2l0.5,0l12.5,3l31.4,28.2l2.7,1.7l25.2-32.7l0.8-1.1l1.1-1.4l5.9,1.3l-1.1-16.3l1.6-2.7l1.3-1.7l0.4-1.3l0.3-0.8l1.4-54.9
		l0-0.6l-1.1-0.2l-3.6-0.6l-0.4-0.1l1-7.8l3.4,0l-0.3,5.6l0.3-0.1l11.5-2.1l25,26.5l3.7,8.5l11.4,29.8l2.3,1.5l0.5-1.3l3.6,1.8
		l-12.7-32.2l0.7-4.2l0.3-2.9l-1.3-2.6l-3.9-3.5l-15.5-32.6l1-0.2l2,1.2l4.5,3.7l5.6,4.1l3.9,3.6l3.5,3.6l2,5.5l-0.2,4l2.5,2
		l0.6,0.5l0.7,1.1l2,3l3.8-3.1l-18.9-30.2l0.4-0.7l0.7-1.1l0.7-1.8l1.1-1.6l7.8-6l10.6-3.8l-6.9,1.1l-4.4,1.8l-2.5,2.1l-4.2,2.1
		l-0.4-2.3l-3.3-0.4l-3.2-20.5l-2.2-5.4l-4.1-6.7l5.7-6.8l2.1-0.3l5.1,7.3l-1,0.9l-2.7,8.1l4.7-6l0.3-0.4l1.7,2.1l5.1,6.8l3.1,4.3
		l4.6,6.6l3.3,5.2l1.3,2.1l18.5,26.6l12.8,17.9l3.3,5.2l1.6,2.2l10.7,15.3l-7,10.7l0.7,15l8.7,4.7l8.8,4.7L520.1,1482.6z"/>
	<path class="st0" d="M427.6,1340.5l-6.6,2.8l-8.4,5.1l-4.5-17.3l-2.3-8.8l2.2-2.3l5.5-6l2.2-2.3l2.8-2.8l0.7-0.8l1.1-0.8l2,4.3
		l4.9,8.1l2.2,3.7l6.5,11.5l0.4,0.4l1.3,1.9l-2.4-0.8l-7.1,3.8L427.6,1340.5z"/>
	<path class="st0" d="M506.9,1126.2l27.5-49.5l1.2,6l15.2,5.1l15.2,14.1l6.4,8.1l1.4,11.1l0.7,5.5l-3.7,11.1l-3,4.3l-6.1,12.8
		l-0.7,0.9l-1.4-6l-2.7-7.3l-3.7-6.4l-9.5-5.5l-6.1,0.4l-13.5,0l-9.8-0.9l-2.7-1.7L506.9,1126.2z"/>
	<path class="st0" d="M338.6,889.5l38,9.3l-1.9,1.8l-7.1,3l-2,0.4l-1.4,0.7l-2.2,1.1l-11.9,5.9l-2.5,0.8l-1.3,0.4l-3.7-1.7l-2.7,0.9
		l0-1.7l-0.7-7.3l-0.1-2.1l-0.1-2.2l-0.2-4.4L338.6,889.5z"/>
	<path class="st0" d="M430.7,878.8l-2.4,2.1l-10.8-9.4l-5.4,1.3l-4.7-5.1l-9.1,8.9l-2,2l-6.5-4.7l-1.9,2.4l-2.9-1.5l-5.8,1l-5.5,5.4
		l-3.5,5.5l-19.4-9.5l-6.8-0.1l-6.4-2.2l0-0.3l0-1.4l-0.3-9.3l-0.3-3l-0.2-2.2l-0.8-9.8l-0.3-5.1l-1-11.1l-0.3-5.1l0-2.1l-0.3-4.3
		l-0.3-3.8l-0.3-6.4l0-1.7l1.7,1.7l4.7,4.7l7.1,5.6l2-0.9l5.1-3.4l4-1.7l6.4,2.1l3.7,1.3l4.4,1.3l11.5,3.8l17.5,9l6.4,3.8l8.4,12.8
		l13.5,15.4l3.7,12.4L430.7,878.8z"/>
	<path class="st0" d="M309.1,1023.6l0.7-1.7l2.4-4.3l1.7-3l0.7-1.7l0.7-1.7l5.1,0l5.1-1.7l5.1-1.3l2.1-1.1l7.3-3.6l5.4-1.7l10.1-5.1
		l2.7,0l2.4,0l5.7,4.6l2.7,2.2l4,4.3l4.4,4.7l10.8,7.7l4.1-2.1l1.9,0.8l-2.5,8.2l2.1,2.9l-0.3,0l-14.2,5.6l-6.9,1.6l-4.2,1l-1.7,0.4
		l-3,1.3l-6.8,0.9l-13.8,2.6l-1-0.9l-1.4-1.7l-6.1-6.8l-4-3l-3-2.1l-1.7,1.7l-1.9,1.9l-4.2,4.1l-3-2.6l1.3-3l-2-4.3L309.1,1023.6z"
		/>
	<path class="st0" d="M363.1,1248.3l-1.6,2.2l-1.4,2.1l0.1,5l-3.5,1l-3.7,0.4l-6.1,0.7l-1.3,0.2l-5.4,0.9l0-6.4l2.4-3l-2.7-4.7
		l2.4-0.9l-0.3-4.3l-3,1.3l-10.1-12l-0.3-0.4l-1-1.7l-1.4,0l-2,0.9l-17.2-7.3l-6.3,2.9l-1.8-3.8l-1.3-3l3-3.4l0.9-0.9l-1-6l4.4,2.1
		l4.1,1.3l4.7,2.6l3,2.6l2,0.9l5.7,2.6l5.4,1.7l1.7-1.3l1-1.7l0.7-1.7l3,1.7l3.4,2.1l3.7,3l3.7,2.6l3.4,3l3.4,2.6l3.7,3l3,2.6
		l3.7,2.1l3.4,2.6l-3,3.8l-0.4,0.4L363.1,1248.3z"/>
	<path class="st0" d="M175.9,1135.9l1.4-6l1-3l1-3.8l0.1-0.3l1.6-3.9l0.3-2.1l1-0.9l0.4-4.3l3.7,1.3l3.4,0.9l2.7,0.4l6.8,3l4,1.3
		l3.7,0.9l3,1.3l3.7,1.3l3.4,0.4l0,0.4l-0.3,2.1l2.6-0.5l1,0.4l0.9,0.4l0.6,0.3l0.7,0.3l0.7,0.4l4.4,2.1l1.3,0.4l1.2,0.5l-1.2,2.9
		l-4.1,8.1l-1,2.1l-1.7,3l-1.4,3.4l-1.7-0.9l-2-0.9l-3-1.7l-0.7,0.7l-1.9-0.1l-0.8-0.1l-3.4-0.9l-3.7-1.3l-3-0.9l-3.7-0.9l-4.1-1.3
		l-3.3-0.8l-4.1-0.9l-2.4-1.3l-2.1-0.5L175.9,1135.9z"/>
	<path class="st0" d="M392.8,1251l-5.4,6.8l-2.7-2.1l-2.4-1.7l-3.7-2.6l-4.4-3.4l-2-1.3l-1.4-1.7l-3.4-2.6l2.7-3l3-3.4l3.7,0.4
		l2.7,0.4l4.4,0.4l1.4,0l1.7,0l3.7,0.4l3.4,0l3.7,0.4l4.1,0.4l-6.8,9.4L392.8,1251z"/>
	<path class="st0" d="M307.2,1097.2l-10.1,7.3l-9.5,7.7l-2.4,3l-4.7,2.1l-2-1.7l-4.7-8.5l-0.3-1.3l-3.7-2.1l1.7-3.4l2-4.3l3-5.6
		l3.7-7.7l0-0.9l1.4-1.3l1.4-3.8l0.7-2.1l3.7,1.7l3.7-2.6l1.3-1.3l2.7-1.7l2.4,2.1l0.7,1.3l1.7,1.7l2,2.6l0.3,4.3l0.3,1.3l-0.3,1.7
		l0.7,0.4l1.1,1l0.9,0.7l4.4,7.7L307.2,1097.2z"/>
	<path class="st0" d="M463,1144.5l-1.7,1.7l-2,2.6l-2,2.6l-2,2.6l-2,3l-2.4-2.1l-4.1,2.6l-2-0.4l-2.7-0.4l-3.7-0.4l-2.3-0.3
		l-1.7-1.6l0.8-2.6l1.5-2.8l0.5-1.8l-0.4-2.3l-0.8-2.1l-0.6-1.5l-0.1-1.3l0.1-4l0.7-5.9l0.9-3.2l0.5-0.8l2.5-3.9l2-2.6l-1.4-1.3
		l-3-1.7l3-3.4l5.1-14.1l8.1-7.7l6.4-8.5l0.7-1.3l0.3-0.9l0.7-0.9l0.7-1.3l2.4,3.8l1.3,1.7l1.7,2.1l5.5,8.6l14.8,23.4l2.8,3.7l2,2.7
		l2.4,2.1l-1,0.9l-1.3,0.9l-1.7,0l-8.1-0.9l-8.4,8.1l-7.1,5.6l-3,2.6L463,1144.5z"/>
	<path class="st0" d="M249.7,1185.5l-1.7,3l-1.4,2.6l-1.7,3.4l-1,1.7l-0.3,0.9l-2.7,5.6l-1.4,1.3l-2-4.3l-1.7,1.7l-2-1.3l-1-1.3
		l-3.4-1.7l-4.1-2.8l-7.5-4.4l-1.8,0.1l-2.7-1l0.5-1.2l-3.2-1.5l-3,2.7l1.2-2.5l3-6l-4-2.1l-3.4-2.1l-2-0.4l0.7-2.6l1-3.8l0.1-0.4
		l0.6-2.2l0.3-3l0.7-1.3l0.3-0.9l4.4,2.1l3.7,2.1l1-2.9l0.5-0.6l0.5-0.3l0.7-0.5l0.6-0.3l-0.1-0.6l-0.1-1.9l0.3-2.2l0.5-2.3l2.5-5.4
		l1.4-3.4l1.7-3l1-2.1l1.7,0.9l3.4,1.3l4.7,2.1l-1.4,3.4l-1.4,2.6l-1.7,3l-1.4,3l3.7,1.7l4,2.1l4.1,2.1l-1.4,2.6l-1.4,3.4l-1.7,3
		l-1.4,3l-0.7,1.3l4.4,1.7l4,2.1l1.7,0.9l1.9,1l4.5,2l-0.7,1.3L249.7,1185.5z"/>
	<path class="st0" d="M337.6,874.9l6.4,2.2l6.8,0.1l19.4,9.5l3.5-5.5l5.5-5.4l5.8-1l2.9,1.5l1.9-2.4l6.5,4.7l-0.5,0.5l-10.6,10.4
		l-0.3,0.4l-3.4,3.8l-1.4,1.6l-0.9,1l-2.5,2.4l-38-9.3l0.3-3.4l-1-3.4l0.3-1.7l-0.7-3.4L337.6,874.9z"/>
	<path class="st0" d="M436,1211.3l-0.7,1.3l-1.4,1.7l-0.3,0.9l-1.7,2.6l-1.4,3l-1.7,2.6l-1.4,1.7l-0.7,1.3l-1.4,2.6l-1,1.7l-1.7,2.6
		l-3,5.1l-1.7,2.6l-1.7,2.6l-1.4-0.4l-3.4-1.7l1.3-4.7l1-2.1l0.3-1.3l0.3-2.6l1-2.1l0-0.9l1-2.6l0.3-1.3l0.7-2.1l0.3-0.9l0.7-3
		l1-2.1l0.7-3l1-2.6l1-3l0.7-2.6l0.7-2.6l0.3-0.9l6.4,2.1l7.8,4.3l-2,3L436,1211.3z"/>
	<path class="st0" d="M439.7,1218.1l-2.4,2.6l-2.4-1.3l-1.4,2.6l1,0.4l-0.3,2.1l1.4,1.7l3,3l2.4,3.4l-1.7,1.3l-1.3,0.9l-0.7,0.9
		l-2,0.9l-4.1,3.4l-2,1.7l-3,3l-1.4,1.7l-1.3,1.7l-2.4-2.1l-1.4-0.9l-1.3-0.4l-2-1.3l1.7-2.6l1.7-2.6l3-5.1l1.7-2.6l1-1.7l1.4-2.6
		l0.7-1.3l1.4-1.7l1.7-2.6l1.4-3l1.7-2.6l0.3-0.9l1.4-1.7l0.7-1.3l0.3-0.9l2-3l10.1,6.4l-5.7,2.6L439.7,1218.1z"/>
	<path class="st0" d="M297.3,1205.7l1.3,1.3l1.7,1.3l0.9,6l-12.5-4.7l-4.4-2.1l-4.7-2.1l-1.6-1.2l-1.7-1.3l-0.7-1l-1.9-2.4l-3.7-4.7
		l-4.1-2.6l0.7-0.9l1.4-3.4l1.7-3l1.4-3.4l1.4-2.6l7.8,3.9l5.1,2.5l0.3,0.6l0.9,1.2l5.7,6l2.7,3.4l-3.4,3L297.3,1205.7z"/>
	<path class="st0" d="M341.8,1042.4l-2.7,3.4l-2.4,3l-1,1.3l-0.8,0.7l-1.6,1.4l-1.3,0.9l-5.8,3.8l-2.4,5.1l-1,2.1l-4.1,5.1l2,1.3
		l-1.4,2.1l3.4,2.7l-3.8,1.1l-5.4,1.7l-7.4,3.8l-2.4,2.6l-1,0.4l-1,0.4l0.3-1.7l-0.3-1.3l-0.3-4.3l-2-2.6l-1.7-1.7l-0.7-1.3l-2.2-2
		l-2.6,1.7l-1.3,1.3l-3.7,2.6l-3.7-1.7l4.7-8.5l2.9-6.5l0.7-1.7l2.7-5.6l2-3.8l3-6l1-1.7l2-4.3l4.7-9l0-0.9l1.7-3l6.7,3l2,4.3
		l-1.3,3l3,2.6l4.2-4.1l1.9-1.9l1.7-1.7l3,2.1l4,3l6.1,6.8L341.8,1042.4z"/>
	<path class="st0" d="M462.8,1078.6l24.8,5.8l0.6-15.3l-3.5-16.7l47.4-24.8l7.7,2.6l-3.2,4.9l-1,2.6l-2,3.4l-1.7,3.8l-0.3,3.4l0.3,6
		l2,3l2,4.7l-1.7,5.6l-1,3l1.2,6l-27.5,49.5l-1.3,0l-6.1-1.3l-2.7,0.9l-1.3,0.9l-2.4-2.1l-2-2.7l-2.8-3.7l-14.8-23.4l-5.5-8.6
		l-1.7-2.1l-1.3-1.7L462.8,1078.6z"/>
	<path class="st0" d="M282.9,1076.7l-1.4,3.8l-1.3,1.3l0,0.9l-3.7,7.7l-3,5.6l-2,4.3l-1.7,3.4l-12.8-2.6l-6.7-2.1l-0.7-0.4l-0.7-0.4
		l1.2-8.9l0.1-0.3l0.3-1.9l1.1-6.4l0.2-1.1l0.4-1.9l0.3-2l1-4.2l0.1-0.9l0.7-2.7l0.2-0.6l0.1-0.3l0.3-1.3l0.6,0.2l0.9,0.3l0.8,0.4
		l1.9,0.6l5.1,1.3l2.4,0.7l0.3,0.1l2.2,0.8l6.2,2l3.3,1l3.4,1.1l1.7,0.6L282.9,1076.7z"/>
	<path class="st0" d="M184.3,1105.6l-1.7,6l-0.3,4.3l-1.1,0.8l-0.3,2.1l-1.6,3.9l-0.1,0.3l-1,3.8l-1,3l-1.3,6l0.5,5.3l0.5,1l0.8,1.6
		l0.7,0.6l-1.3-0.4l-1.1,0.1l1.2,1.3l2.6,4.7l-2.4-0.9l-2,0l-3.4-1.3l-0.7,0l-4.7,0l-3.7-1.7l-3.4-0.9l-3.4-0.9l-4.1-1.3l-5.4-1.3
		l-5.1-0.9l-4.7-1.3l-3.1-1l-2-0.7l-2.3-1.2l-1.1-0.5l-7.8-3l-5.1-1.3l-6.1,0.8l-10.1-1.3l-14.9-1.7l-10.1-0.9l-15.2-1.3l-15.5-0.9
		l-3,0l-2.7,0l1.7-1.7l35.1,1.3l2-3.8l6.1-12.4l3.7-3.5l19-18.2l3.7,0.4l12.2,0.4l0.7-8.5l-13.5-4.7l-10.8,1.7l-11.8,11.9l0-11.5
		l-30.4,5.1l-2.5,0.4l-0.9-4.7l0-1.3l28.7-10.2l11.5-15.8l10.1-6.4l12.8,6.4l4.4,2.6l31.7-3.8l0-10.2l14.8,5.1l-8.1-13.7l12.5,4.9
		l1.3,1.5l0.7,0.9l1.6,0.4l3.6,0.9l0.6,1l0.9,1.3l-0.1,3.7l-0.2,5.1l0,1.3l1.3,0.8l-0.6,1.5l-0.3,1.1l-0.4-0.2l0,0.8l0,0.9l-0.5,3.3
		l-1.8,6.3l-1.2,4.1l-1.2,1.3l-2,2.8l-0.6,1.2l-1.3,1.5l-1.6,1.8l-4.8,5.1l1.9,1.1l0.4,0.2l2.1,1.4l0.9,0.6l0.8,0.6l1.9,1.5l4.4,2.6
		l4,2.6l4.4,2.6l1.3,0.4L184.3,1105.6z"/>
	<path class="st0" d="M288.8,1209.5l12.5,4.7l-0.9,0.9l-3,3.4l3.2,6.8l-11.6,5.2l-9.8-4.3l9.1-9.8l-2-2.1l-4.1,2.2l-7,3.8l-5.1,0.9
		l3.7-3.8l-4.4,0.9l0.7-3.4l-3,0.9l3.7-5.6l3-1.3l-4-1.3l-13.9,6.4l1-2.1l-9.1-1.3l-8.1-6.4l1.4-1.3l2.7-5.6l0.3-0.9l1-1.7l1.7-3.4
		l1.4-2.6l1.7-3l0.3-0.8l0.7-1.3l3.7,2.3l4,2l3.7,2.1l3.7,2.1l4.1,2.6l3.7,4.7l1.9,2.4l0.8,1l1.7,1.4l1.6,1.2l4.7,2.1L288.8,1209.5z
		"/>
	<path class="st0" d="M182.6,1111.6l1.7-6l2-7.3l3.7,1.3l3,0.9l3.4,0.9l3.4,1.3l3.4,0.9l3.7,1.3l3.7,0.9l3.4,1.3l3.4,0.4l4.1,1.3
		l1.3,0.4l3,2.1l4.4,2.1l4.4,1.3l2.4,0.9l1.7,0.9l-1.2,1.8l-0.8,1.6l-1.4,1.7l-1.4,1.3l-0.7,1.3l-3.2,5.2l-1.2-0.5l-1.3-0.4
		l-4.4-2.1l-0.7-0.4l-0.7-0.3l-0.6-0.3l-0.9-0.4l-1-0.4l-2.6,0.5l0.3-2.1l0-0.4l-3.4-0.4l-3.7-1.3l-3-1.3l-3.7-0.9l-4.1-1.3l-6.7-3
		l-2.7-0.4l-3.4-0.9L182.6,1111.6z"/>
	<path class="st0" d="M379,1228.8l-3,3.4l-2.7,3.8l-3,3.4l-2.7,3l-3.4-2.6l-3.7-2.1l-3-2.6l-3.7-3l-3.4-2.6l-3.4-3l-3.7-2.6l-3.7-3
		l-3.4-2.1l-3-1.7l2-2.1l1.7-1.7l1-1.3l1,0l1.3-1.7l0.7-0.9l2.4-2.1l1-0.9l2.7-2.1l0.3-0.9l1.4-0.9l2-1.7l2.4-2.1l2.4,1.3l3.7,3
		l3.7,2.6l3.4,2.6l3.4,3l3.7,2.1l3.7,3l4.7,3.8l-1,4.3L379,1228.8z"/>
	<path class="st0" d="M580.5,1254.8l-4.1-2.6l-4.7-3.1l-3.4-3.3l-6.1-3l-2.9-1.3l-3.6-0.9l-3,0l-4.8-0.1l-3.6,0.1l-8-0.6l-2.5-0.7
		l5.4-0.4l-0.7-1.3l-1.7-10.7l-1-6.8l-0.7-3.8l-3.3-1.8l-4.1-2.6l-1,1.3l-4.1,2.1l-1.4,0.9l-1-1.7l-4.7-5.1l-5.1-5.5l-3.7-3.4
		l4.4-3.4l-2-2.1l-2-3l-2-3l-2-2.6l-2-3l-2-2.6l-3.9,2.7l-2.9,2l-1.7,1.7l-1.7,0.9l-1.4-0.9l-1.3-1.7l1.3-3l1-2.6l2-5.1l2.4-2.6
		l1.3,1.7l3.4-2.1l5.1-6.3l0.6-0.7l0.6-0.8l0.7-0.9l0.3-0.3l0.2-0.3l2.2-2.7l4.7-0.9l-4.4-7.3l-1.4-2.6l2.7-1.3l3,1.7l5.4,2.6
		l8.9,11.4l1,1.3l6.3,8.2l4.4,4.7l2,2.1l2.4,2.6l9.7,11.2l3.4,6l0.7,1.7l0.3,4.3l-0.7,6.4l0.7,1.3l0.3,0.9l3.7,4.7l1,0.9l1,1.7
		l2.4,6l-1.4,5.1l-1.7,3l4.7,5.1l3.4,3l4.1,3.8l3,2.6L580.5,1254.8z"/>
	<path class="st0" d="M413.1,1205.4l-1.4,3.8l-4.4,5.6l-2.4,3.4l2.4,2.1l-5.1,6.8l2.7,1.7l-2,2.6l-2.4,3.4l-2.7,3.4l-3.7-0.4l-3.4,0
		l-3.7-0.4l-1.7,0l-1.4,0l-4.4-0.4l-2.7-0.4l-3.7-0.4l2.7-3.8l3-3.4l1.7-4.3l1-4.3l2.4-2.6l0-0.9l3-3l3-2.1l2-2.6l0.7-0.9l2-2.6
		l3-5.6l1-4.7l1-3.8l1.3-4.3l2.4-6.8l1.3-3.4l1.3-4.7l3.7,1.2l7.1,1.9l-0.4,1.2l-0.1,0.4l-0.3,2.2l2,2.6l-3.7,11.5l-1.1-0.3
		l-1.9-0.5l-1.4,3.8l-0.7,0.9l3,0.9l2.1,0.8L413.1,1205.4z"/>
	<path class="st0" d="M341.3,956.1l-1.7,0.4l2.4,5.1l-1.2,2.3l-0.5,1.1l-0.3,0.9l-0.3,1.3l-0.6,1.4l-0.9,1.5l-0.3,0.6l-0.2,0.3
		l-2.7,4.5l-2.3,4.3l-0.8,1.3l5,2.7l-1.8,2.8l-1.5,3.1l-3.4,1.7l-4.7,1.3l1.6,2.6l-4.1,9.4l-2.7,6.4l-5,0l-0.6,1.6l-0.7,1.7l-0.7-3
		l0-3.8l-0.7-9.4l0-3.4l-0.3-3.4l-0.3-2.8l0-3l-0.1-2.8l0-0.8l-0.2-1.3l-7.4,2.6l-5.4,2.1l-4.1,1.7l-3.7,0.9l1.3-1.7l0.7-1.3l1-1.3
		l3-4.7l3.4-4.7l3.4-5.6l5.7-9.8l-0.3-4.3l0-3l5.1,0l7.1-1.3l3.4,0l4.4-0.4l3.7-0.4l2.7,0l1.4,0l3,0l7.1-1.3l0,2.6l-1.7,3.4
		L341.3,956.1z"/>
	<path class="st0" d="M253.2,1121.5l0,1.3l-0.7,2.1l-0.7,3l-0.3,2.6l-0.7,3l-0.3,0.9l0,2.1l-1,3.4l-6.4-1.7l-0.7,0.9l-1,1.7l-1.7,3
		l-1,2.6l-4.1-1.7l-4.7-2.1l-3.4-1.3l-1.7-0.9l4.1-8.1l1.2-2.9l3.2-5.2l0.7-1.3l1.4-1.3l1.4-1.7l0.8-1.6l1.2-1.8l2.4,0.4l6.4,1.3
		l3.6,0.5l2.8,0.4L253.2,1121.5z"/>
	<path class="st0" d="M447.8,1192l-2.4,3l-5.4,8.1l-0.3,1.3l-1.3,3l-7.8-4.3l2.4-3.8l-3.7-2.1l-3.4-1.3l1-3.8l1-1.7l0-1.7l0.7-2.6
		l1-1.7l0.3-2.1l0.3-0.4l0.4-1.9l1.9,0.6l2.7,0.9l6.4,1.7l10.8,3.4l-1.3,1.3l-1.7,2.1L447.8,1192z"/>
	<path class="st0" d="M481.3,1308.2l1.4-1.3l0.7-0.9l2.7-1.7l1.7-2.6l1.7-1.3l0.7-0.9l2.7-1.7l0.7-1.7l1.4-0.4l2.4-2.1l2.4-2.1
		l2.7-2.6l6.8,1.7l2.7,0.9l-0.7,4.3l3.6,4l2.4,2.1l2,2.6l1.4,1.7l1,0.9l2,2.1l1.7,2.1l-9.1,7.7l-1.4,1.3l-3.4,3l-4.4,3.4l-2.7,2.1
		l-1,1.3l-1-0.6l-1.7-1.1l-3-1.7l-2.7-1.7l-1-0.9l-6.7-4l-1.1-0.6l-3.3-1.9l-3.4-2.1l-3.7-2.1l3.7-3.8L481.3,1308.2z"/>
	<path class="st0" d="M721.2,1285.8l16.5,24l13.2,30.7l5.8,12.2l-2,0.6l-9.1,5.6l-5.4,3.4l-7.1,4.3l-4.7,2.6l-2,1.7l-3.7,2.1
		l-2.4,1.3l-2.7,1.7l-2.7,2.1l-3.4,1.7l-10.5,6.1l-14.5,8.4l-3.4,2.6l-3.7-5.1l-1.1,0.7l-2.3,1.5l-5.1,3.8l-4.1,2.6l-2,1.7l-3,2.6
		l0.7,2.6l-1,0.4l-3.4-8.5l-2.7-6.4l-3.1-8.6l-0.5-1.7l-0.1-1.3l0.1-3.5l0.4-1.9l1.2-4.4l1-2.4l1.7-3.6l0.9-1.2l4.3-5.9l1.3-2.2
		l0.9-1.9l0.5-1.9l0.4-1.5l0.2-1.3l0-1l-2.3-7.5l-2-4.3l-10.5-17.9l-7.8-16.6l-2.7-3.8l-4.1-5.5l2-1.7l3-1.3l3,0.4l-2.9-0.5
		l50.9-47.1l16.7,22.3l2.4-1.3l2.4,3.4l-2,1.7l6.4,9L721.2,1285.8z"/>
	<path class="st0" d="M313.2,1011.6l0.7,3l-1.7,3l-2.4,4.3l-3.7-2.1l-2.7-1.7l-4-1.7l-3.7-1.3l-6.4-1.3l-4-0.4l-2.7-1.3l-1.7,0
		l-4.7-0.9l-6.4-3l-1.3,0.4l-1,0.4l-1.7,0.4l1.7-4.3l2-3l1.9-2.6l2-2.1l1.1-0.8l3.4-2.1l3.1-1.7l1.6-0.9l6.4-3l2-0.9l3.7-0.9
		l4.1-1.7l5.4-2.1l7.4-2.6l0.2,1.3l0,0.8l0.1,2.8l0,3l0.3,2.8l0.3,3.4l0,3.4l0.7,9.4L313.2,1011.6z"/>
	<path class="st0" d="M723.3,1455.2l-4.8,1.5l-7.5-3.3l-0.6,0.4l-1.4,0.9l-7.1,9.8l-3,2.1l-2.4,0.9l-0.3-1.7l1.7-0.9l-2.4-7.7
		l-1.2-0.6l-0.5-4.2l-1.3,1l-1.1,0l-0.6,0l-1.3-6.4l-0.1-0.4l-2-3.4l-2.4-3.4l1.4,0l1.7,0l2.4,2.1l2.6-3.1l3.5-1.8l20.8,8l7.1,5.6
		L723.3,1455.2z"/>
	<path class="st0" d="M585.2,1187l0.4-10.3l1.4-5.1l7.1,3l0-5.6l0.7-1.3l-0.3-2.1l-2.7,0.4l-1.7-2.6l-1.7-2.6l-0.7-10.2l12-3.7
		l1.1,0.3l0.4,0.1l6.1,2l1,3l-0.9,0.1l-4.5,0.7l1.7,1.3l0,0.6l0,1.6l0,1.8l-0.1,1.7l1.4,1.4l-0.3,0.9l1.1,1.1l0.1,0.6l-0.3,1.6
		l0.1,0.3l2,3.9l-0.3,4.3l-0.3,2.6l5.1-0.9l-0.3-3l1.7-1.7l2.7,0.4l6.1,0.9l5.1,6.8l-2.4,3l2.4,2.1l2.4-1.7l3.4,2.1l0,1.7l18.2,0.4
		l1,17.1l16.6,0.4l2.6,3.1l5.6,6.7l3.4-3.4l4.1,3.8l-6.4,12l12,16.1l-6.9,6l-7-6.8l-8.2,0l-9.7-5.3l-8.2-5.5l-2.9-4.8l-32.7-12.4
		L585.2,1187z"/>
	<path class="st0" d="M586.5,1481l-0.6-0.1l-1.5,0.3l-0.8,0.7l-0.7,1l-0.5,0.9l-0.7,1.1l-1.5,0.9l-3.1,0.3l-1,0.4l-0.5,0.7l-1.2,1.3
		l-1.1,1.4l-0.3,0.2l-2.7,2.1l-3.7,0.2l-6.3,0.3l-1.5-4l-3.2,0.3l-0.7,0.1l-0.6,0.6l-3.3,3.3l-0.9,0l-2.4,0l-1.4-0.9l-3.7-4.7
		l1.5-3.1l3-6.1l0.2-0.4l1-2.1l1.3-2.6l0.3-0.6l4.8-9.9l1.2-2.4l1.9-4l0.6-1.2l0.3-4.2l0-0.5l-1.4-3.4l1.5,1.5l1,1.2l0.6,0.7
		l2.7,2.6l2.4,2.6l3,3.4l1.4,2.1l2.7,3l1.8,1.6l0.6,0.5l-2,0l1.4,1.3l1.7,1.7l11.4,10.9l1.1,1l-0.7,0L586.5,1481z"/>
	<path class="st0" d="M430.8,1297.6l-0.7,0.4l-3.4,3.4l-3,2.6l-3.4,3.4l-1.1,0.8l-0.8,0.8l-2.8,2.8l-2.2,2.3l-5.5,6l-2.2,2.3
		l-17.6-19.6l-1.6-0.4l-3.6-1.1l-0.4-0.1l-4.4-2.8l-0.3-0.2l-11.8-6.4l-6.3-6l-5.4-5.1l-2.4-2.1l-11.8-17.5l5.4-0.9l1.3-0.2l6.1-0.7
		l3.7-0.4l3.6-1.1l2.8,9.2l0.7,1.8l1.1,1.5l0.9,1l1.3,1.3l3,2.6l3.1,2.7l2.3,1.6l1.4,0.9l1.1,0.4l1.3,0.4l3.2,1l11.4,5l0.6,0.3
		l15.8,6.9l1.9,1.2l2,2.2l2.3,3l0.8,1.3l4.7-3.4l3.7-3.4l1-0.9l0.7-0.4l1-0.6l1.4-1.1l4.7-4.3l4.4,2.6l-3,2.6l-2,1.7L430.8,1297.6z"
		/>
	<path class="st0" d="M171.5,1147.9l-0.8,2.6l-0.9,3.4l-1.1,5.9l-0.7,3.3l-2.1,0.7l-1.3,0.1l-3.4,0.1l-7.7-0.7l-4.7-1.2l-9.2-3.5
		l-5.9-5.3l-16.2-20.7l3.3,0.8l8.8,3.5l2.4,1.2l4.9,1.6l4.7,1.3l5.2,0.9l5.3,1.2l4.2,1.3l3.3,0.8l3.4,0.9l3.8,1.8L171.5,1147.9z"/>
	<path class="st0" d="M588.1,1465.9l-10.8,1.3l-2.4-0.9l-0.6-0.5l-1.8-1.6l-2.7-3l-1.4-2.1l-3-3.4l-2.4-2.6l-2.7-2.6l-0.6-0.7
		l-0.8-1l-1.7-1.7l-0.7-0.9l-1.6-2.1l-2.1-1.8l-0.3-0.4l-1.7-2.1l2.4-2.1l2-2.1l1-0.9l0.7-0.4l2.7,2l1.3,1.9l4.1,4.7l0.8,1l0.6,0.7
		l2.2,1.9l1.8,1.5l3,1.7l3,2.1l1.7,2.1l2,1.7l2.7,2.6l2,2.6l4.7,4.7l-0.7,0L588.1,1465.9z"/>
	<path class="st0" d="M442.1,1278.3l-2,1.7l-2.4,2.6l-2.4,2.6l-1.7,2.1l-1.7-0.9l-1.3-0.9l-3-2.1l-3-1.7l-3.4-2.1l-3-1.7l-3-1.7
		l-1-0.9l-2.4-1.3l-3-2.1l-0.7-0.4l-2.4-1.3l-4.4-2.6l0.7-1.7l1.3-3l1.7-4.3l0.7-2.1l1.7-3.8l0.7-1.3l0.7-2.6l1.3-3.4l1.7-4.3
		l3.4,1.7l1.4,0.4l2,1.3l1.3,0.4l1.4,0.9l2.4,2.1l0.3,3l1,3.4l2.7,2.6l1,1.3l0.8,0.9l2.3,2.6l2.4,2.6l2.4,3l1.7,2.1l0.7,0.4l2.4,3
		l2.7,2.6l0.3,0.9L442.1,1278.3z"/>
	<path class="st0" d="M307.5,1026.5l0,0.9l-4.7,9l-2,4.3l-1,1.7l-3,6l-2,3.8l-3.4-1.7l-4-1.3l-3-0.9l-3,0l-4.4-1.3l-3.7-0.4
		l-4.4-1.3l-7.8-1.3l-1-0.4l-0.7,0l0.6-3.4l0.7-3.9l0.5-3l0.5-3.4l0.4-2.5l0.3-3.4l0.7-2.6l2.7-12l1.7-0.4l1-0.4l1.3-0.4l6.4,3
		l4.7,0.9l1.7,0l2.7,1.3l4,0.4l6.4,1.3l3.7,1.3l4,1.7l2.7,1.7l3.7,2.1l-0.7,1.7L307.5,1026.5z"/>
	<path class="st0" d="M652.1,1391.5l-3,1.3l-6.4,1.7l-1.7,0.7l-1.3,0.6l-3.7,0.9l-3.7,1.3l-1.7-3l-1-2.1l-2.4-4.7l-2-3.8l-1.7-3
		l-2.4-6.8l-3-12l-1-3l-1-3l-4.7-17.1l-1.4-2.1l-2.4-2.6l-2-2.6l3-1.7l4.1,3.4l8.1,1.3l1.9,0.5l3.2,0.8l6.1,5.5l4.7,3.4l2.7,5.1
		l0.7,3.8l3.5,5.4l2.9,4.4l1.7,1.7l1,1.3l1.7,3l2.4,1.3l-1.2,4.4l-0.4,1.9l-0.1,3.5l0.1,1.3l0.5,1.7l2.4,6.4L652.1,1391.5z"/>
	<path class="st0" d="M402.3,1140.3l2,4.7l-2.7,1.3l-1,0.9l-2.7,1.7l-6.8,3.4l-0.7,1.3l-4.4,3.8l-1.3,1.7l-2,1.3l-7.1-7.3l-7.1-6.8
		l-3.4-2.3l-3.7-2.4l-12.7-7.1l-1.1-0.6l-2.7-0.7l-5.2-1.7l-11-1.9l1-3.4l1.3-0.4l1.7,0l2.4,0.4l7.4-2.1l2-0.9l2-0.9l3.4-5.6
		l1.1-0.7l2.7-2.1l2-2.1l3.3,2.1l4.1,2.1l0.3-3.8l2,1.3l2,4.3l0.8,3.1l0.7,1.7l1.6,2.5l2-1.7l5.1,6l1.4-0.4l1.3,0l4.4-0.9l1.7,2.1
		l0.7,0.4l-3.4,6.8l-0.3,3l8.8-3l8.4-6l2-1.7l5.7,7.7l-1,0.9L402.3,1140.3z"/>
	<path class="st0" d="M403.7,1180.5l-2.4,6.8l-1.4,4.3l-1,3.8l-1,4.7l-3.4-0.9l-3.7-1.7l-3-2.6l-7.1-6l-1,0.9l-4.7,0.4l-3.7,1.3
		l-1,0.4l-4.4,0.9l-1.7-1.3l1,0l3-1.7l1,0l3.4-1.7l1-0.4l3-1.3l9.1-4.3l1.7-0.9l1-1.7l0.7-3l3-3l3-2.1l1.4-1.3l6.6,1.4l3.2,0.7
		l-1.3,4.7L403.7,1180.5z"/>
	<path class="st0" d="M538.6,1237.8l0.7,1.3l-5.4,0.4l2.5,0.7l-7.3-0.7l-3.7-1l-2.4-0.7l-7.8-2.1l-2.6-0.8l-2.5-0.9l-8.8-4.7
		l2.7-1.7l1.7-1.3l-3.6-4.8l-3.4-5.1l-3-3.8l-0.7-0.9l-1-1.3l-2-3l-1.3-1.7l-0.7-1.3l-2.4-2.1l-1.7-3l-2.4-3l-3.7-3.8l-3.4-3.4
		l2-2.1l2-2.1l2.7-2.1l3,3l1.3,1.7l1.4,0.9l1.7-0.9l1.7-1.7l2.9-2l3.9-2.7l2,2.6l2,3l2,2.6l2,3l2,3l2,2.1l-4.4,3.4l3.7,3.4l5.1,5.5
		l4.7,5.1l1,1.7l1.2-0.8l4.1-2.1l1-1.3l4.1,2.6l3.4,1.7l0.7,3.8l1,6.8L538.6,1237.8z"/>
	<path class="st0" d="M474.9,1202.3l2,3.4l-1.3,0.9l-2.4,2.1l-1.7,0.9l-1,0.9l-1.3,1.3l-1,0.9l-2.7,1.7l-2.7,2.1l-3.7,2.6l-4.1,3
		l-2.4-2.6l-2-3l-2-2.6l-10.1-6.4l1.3-3l0.3-1.3l5.4-8.1l2.4-3l1.7-2.1l1.7-2.1l1.3-1.3l3.4,1.3l2,1.4l1.5,1l4.3,2.7l5,4l1.5,1.2
		l2.4,2.1L474.9,1202.3z"/>
	<path class="st0" d="M422.2,1030.9l-6.1,0.4l-4.4,7.3l-1.6,0.8l-4.5,2.2l-1.7-3l-2.9-2.5l-1.5-1.3l-3-1.7l-3-3l0.3,0l-2.1-2.9
		l2.5-8.2l-1.9-0.8l-4.1,2.1l-10.8-7.7l-4.4-4.7l-4-4.3l-2.7-2.2l-5.7-4.6l-2.4,0l-2.7,0l-10.1,5.1l-5.4,1.7l-7.3,3.6l-2.1,1.1
		l-5.1,1.3l-5.1,1.7l2.7-6.4l4.1-9.4l-1.7-2.6l4.7-1.3l3.4-1.7l1.5-3.1l1.8-2.8l-5.1-2.6l0.8-1.3l2.3-4.3l2.7-4.5l0.2-0.3l0.3-0.6
		l0.9-1.5l0.6-1.4l0.3-1.3l0.3-0.9l0.5-1.1l1.2-2.3l-2.4-5.1l1.7-0.4l4-1.7l1.7-3.4l0-2.6l2,0l1.4-0.1l15.2-1.2l1.3,0l6.1-0.4
		l1.7,1.7l2.4,3l1,1.7l3.7,5.6l1,1.2l2,2.3l0.6,1.1l4.2,8.3l10.9,14.5l1.9,3l2.7,5.1l1.3,2.1l6.4,9.4l7.4,8.1l1.2,2.1l6.6,12
		l1.7,3.4l-1.7,0l-3.4-0.9L422.2,1030.9z"/>
	<path class="st0" d="M281.5,1122.8l1,0.9l-2.7-0.4l-2-0.4l-2.4,1.7l0.7-1.7l-3.7,0l-3.7,0l-3.7-0.9l-4.1-1.3l1.7-2.6l2.4-5.1l1.4-3
		l1.7-3.4l1.7-3l3.7,2.1l0.3,1.3l4.7,8.5l2,1.7l0.2,2l0.1,1L281.5,1122.8z"/>
	<path class="st0" d="M603.1,1371.1l-1.4,1.3l-1.3,0.9l-2.9,1.6l-1,0.9l-3.4,1.7l-1.3,0.9l-2.7,1.7l-3.4,2.1l-3.4,2.1l-2.4,1.3
		l-1.7,0.9l-3.4,2.1l-0.6-1l-1.1-2l-0.4-0.7l-1.3-2.2l-0.6-0.9l-1.1-2l-0.5-0.7l-0.8-1.5l-0.6-0.9l-1-1.7l-1.4-2.1l-0.8-1.6
		l-0.9-1.5l-0.7-1.6l-1-1.7l-1-1.3l-2-1.3l-1.7-1.3l7.1-3.8l5.7-3.4l5.7-3.8l6.3-3.8l5.4-3.5l2.4,3.4l1.9,3.2l1.8,3.2l1.9,3.3
		l1.5,2.6l1.4,2.6l1.7,2.8l1.7,3.2L603.1,1371.1z"/>
	<path class="st0" d="M563.7,1369.7l0.9,1.5l0.8,1.6l-6.1,3.8l-5.7,3l-5.1,3.4l-5.1,3l-6.8,3.8l0.7,1.7l-3,1.7l-2.4,2.1l-5.7,4.3
		l-0.7,0.9l-4.7,3.8l-1,1.3l-11.2-12.4l1-0.9l4.7-4.3l0.7-0.9l23.7-14.5l1.4,2.6l2.7-1.7l8.1-4.7l8.1-5.1l2,1.3l1,1.3l1,1.7
		L563.7,1369.7z"/>
	<path class="st0" d="M560.9,1155.7l-22.5,22.2l-4.5-4.6l-6.3-8.2l-1-1.3l-8.9-11.4l-11.8-14.1l-1.7-2.6l-8.8-9l1.3-0.9l2.7-0.9
		l6.1,1.3l1.4,0l4.7,2.1l2.7,1.7l9.8,0.9l13.5,0l6.1-0.4l9.5,5.5l3.7,6.4l2.7,7.3L560.9,1155.7z"/>
	<path class="st0" d="M487.7,1182.6l-1.3,3l-3-3l-2.7,2.1l-2,2.1l-2,2.1l-5.4-6l-10.1-5.1l-2.7,0.9l-3.7-1.3l-3.4-1.3l-3.4-0.9
		l-3.4-1.3l-4.1-1.3l-3-1.3l-2.4-0.9l-1.3,0l-3.7-1.7l-2-0.4l0-3l0.9-1.8l3.5-7.3l1.5-4.1l1.5-2.8l1.3-2.3l-0.3-2.7l-0.3-1.8
		l0.8,2.1l0.4,2.3l-0.5,1.8l-1.5,2.8l-0.8,2.6l1.7,1.6l2.3,0.3l3.7,0.4l2.7,0.4l2,0.4l4.1-2.6l2.4,2.1l2-3l2-2.6l8.4,6l-0.7,1.3
		l3,1.7l3.4,2.1l10.1,6.8l2.4-2.1l6.8,7.7l-2,5.1L487.7,1182.6z"/>
</g>
<g id="labels-layer">
</g>
<g id="lines-layer">
</g>
<g id="region-groups-layer">
</g>
<circle class="st1" cx="535.5" cy="1284.1" r="1.6"/>
<circle class="st1" cx="471.1" cy="1220.7" r="1.6"/>
<circle class="st1" cx="362.9" cy="1170.2" r="1.6"/>
<circle class="st1" cx="463.6" cy="1172.2" r="1.6"/>
<circle class="st1" cx="464.7" cy="1310.9" r="1.6"/>
<circle class="st1" cx="525.4" cy="1450.4" r="1.6"/>
<circle class="st1" cx="600.1" cy="1276" r="1.6"/>
<circle class="st1" cx="575.2" cy="1195" r="1.6"/>
<circle class="st1" cx="614.7" cy="1348.3" r="1.6"/>
<circle class="st1" cx="342.6" cy="956" r="1.6"/>
<circle class="st1" cx="313.4" cy="977.3" r="1.6"/>
<circle class="st1" cx="339.8" cy="1153.2" r="1.6"/>
<circle class="st1" cx="510.8" cy="1333.8" r="1.6"/>
<circle class="st1" cx="563.2" cy="1222.4" r="1.6"/>
<circle class="st1" cx="394" cy="1122.2" r="1.6"/>
<circle class="st1" cx="291.8" cy="1185.8" r="1.6"/>
<circle class="st1" cx="574.3" cy="1346.5" r="1.6"/>
<circle class="st1" cx="388.4" cy="1155.6" r="1.6"/>
<circle class="st1" cx="604.3" cy="1399.4" r="1.6"/>
<circle class="st1" cx="295.1" cy="1023.9" r="1.6"/>
<circle class="st1" cx="535.5" cy="1372.8" r="1.6"/>
<circle class="st1" cx="577.4" cy="1438.4" r="1.6"/>
<circle class="st1" cx="325.3" cy="1198.3" r="1.6"/>
<circle class="st1" cx="577.8" cy="1440.3" r="1.6"/>
<circle class="st1" cx="457.6" cy="1283.3" r="1.6"/>
<circle class="st1" cx="541.3" cy="1295.4" r="1.6"/>
<circle class="st1" cx="440.9" cy="1187.3" r="1.6"/>
<circle class="st1" cx="367.4" cy="1228.5" r="1.6"/>
<circle class="st1" cx="424.6" cy="1149.1" r="1.6"/>
<circle class="st1" cx="443.6" cy="1260" r="1.6"/>
<circle class="st1" cx="738.3" cy="1372.1" r="1.6"/>
<circle class="st1" cx="505.6" cy="1323.9" r="1.6"/>
<circle class="st2" cx="377.4" cy="999.1" r="8"/>
<circle class="st1" cx="237.5" cy="1073.8" r="1.6"/>
<circle class="st1" cx="479.9" cy="1284.6" r="1.6"/>
<circle class="st1" cx="386.9" cy="1257.9" r="1.6"/>
<circle class="st1" cx="482.7" cy="1091.7" r="1.6"/>
<circle class="st2" cx="291.3" cy="1187.8" r="8"/>
<circle class="st1" cx="500" cy="1201.2" r="1.6"/>
<circle class="st1" cx="431.6" cy="1238.8" r="1.6"/>
<circle class="st1" cx="261.7" cy="1171.3" r="1.6"/>
<circle class="st1" cx="515.7" cy="1336.3" r="1.6"/>
<circle class="st1" cx="568.1" cy="1477.3" r="1.6"/>
<circle class="st1" cx="564.9" cy="1477.6" r="1.6"/>
<circle class="st1" cx="406.2" cy="1204.2" r="1.6"/>
<circle class="st1" cx="406.2" cy="1204.2" r="1.6"/>
<circle class="st1" cx="559.5" cy="1319.7" r="1.6"/>
<circle class="st1" cx="208.1" cy="1147.3" r="1.6"/>
<circle class="st1" cx="222.9" cy="1089.7" r="1.6"/>
<circle class="st1" cx="495.9" cy="1254.9" r="1.6"/>
<circle class="st1" cx="291.9" cy="1192.4" r="1.6"/>
<circle class="st1" cx="445" cy="1039" r="1.6"/>
<circle class="st1" cx="483.9" cy="1089.8" r="1.6"/>
<circle class="st1" cx="560.1" cy="1376.2" r="1.6"/>
<circle class="st1" cx="647.7" cy="1331.9" r="1.6"/>
<circle class="st1" cx="364.6" cy="1149" r="1.6"/>
<circle class="st1" cx="285.3" cy="1029.1" r="1.6"/>
<circle class="st1" cx="306.6" cy="1034.5" r="1.6"/>
<circle class="st1" cx="604.4" cy="1318.6" r="1.6"/>
<circle class="st1" cx="290" cy="962.6" r="1.6"/>
<circle class="st1" cx="323.5" cy="1047.7" r="1.6"/>
<circle class="st1" cx="161.2" cy="1134.2" r="1.6"/>
<circle class="st1" cx="209.6" cy="1134.4" r="1.6"/>
<circle class="st1" cx="617" cy="1399.9" r="1.6"/>
<circle class="st1" cx="533.4" cy="1185.1" r="1.6"/>
<circle class="st1" cx="559.9" cy="1376.6" r="1.6"/>
<circle class="st1" cx="360.2" cy="1216" r="1.6"/>
<circle class="st1" cx="644.4" cy="1316.1" r="1.6"/>
<circle class="st1" cx="271" cy="970.5" r="1.6"/>
<circle class="st1" cx="449.5" cy="1161.8" r="1.6"/>
<circle class="st1" cx="608.3" cy="1179.5" r="1.6"/>
<circle class="st1" cx="644.4" cy="1316.1" r="1.6"/>
<circle class="st1" cx="267.3" cy="1095.6" r="1.6"/>
<circle class="st1" cx="386.9" cy="1257.9" r="1.6"/>
<circle class="st1" cx="449.4" cy="1017.1" r="1.6"/>
<circle class="st1" cx="431.6" cy="1238.8" r="1.6"/>
<circle class="st1" cx="406.2" cy="1247.9" r="1.6"/>
<circle class="st1" cx="209" cy="1134.2" r="1.6"/>
<circle class="st1" cx="283.6" cy="1112.6" r="1.6"/>
</svg>
